<svg width="197" height="318" viewBox="0 0 197 318" fill="none" xmlns="http://www.w3.org/2000/svg">
<g clip-path="url(#clip0_185_37)">
<path d="M194.539 -0.192961H2.46097C1.80828 -0.192961 1.18232 0.0660067 0.7208 0.526972C0.259278 0.987937 0 1.61314 0 2.26504V315.735C0 316.387 0.259278 317.012 0.7208 317.473C1.18232 317.934 1.80828 318.193 2.46097 318.193H194.539C195.192 318.193 195.818 317.934 196.279 317.473C196.741 317.012 197 316.387 197 315.735V2.26504C197 1.61314 196.741 0.987937 196.279 0.526972C195.818 0.0660067 195.192 -0.192961 194.539 -0.192961ZM111.614 304.05L117.45 302.521L123.449 313.277H113.109L111.614 304.05ZM120.822 298.465C120.556 297.989 120.139 297.614 119.637 297.4C119.135 297.186 118.576 297.145 118.048 297.283L108.204 299.86C107.612 300.015 107.1 300.385 106.766 300.897C106.432 301.409 106.301 302.027 106.399 302.63L108.124 313.277H103.194L101.735 303.512C101.648 302.929 101.354 302.397 100.908 302.013C100.461 301.628 99.8906 301.417 99.3009 301.417H82.8897C82.3207 301.417 81.7692 301.614 81.3292 301.974C80.8892 302.335 80.5879 302.836 80.4765 303.394L78.5021 313.277H73.3636L75.0884 302.63C75.1861 302.027 75.0553 301.409 74.7216 300.897C74.3879 300.385 73.8752 300.015 73.2835 299.86L63.4396 297.283C62.9115 297.145 62.3523 297.186 61.8501 297.4C61.3479 297.614 60.9312 297.989 60.6657 298.465L52.4053 313.278H45.3339L59.2897 293.441C68.9163 298.04 79.5674 300.462 90.2311 300.462C95.1714 300.462 100.128 299.949 104.962 298.934C110.529 297.765 115.938 295.937 121.073 293.491L133.461 313.278H129.084L120.822 298.465ZM98.2159 313.277H83.5197L84.907 306.332H97.1788L98.2159 313.277ZM68.377 313.277H58.0381L64.0366 302.521L69.8726 304.05L68.377 313.277ZM85.3837 13.9497L79.5477 15.4779L73.5542 4.72305H83.8938L85.3837 13.9497ZM76.1748 19.5343C76.4403 20.011 76.857 20.3859 77.3594 20.6C77.8617 20.8141 78.421 20.8552 78.9493 20.7169L88.7932 18.1395C89.3848 17.9844 89.8973 17.6149 90.2311 17.103C90.5648 16.5911 90.6959 15.9735 90.5989 15.3704L88.8797 4.72305H93.8052L95.2698 14.489C95.3572 15.0712 95.6509 15.6028 96.0975 15.987C96.5441 16.3712 97.1139 16.5825 97.7033 16.5826H114.107C114.677 16.5824 115.228 16.3854 115.668 16.025C116.108 15.6645 116.41 15.163 116.521 14.6056L118.496 4.72305H123.636L121.916 15.3697C121.818 15.9728 121.949 16.5905 122.283 17.1024C122.617 17.6143 123.129 17.9838 123.721 18.1388L133.565 20.7162C134.093 20.8543 134.652 20.8131 135.155 20.599C135.657 20.3849 136.074 20.0101 136.34 19.5336L144.593 4.72305H151.67L137.708 24.5598C128.082 19.9606 117.43 17.5384 106.766 17.5384C101.831 17.5384 96.8786 18.0517 92.0431 19.0658C86.4735 20.236 81.0629 22.0633 75.9252 24.5093L63.543 4.72305H67.9214L76.1748 19.5343ZM98.782 4.72305H113.477L112.089 11.6673H99.8233L98.782 4.72305ZM128.621 4.72305H138.96L132.967 15.4772L127.131 13.949L128.621 4.72305ZM143.237 97.3771L145.19 94.2421L192.079 124.679V129.087L143.237 97.3771ZM149.813 120.725C151.204 131.795 154.795 142.383 160.234 151.913C154.097 146.016 147.005 141.198 139.258 137.665L149.813 120.725ZM149.183 112.432L134.654 135.751C130.416 134.152 126.042 132.94 121.585 132.13L140.637 101.552L149.219 107.124C149.178 108.174 149.156 109.225 149.153 110.275C149.152 111.05 149.164 111.754 149.183 112.432ZM160.159 218.741C157.136 216.549 154.25 214.173 151.518 211.629C151.725 209.911 151.835 208.154 151.835 206.383C151.835 188.567 141.339 172.843 124.99 165.966C124.912 165.666 124.834 165.37 124.757 165.059C124.375 163.537 123.5 159.449 123.309 157.858C123.21 157.04 123.091 156.051 122.951 154.913C133.415 157.977 142.704 164.137 149.592 172.581C157.336 182.093 161.601 194.097 161.601 206.383C161.602 210.545 161.118 214.692 160.159 218.741ZM91.3182 193.007C90.9208 192.793 90.5277 192.571 90.139 192.342C86.5819 190.273 83.7834 187.019 82.2548 183.171C81.7124 181.815 81.3338 180.399 81.127 178.953C80.506 174.661 79.924 170.363 79.3811 166.061C79.0309 163.338 78.7644 161.132 78.576 159.567C78.3432 157.559 77.3715 153.165 77.0228 151.752C76.844 151.029 76.6567 150.307 76.4609 149.588C73.242 137.697 68.2701 126.924 61.6705 117.5C71.3815 116.098 89.4014 115.516 106.859 125.66C110.44 127.749 113.215 130.978 114.741 134.83C115.284 136.186 115.663 137.602 115.87 139.048C116.51 143.489 117.097 147.824 117.615 151.94C117.966 154.663 118.231 156.869 118.421 158.444C118.66 160.435 119.636 164.879 119.979 166.244C120.109 166.769 120.542 168.421 120.542 168.421C123.764 180.318 128.735 191.087 135.331 200.5C125.888 201.862 108.449 202.461 91.3182 193.007ZM122.494 256.026C122.015 255.428 121.46 254.895 120.843 254.441C119.832 253.693 118.672 253.172 117.442 252.914C116.211 252.656 114.939 252.667 113.713 252.946L118.002 244.468C118.411 243.658 119.095 243.018 119.932 242.665C120.77 242.311 121.705 242.266 122.573 242.538C124.161 243.029 125.27 244.53 125.27 246.187C125.27 246.4 125.254 246.61 125.221 246.816C124.976 247.401 124.564 247.9 124.036 248.252C123.508 248.604 122.888 248.792 122.254 248.793C121.878 248.791 121.506 248.725 121.152 248.597C119.875 248.132 118.463 248.793 118 250.07C117.537 251.346 118.196 252.755 119.474 253.218C120.374 253.544 121.309 253.709 122.255 253.709C122.859 253.709 123.452 253.638 124.027 253.51L122.494 256.026ZM102.814 294.345C99.5651 294.967 96.2748 295.348 92.9698 295.484L108.84 264.898C109.442 265.819 110.225 266.609 111.142 267.218C111.685 267.58 112.349 267.711 112.99 267.583C113.63 267.455 114.193 267.079 114.555 266.536C114.917 265.994 115.048 265.33 114.92 264.691C114.792 264.051 114.415 263.489 113.872 263.127C113.519 262.894 113.216 262.592 112.981 262.241C112.746 261.889 112.583 261.494 112.502 261.079C112.345 260.297 112.487 259.485 112.9 258.803C113.546 258.139 114.412 257.732 115.336 257.657C116.26 257.583 117.179 257.846 117.923 258.398C119.439 259.514 119.922 261.542 119.084 263.194L102.814 294.345ZM91.0383 198.417C102.611 204.299 114.164 206.054 123.494 206.17V222.761H75.8703L91.0383 198.417ZM72.8075 227.677H123.494V237.702C122.099 237.359 120.64 237.365 119.248 237.721C117.855 238.076 116.573 238.769 115.513 239.739H108.558C107.049 239.742 105.573 240.175 104.302 240.988C103.032 241.801 102.021 242.959 101.388 244.327L100.316 246.654C95.6354 239.199 87.3398 234.466 78.3053 234.466H69.7734C69.3523 234.466 68.9374 234.499 68.5275 234.546L72.8075 227.677ZM105.86 246.382C106.098 245.867 106.479 245.431 106.957 245.125C107.435 244.819 107.99 244.656 108.558 244.655H112.393L108.056 253.225C107.741 252.908 107.402 252.607 107.032 252.334C106.067 251.625 104.967 251.12 103.8 250.85L105.86 246.382ZM51.8083 223.759L4.92194 193.326V188.914L53.7631 220.623L51.8083 223.759ZM47.1845 197.28C45.793 186.206 42.2007 175.613 36.7592 166.08C42.8978 171.98 49.9921 176.8 57.7414 180.335L47.1845 197.28ZM56.364 216.448L47.7787 210.874C47.8181 209.808 47.8448 208.75 47.8448 207.725C47.8448 206.958 47.8328 206.255 47.8145 205.574L62.3469 182.25C66.5847 183.848 70.9587 185.06 75.4154 185.871L56.364 216.448ZM36.8414 99.2586C39.8665 101.45 42.7525 103.826 45.4829 106.374C45.2724 108.114 45.1665 109.864 45.1658 111.617C45.1658 129.434 55.6622 145.159 72.0129 152.036C72.0903 152.335 73.5071 158.576 73.6885 160.143C73.7869 160.96 73.9058 161.948 74.0464 163.086C63.6583 160.056 54.296 153.877 47.4095 145.419C39.6645 135.907 35.3993 123.903 35.3993 111.617C35.3982 107.455 35.8822 103.308 36.8414 99.2586ZM55.3965 117.247C61.7676 125.562 66.7183 135.109 70.1602 145.684C57.8166 138.887 50.0871 126.023 50.0871 111.617C50.0871 111.409 50.0955 111.202 50.0983 110.994C51.961 112.995 53.729 115.081 55.3965 117.247ZM74.5062 61.9742C74.9854 62.5718 75.5407 63.1044 76.1579 63.5585C77.6634 64.6734 79.4876 65.2758 81.3618 65.277C82.0094 65.277 82.6542 65.1991 83.2863 65.0558L78.9993 73.5303C78.5899 74.3409 77.9057 74.9799 77.0685 75.3335C76.2313 75.6871 75.2956 75.7322 74.4282 75.4609C72.8398 74.9693 71.731 73.4685 71.731 71.8111C71.731 71.5976 71.7478 71.3869 71.7809 71.1832C72.0251 70.5984 72.4369 70.0986 72.9646 69.7467C73.4922 69.3949 74.1122 69.2066 74.7467 69.2056C75.1123 69.2056 75.4941 69.2737 75.8506 69.4022C76.1561 69.5191 76.4818 69.574 76.8088 69.5636C77.1357 69.5533 77.4573 69.478 77.7548 69.3421C78.0522 69.2061 78.3196 69.0123 78.5412 68.772C78.7628 68.5317 78.9342 68.2497 79.0453 67.9424C79.1565 67.6351 79.2053 67.3088 79.1887 66.9825C79.1722 66.6562 79.0907 66.3365 78.949 66.042C78.8073 65.7476 78.6082 65.4843 78.3634 65.2675C78.1186 65.0508 77.8331 64.885 77.5234 64.7798C76.6333 64.456 75.6933 64.2901 74.746 64.2896C74.1413 64.2896 73.5486 64.3605 72.9748 64.489L74.5062 61.9742ZM94.1856 23.6553C97.4342 23.0332 100.724 22.6525 104.029 22.5162L88.1597 53.1022C87.5584 52.1808 86.7756 51.3913 85.859 50.7818C85.3159 50.4322 84.6568 50.3099 84.0241 50.4413C83.3914 50.5728 82.8359 50.9475 82.4774 51.4845C82.1189 52.0215 81.9862 52.6778 82.1079 53.3117C82.2296 53.9456 82.5961 54.5062 83.1281 54.8726C83.4811 55.1063 83.784 55.4077 84.0193 55.7594C84.2546 56.1111 84.4175 56.506 84.4985 56.9212C84.6556 57.703 84.5133 58.5152 84.0998 59.1973C83.4538 59.8612 82.5885 60.2681 81.6647 60.3425C80.7409 60.4169 79.8214 60.1537 79.0773 59.6018C77.5614 58.4859 77.0783 56.4577 77.9164 54.8066L94.1856 23.6553ZM105.962 119.583C94.3986 113.703 82.8447 111.941 73.5057 111.826V95.2387H121.128L105.962 119.583ZM124.19 90.3234H73.505V80.3017C74.199 80.471 74.8979 80.5567 75.5884 80.5567C77.7765 80.5567 79.8796 79.7315 81.4848 78.2609H88.441C91.5129 78.2609 94.3276 76.4602 95.6115 73.6729L96.6831 71.3462C101.363 78.8009 109.659 83.5344 118.694 83.5344H127.226C127.646 83.5344 128.06 83.5021 128.47 83.4543L124.19 90.3234ZM91.1403 71.618C90.9021 72.1328 90.5215 72.5689 90.0434 72.8749C89.5652 73.1808 89.0095 73.3439 88.4417 73.3449H84.6075L88.943 64.7749C89.2587 65.0916 89.5969 65.3929 89.9675 65.6654C90.931 66.3764 92.0297 66.8835 93.1962 67.1556L91.1403 71.618ZM141.606 200.752C135.232 192.441 130.279 182.889 126.839 172.316C139.183 179.113 146.912 191.976 146.912 206.383C146.912 206.588 146.904 206.792 146.901 206.997C145.041 204.998 143.274 202.914 141.606 200.752ZM117.494 129.389C115.662 126.418 113.189 123.893 110.254 121.998L136.994 79.077L145.429 84.5548L117.494 129.389ZM133.74 53.5327C133.147 53.6886 132.519 53.6569 131.945 53.442C131.37 53.227 130.876 52.8394 130.531 52.3325C130.326 52.0372 130.059 51.7903 129.748 51.609C129.438 51.4278 129.091 51.3166 128.733 51.2833C128.375 51.25 128.014 51.2953 127.676 51.4161C127.337 51.537 127.029 51.7303 126.773 51.9827C125.897 52.8353 125.839 54.2308 126.549 55.2245C127.286 56.2498 128.256 57.0852 129.38 57.6617C130.504 58.2383 131.749 58.5393 133.012 58.54C133.664 58.54 134.322 58.4592 134.971 58.2914L135.074 58.2647C135.018 58.4248 134.15 65.0277 134.15 65.0277L128.949 65.0396C128.296 65.0404 127.67 65.3001 127.209 65.7616C126.748 66.2231 126.49 66.8486 126.49 67.5005C126.491 68.1524 126.751 68.7773 127.213 69.2377C127.675 69.6981 128.301 69.9564 128.954 69.9557H128.96L133.521 69.9451L133.07 73.4797C132.886 74.8985 132.192 76.2021 131.117 77.1475C130.042 78.0928 128.659 78.6153 127.227 78.6177H118.695C110.403 78.6177 102.883 73.6967 99.5125 66.2258C100.33 65.7556 101.068 65.1579 101.696 64.4553C101.771 64.3718 101.841 64.2826 101.904 64.1892C102.505 63.3027 102.924 62.3056 103.136 61.2559C103.348 60.2063 103.348 59.125 103.138 58.0751C102.933 57.0239 102.521 56.0239 101.926 55.1333C101.33 54.2427 100.564 53.4792 99.67 52.8873C99.1269 52.5425 98.4702 52.4238 97.8406 52.5566C97.211 52.6895 96.6585 53.0633 96.3014 53.5981C95.9444 54.1328 95.8112 54.786 95.9303 55.4176C96.0495 56.0492 96.4116 56.6091 96.939 56.9774C97.292 57.2111 97.5949 57.5127 97.8301 57.8645C98.0653 58.2164 98.228 58.6114 98.3087 59.0267C98.4657 59.8084 98.3237 60.6205 97.9108 61.3028C97.2647 61.9665 96.3993 62.3733 95.4755 62.4476C94.5517 62.5219 93.6323 62.2586 92.8883 61.7066C91.3723 60.5907 90.8893 58.5625 91.7302 56.9051L109.572 22.5197C114.747 22.7422 119.878 23.563 124.864 24.9658C123.582 25.1238 121.85 25.4089 120.027 25.9195C114.856 27.369 111.468 29.9667 110.23 33.4283C110.026 34.0382 110.07 34.7035 110.352 35.2816C110.633 35.8597 111.13 36.3046 111.737 36.521C112.343 36.7373 113.01 36.708 113.594 36.4392C114.179 36.1704 114.635 35.6835 114.865 35.0829C116.314 31.0314 124.442 29.801 127.177 29.6886C127.828 29.6631 128.443 29.38 128.886 28.9016C129.329 28.4233 129.563 27.7889 129.538 27.1379C129.525 26.891 129.475 26.6475 129.39 26.4153C131.537 27.1846 133.644 28.0636 135.701 29.0489L133.58 38.8879C133.475 39.3795 133.522 39.8922 133.716 40.3557L138.71 52.2496L133.74 53.5327ZM76.847 29.5405C80.3711 27.7764 84.0442 26.3264 87.8236 25.2073C87.8236 25.2073 73.4157 52.8283 73.3552 52.9631C72.8596 52.3752 72.2834 51.86 71.6438 51.4328C71.3749 51.2537 71.0734 51.1292 70.7564 51.0664C70.4394 51.0037 70.1131 51.0039 69.7962 51.0671C69.4792 51.1303 69.1779 51.2552 68.9093 51.4347C68.6407 51.6142 68.4101 51.8448 68.2308 52.1134C68.0514 52.3819 67.9267 52.683 67.8639 52.9997C67.8011 53.3163 67.8013 53.6422 67.8646 53.9587C67.9278 54.2753 68.0529 54.5763 68.2326 54.8446C68.4124 55.1128 68.6433 55.3431 68.9121 55.5223C69.2653 55.7562 69.5683 56.058 69.8035 56.4101C70.0388 56.7622 70.2016 57.1574 70.2825 57.5729C70.4396 58.3543 70.2973 59.1661 69.8838 59.8476C69.2379 60.5114 68.3726 60.9184 67.4488 60.993C66.525 61.0675 65.6056 60.8045 64.8613 60.2529C64.1281 59.716 63.61 58.9362 63.3996 58.0528C63.1893 57.1694 63.3004 56.24 63.7131 55.431L76.847 29.5405ZM67.1177 74.1104C67.4089 75.1907 67.9067 76.2045 68.5837 77.0958V111.911C67.3982 111.968 66.2697 112.049 65.1939 112.146V77.152C65.3549 76.9399 65.5188 76.7306 65.6629 76.5003L67.1177 74.1104ZM60.272 112.74C59.6293 112.838 58.988 112.945 58.3482 113.061C57.9059 112.504 57.5283 111.943 57.0727 111.395V91.9C57.0727 91.9393 56.8133 91.3143 56.352 90.8536L51.1692 85.677V77.6661L51.5292 77.5446C52.4325 78.6118 53.5784 79.4476 54.8712 79.9822C55.9646 80.4338 57.1001 80.6501 58.2209 80.6501C58.9156 80.6501 59.6033 80.5602 60.272 80.3979V112.74ZM46.968 88.4328L52.1508 93.6094V105.996C51.3801 105.202 50.595 104.423 49.796 103.658C48.2835 102.206 46.6923 100.811 45.0639 99.4475V79.919C45.4682 79.7575 45.8619 79.603 46.248 79.4534V86.6954C46.248 87.3471 46.5067 87.9721 46.968 88.4328ZM40.1412 95.5673C39.0271 94.7513 37.8957 93.9589 36.7479 93.1908C34.2143 91.4967 31.6049 89.9187 28.9277 88.4616C32.1389 85.9987 36.2311 83.8111 40.1412 82.0216V95.5673ZM32.5136 96.2977C31.1588 101.292 30.4739 106.443 30.4767 111.617C30.4767 125.03 35.1335 138.135 43.5901 148.52C51.5552 158.304 62.5572 165.296 74.7144 168.363C75.1989 172.13 75.7124 175.894 76.2549 179.654C76.3231 180.128 76.4068 180.599 76.5038 181.066C43.1338 175.091 18.4179 145.889 18.4179 111.617C18.4179 104.324 19.5274 97.1686 21.7065 90.3023C25.4332 92.0685 29.043 94.0711 32.5136 96.2977ZM22.7949 147.874C17.4682 142.592 11.4571 138.046 4.92194 134.359V84.1819C7.82167 84.9172 12.1199 86.1981 17.1909 88.2952C14.7384 95.8264 13.4916 103.697 13.4967 111.617C13.487 124.292 16.6855 136.764 22.7949 147.874ZM42.875 204.993C42.9067 205.843 42.9221 206.735 42.9221 207.722L32.0953 200.693C30.8992 181.954 20.8416 165.042 4.92194 154.991V140.061C27.5418 153.903 41.9743 178.405 42.875 204.993ZM26.8183 197.266L4.92194 183.051V160.917C16.9603 169.538 24.8551 182.649 26.8183 197.266ZM17.0749 228.893L9.95919 231.939C9.5664 231.684 9.22391 231.359 8.94879 230.98L16.9673 227.978L17.0749 228.893ZM4.92194 255.704C6.21922 258.216 7.99956 260.873 9.76021 263.256L4.92194 268.088V255.704ZM4.92194 243.392V233.823C5.59468 234.76 6.44634 235.555 7.42791 236.162V238.858C7.42791 239.455 7.64799 239.999 8.00518 240.427C6.7924 241.203 5.74469 242.211 4.92194 243.392ZM8.49035 224.325L16.2579 221.938L16.3767 222.95L8.37784 225.945L8.49035 224.325ZM15.5512 215.922L15.6743 216.973L8.8841 219.059C8.988 218.504 9.21401 217.978 9.54584 217.521C9.87767 217.063 10.307 216.685 10.803 216.413L13.7835 214.775L15.5512 215.922ZM8.42988 212.108C6.93565 212.931 5.71603 214.175 4.92194 215.684V209.021L9.10418 211.736L8.42988 212.108ZM4.92194 272.718L9.76021 277.552C7.99956 279.934 6.21922 282.591 4.92194 285.102V272.718ZM13.8735 280.266C17.9918 285.811 19.8502 289.723 19.8502 291.223C19.8502 294.515 17.1691 297.192 13.8735 297.192C10.578 297.192 7.8969 294.515 7.8969 291.223C7.8969 289.723 9.75599 285.811 13.8735 280.266ZM9.56474 270.404L13.8735 266.1L18.1823 270.404L13.8735 274.708L9.56474 270.404ZM7.8969 249.584C7.8969 246.293 10.578 243.615 13.8735 243.615C17.1691 243.615 19.8502 246.293 19.8502 249.584C19.8502 251.083 17.9918 254.996 13.8735 260.542C9.75528 254.995 7.8969 251.083 7.8969 249.584ZM16.1763 236.887L12.3506 236.585V236.263L20.7031 232.688C21.1908 232.479 21.5979 232.119 21.8636 231.66C22.1293 231.201 22.2394 230.669 22.1776 230.142L20.9168 219.405L31.1425 226.045L28.3637 231.58C27.5697 233.169 26.184 234.385 24.5035 234.967L20.6504 236.31C19.2161 236.814 17.6917 237.01 16.1763 236.887ZM4.92194 203.158V199.189L49.2075 227.934L47.4433 230.765L4.92194 203.158ZM79.5055 188.611C81.3386 191.581 83.8114 194.106 86.7443 196.003L60.0041 238.92L51.5707 233.444L79.5055 188.611ZM63.2603 264.467C63.8537 264.311 64.4808 264.343 65.0555 264.558C65.6302 264.772 66.1241 265.16 66.4694 265.666C66.653 265.932 66.8873 266.159 67.1588 266.334C67.4303 266.51 67.7338 266.63 68.0519 266.688C68.37 266.746 68.6964 266.74 69.0124 266.672C69.3284 266.604 69.6279 266.474 69.8937 266.29C70.4304 265.92 70.7977 265.351 70.9148 264.71C71.0319 264.069 70.8892 263.407 70.5181 262.871C68.6372 260.154 65.2263 258.881 62.0298 259.708L61.9279 259.73C61.9834 259.571 62.8511 252.971 62.8511 252.971L68.0522 252.959C68.7049 252.958 69.3305 252.698 69.7915 252.237C70.2525 251.776 70.5111 251.15 70.5103 250.498C70.5096 249.846 70.2496 249.221 69.7875 248.761C69.3255 248.3 68.6992 248.042 68.0465 248.043H68.0409L63.4797 248.053L63.9311 244.519C64.1152 243.1 64.8094 241.797 65.8844 240.851C66.9594 239.906 68.3419 239.384 69.7741 239.381H78.306C86.6001 239.381 94.123 244.305 97.4917 251.781C96.673 252.248 95.9347 252.843 95.305 253.543C95.2297 253.627 95.1604 253.716 95.0975 253.809C94.496 254.695 94.077 255.693 93.865 256.743C93.6531 257.792 93.6523 258.874 93.8628 259.924C94.0676 260.975 94.4796 261.975 95.075 262.866C95.6704 263.756 96.4371 264.52 97.3307 265.111C97.8739 265.457 98.5313 265.577 99.1618 265.445C99.7923 265.312 100.346 264.938 100.703 264.402C101.06 263.867 101.193 263.213 101.073 262.58C100.953 261.948 100.59 261.388 100.061 261.02C99.708 260.787 99.4052 260.485 99.17 260.134C98.9349 259.782 98.7721 259.387 98.6912 258.972C98.5341 258.19 98.6764 257.378 99.0899 256.696C99.7359 256.032 100.601 255.625 101.525 255.551C102.449 255.476 103.368 255.739 104.112 256.291C105.628 257.407 106.111 259.435 105.27 261.094L87.4284 295.479C82.2522 295.257 77.1192 294.436 72.1324 293.032C73.415 292.874 75.1489 292.589 76.9728 292.078C82.1437 290.629 85.5314 288.031 86.7696 284.57C86.9893 283.956 86.9558 283.28 86.6765 282.69C86.3972 282.101 85.895 281.647 85.2804 281.428C84.6657 281.208 83.989 281.242 83.399 281.521C82.8091 281.799 82.3542 282.301 82.1345 282.915C80.6854 286.966 72.5571 288.197 69.8234 288.309C69.1716 288.335 68.5566 288.618 68.1137 289.096C67.6708 289.575 67.4362 290.209 67.4615 290.86C67.4714 291.116 67.5304 291.356 67.612 291.585C65.4639 290.815 63.3569 289.936 61.2993 288.95L63.4206 279.11C63.5268 278.618 63.479 278.106 63.2842 277.642L58.2906 265.748L63.2603 264.467ZM120.154 288.458C116.629 290.223 112.956 291.674 109.176 292.793C109.176 292.793 123.584 265.172 123.644 265.036C124.134 265.616 124.706 266.134 125.356 266.567C125.899 266.929 126.564 267.06 127.204 266.932C127.844 266.804 128.407 266.428 128.769 265.885C129.131 265.343 129.263 264.679 129.135 264.04C129.007 263.4 128.63 262.838 128.086 262.476C127.733 262.243 127.431 261.941 127.195 261.589C126.96 261.237 126.798 260.842 126.717 260.427C126.56 259.645 126.702 258.833 127.115 258.151C127.761 257.487 128.626 257.08 129.55 257.006C130.474 256.931 131.394 257.195 132.138 257.747C132.871 258.284 133.389 259.064 133.599 259.947C133.809 260.83 133.698 261.759 133.285 262.568L120.154 288.458ZM129.883 243.89C129.592 242.809 129.094 241.795 128.417 240.903V206.089C129.601 206.033 130.732 205.953 131.806 205.857V240.823C131.642 241.039 129.883 243.89 129.883 243.89ZM136.728 205.262C137.416 205.156 138.061 205.048 138.657 204.94C139.1 205.498 139.471 206.058 139.927 206.606V226.045C139.927 226.061 140.187 226.686 140.648 227.146L145.831 232.323V240.334L145.471 240.455C144.567 239.388 143.422 238.552 142.129 238.018C140.418 237.309 138.527 237.162 136.727 237.599L136.728 205.262ZM150.032 229.566L144.849 224.39V211.994C145.587 212.752 150.31 217.189 151.937 218.549V238.08C151.533 238.242 151.139 238.396 150.753 238.546V231.305C150.753 230.982 150.689 230.662 150.565 230.364C150.442 230.066 150.261 229.795 150.032 229.566ZM156.859 222.431C157.972 223.247 159.102 224.04 160.248 224.809C162.782 226.504 165.392 228.082 168.07 229.539C164.86 232.001 160.768 234.188 156.859 235.978V222.431ZM164.485 221.704C165.84 216.71 166.525 211.557 166.523 206.383C166.523 192.97 161.866 179.864 153.41 169.479C145.443 159.695 134.441 152.702 122.282 149.636C121.797 145.868 121.284 142.105 120.741 138.346C120.672 137.873 120.589 137.402 120.492 136.933C153.863 142.906 178.581 172.11 178.581 206.383C178.587 213.615 177.478 220.805 175.292 227.699C171.565 225.933 167.956 223.931 164.485 221.704ZM174.206 170.128C179.533 175.409 185.544 179.954 192.079 183.64V233.824C189.046 233.055 184.794 231.77 179.808 229.706C182.261 222.174 183.508 214.303 183.503 206.383C183.512 193.708 180.314 181.238 174.206 170.128ZM154.121 113.005C154.089 112.096 154.073 111.186 154.074 110.277L164.901 117.306C166.097 136.046 176.156 152.962 192.079 163.015V177.938C169.456 164.096 155.022 139.596 154.121 113.005ZM170.178 120.732L192.078 134.951V157.089C180.038 148.464 172.141 135.35 170.178 120.732ZM147.791 90.067L149.556 87.234L192.078 114.846V118.815L147.791 90.067ZM192.078 84.1777C191.405 83.2403 190.553 82.445 189.571 81.8376V79.1423C189.571 78.5453 189.351 78.001 188.994 77.5734C190.207 76.7963 191.255 75.7886 192.079 74.6076L192.078 84.1777ZM186.195 101.586L183.212 103.226L181.449 102.082L181.325 101.027L188.115 98.9411C188.011 99.4964 187.785 100.022 187.453 100.479C187.12 100.936 186.691 101.314 186.195 101.586ZM179.924 89.1063L187.041 86.0605C187.434 86.3155 187.776 86.6404 188.051 87.0191L180.032 90.0214L179.924 89.1063ZM188.51 93.6747L180.742 96.0611L180.623 95.0498L188.623 92.0545L188.51 93.6747ZM192.078 62.2958C190.781 59.7844 189 57.127 187.239 54.7441L192.078 49.9103V62.2958ZM192.078 45.2815L187.238 40.4484C189 38.0655 190.781 35.4067 192.078 32.8953V45.2815ZM183.126 37.734C179.008 32.1881 177.15 28.2756 177.15 26.777C177.15 23.4853 179.831 20.8075 183.126 20.8075C186.422 20.8075 189.103 23.4853 189.103 26.777C189.103 28.2749 187.244 32.1867 183.126 37.734ZM187.435 47.5962L183.126 51.9006L178.817 47.5962L183.126 43.2926L187.435 47.5962ZM189.103 68.4148C189.103 71.7065 186.422 74.3843 183.126 74.3843C179.831 74.3843 177.15 71.7065 177.15 68.4148C177.15 66.9155 179.009 63.0037 183.126 57.4578C187.244 63.0037 189.103 66.9169 189.103 68.4148ZM180.824 81.1122L184.649 81.4142V81.7358L176.297 85.3111C175.809 85.5199 175.402 85.8805 175.136 86.3393C174.87 86.7981 174.76 87.3305 174.822 87.8569L176.083 98.597L165.857 91.9562L168.636 86.4201C169.43 84.8304 170.815 83.6144 172.496 83.0322L176.35 81.6895C177.784 81.1862 179.308 80.9895 180.824 81.1122ZM187.892 106.265L188.569 105.892C190.064 105.068 191.284 103.824 192.078 102.314V108.982L187.892 106.265ZM192.078 20.5842C190.108 17.7526 186.833 15.8915 183.126 15.8915C177.117 15.8915 172.228 20.7745 172.228 26.777C172.228 30.3874 175.665 35.9186 179.013 40.4484L173.597 45.8581C173.368 46.0863 173.187 46.3572 173.063 46.6554C172.94 46.9536 172.876 47.2731 172.876 47.5959C172.876 47.9186 172.94 48.2382 173.063 48.5364C173.187 48.8346 173.368 49.1055 173.597 49.3337L179.013 54.7441C175.665 59.2732 172.228 64.803 172.228 68.4148C172.228 71.7107 173.707 74.6624 176.031 76.6597C175.592 76.7701 175.158 76.8995 174.73 77.0473L170.876 78.3901C167.985 79.3908 165.602 81.4821 164.237 84.2163L161.705 89.2594L137.983 73.8547L139.735 60.151L143.9 55.5742C144.215 55.2278 144.425 54.7988 144.504 54.3375C144.584 53.8762 144.53 53.4018 144.349 52.9701L138.555 39.1688L140.811 28.7019L157.686 4.72305H192.078V20.5842ZM57.7386 4.72305L72.1978 27.8276L59.3235 53.2089C58.3813 55.0548 58.1275 57.1753 58.6073 59.191C59.0872 61.2067 60.2695 62.9862 61.9426 64.2109C63.2341 65.1643 64.7631 65.745 66.3625 65.8894L61.4736 73.9208C61.0328 74.6289 60.3728 75.1741 59.5937 75.4737C58.8146 75.7734 57.959 75.8111 57.1565 75.5812C56.354 75.3513 55.6485 74.8663 55.1468 74.1998C54.6452 73.5332 54.3749 72.7215 54.3769 71.8876C54.3769 71.5569 54.417 71.2366 54.4957 70.9332C54.7698 70.416 55.1797 69.9832 55.6816 69.6813C56.1835 69.3793 56.7583 69.2197 57.3441 69.2197C57.8138 69.2197 58.2737 69.3229 58.711 69.528C59.302 69.8047 59.9788 69.8357 60.5927 69.614C61.2065 69.3924 61.707 68.9363 61.9841 68.346C62.2612 67.7558 62.2922 67.0797 62.0703 66.4666C61.8484 65.8536 61.3917 65.3536 60.8007 65.0769C59.7196 64.5671 58.5389 64.3028 57.3434 64.3029C54.1772 64.3029 51.2775 66.1542 49.9549 69.0181C49.9099 69.116 49.8712 69.2166 49.8389 69.3194C49.4695 70.517 49.3649 71.7805 49.5323 73.0225C44.3059 74.7846 31.537 79.5313 24.1583 86.0247C23.1924 85.5597 22.2194 85.1097 21.2396 84.6749C14.2139 81.5785 8.30612 79.919 4.92123 79.1191V4.72305H57.7386ZM4.92194 297.416C6.89212 300.247 10.1673 302.108 13.8735 302.108C19.8832 302.108 24.7721 297.225 24.7721 291.223C24.7721 287.61 21.3345 282.081 17.9869 277.552L23.4038 272.142C23.6324 271.914 23.8136 271.643 23.9373 271.345C24.061 271.046 24.1247 270.727 24.1247 270.404C24.1247 270.081 24.061 269.762 23.9373 269.464C23.8136 269.165 23.6324 268.894 23.4038 268.666L17.9876 263.257C21.3352 258.727 24.7728 253.196 24.7728 249.585C24.7728 246.291 23.2948 243.341 20.9738 241.344C21.4097 241.232 21.8429 241.102 22.2718 240.953L26.1257 239.61C29.0163 238.61 31.3996 236.518 32.7647 233.784L35.2959 228.741L59.019 244.143L57.2675 257.848L53.1021 262.425C52.7869 262.771 52.5773 263.2 52.4978 263.662C52.4183 264.123 52.4724 264.597 52.6535 265.029L58.4481 278.83L56.1938 289.29L39.3179 313.278H4.92194V297.416ZM139.265 313.277L124.801 290.175L137.677 264.79C138.619 262.945 138.873 260.825 138.393 258.809C137.913 256.794 136.731 255.014 135.058 253.79C133.767 252.836 132.237 252.255 130.637 252.111L135.528 244.079C135.969 243.371 136.629 242.826 137.408 242.526C138.187 242.227 139.042 242.189 139.844 242.419C140.647 242.649 141.352 243.134 141.854 243.8C142.355 244.467 142.626 245.278 142.624 246.112C142.624 246.442 142.584 246.763 142.505 247.066C142.231 247.583 141.821 248.016 141.319 248.318C140.817 248.62 140.242 248.78 139.657 248.78C139.183 248.779 138.715 248.674 138.288 248.471C137.994 248.33 137.676 248.248 137.351 248.23C137.025 248.213 136.7 248.26 136.393 248.369C136.086 248.478 135.804 248.647 135.563 248.866C135.322 249.084 135.127 249.349 134.989 249.643C134.851 249.938 134.773 250.257 134.759 250.582C134.745 250.907 134.796 251.232 134.909 251.537C135.022 251.842 135.195 252.122 135.416 252.36C135.638 252.598 135.905 252.79 136.202 252.924C137.299 253.436 138.461 253.696 139.657 253.696C142.823 253.696 145.723 251.845 147.046 248.981C147.091 248.883 147.13 248.782 147.163 248.678C147.531 247.481 147.635 246.218 147.468 244.977C152.693 243.215 165.462 238.469 172.84 231.975C173.806 232.44 174.778 232.89 175.758 233.324C182.649 236.362 188.439 238.024 192.079 238.884V313.277H139.265Z" fill="#798A78"/>
<path d="M116.117 63.5768C115.793 63.4068 115.745 63.1772 115.739 62.9953C115.713 62.2193 116.549 60.7852 118.987 59.2963C119.543 58.9563 119.942 58.4093 120.095 57.7755C120.249 57.1417 120.143 56.4732 119.803 55.9169C119.462 55.3607 118.915 54.9623 118.28 54.8094C117.646 54.6565 116.976 54.7616 116.419 55.1016C111.418 58.1544 110.763 61.4573 110.819 63.1547C110.885 65.1906 112.01 66.9752 113.828 67.9289C114.747 68.4113 115.768 68.6487 116.826 68.6487C118.33 68.6487 119.908 68.1683 121.377 67.2259C127.004 63.6119 131.444 63.8514 131.562 63.8626C132.209 63.9157 132.851 63.7115 133.348 63.2944C133.845 62.8774 134.157 62.2813 134.216 61.6357C134.245 61.3142 134.211 60.9901 134.115 60.6819C134.019 60.3736 133.863 60.0873 133.656 59.8393C133.449 59.5913 133.195 59.3864 132.909 59.2364C132.623 59.0863 132.31 58.9941 131.988 58.9649C131.74 58.9396 125.905 58.474 118.715 63.0901C117.546 63.8401 116.585 63.8212 116.117 63.5768ZM128.904 31.0693L113.904 37.6238C113.425 37.834 113.026 38.1912 112.764 38.6436C112.502 39.0959 112.391 39.6198 112.447 40.1394C112.503 40.659 112.723 41.1472 113.076 41.5332C113.429 41.9192 113.895 42.183 114.408 42.2863L128.471 45.0954C129.106 45.2111 129.761 45.0731 130.295 44.7109C130.829 44.3488 131.199 43.7917 131.326 43.1595C131.453 42.5274 131.326 41.8708 130.972 41.3314C130.619 40.7919 130.067 40.4128 129.436 40.2756L129.043 40.197L129.654 36.1089L130.878 35.5738C131.467 35.3066 131.927 34.8184 132.159 34.215C132.39 33.6116 132.374 32.9414 132.115 32.3494C131.856 31.7574 131.373 31.2912 130.773 31.0517C130.172 30.8121 129.5 30.8185 128.904 31.0693ZM124.902 39.369L123.041 38.9974L125.091 38.102L124.902 39.369ZM96.7267 100.975H94.3831V98.6342C94.3831 97.9823 94.1238 97.3571 93.6623 96.8962C93.2008 96.4352 92.5749 96.1762 91.9222 96.1762C91.2695 96.1762 90.6435 96.4352 90.182 96.8962C89.7205 97.3571 89.4612 97.9823 89.4612 98.6342V100.975H87.1176C86.465 100.975 85.839 101.234 85.3775 101.695C84.916 102.156 84.6567 102.781 84.6567 103.433C84.6567 104.085 84.916 104.71 85.3775 105.171C85.839 105.632 86.465 105.891 87.1176 105.891H89.4612V108.232C89.4612 108.884 89.7205 109.509 90.182 109.97C90.6435 110.431 91.2695 110.69 91.9222 110.69C92.5749 110.69 93.2008 110.431 93.6623 109.97C94.1238 109.509 94.3831 108.884 94.3831 108.232V105.891H96.7267C97.3794 105.891 98.0053 105.632 98.4668 105.171C98.9284 104.71 99.1877 104.085 99.1877 103.433C99.1877 102.781 98.9284 102.156 98.4668 101.695C98.0053 101.234 97.3794 100.975 96.7267 100.975Z" fill="#798A78"/>
<path d="M80.6713 88.6849C81.9012 88.6849 82.8981 87.6892 82.8981 86.4608C82.8981 85.2324 81.9012 84.2367 80.6713 84.2367C79.4415 84.2367 78.4445 85.2324 78.4445 86.4608C78.4445 87.6892 79.4415 88.6849 80.6713 88.6849Z" fill="#798A78"/>
<path d="M90.9237 88.6849C92.1535 88.6849 93.1505 87.6892 93.1505 86.4608C93.1505 85.2324 92.1535 84.2367 90.9237 84.2367C89.6939 84.2367 88.6969 85.2324 88.6969 86.4608C88.6969 87.6892 89.6939 88.6849 90.9237 88.6849Z" fill="#798A78"/>
<path d="M101.176 88.6849C102.406 88.6849 103.403 87.6892 103.403 86.4608C103.403 85.2324 102.406 84.2367 101.176 84.2367C99.9463 84.2367 98.9493 85.2324 98.9493 86.4608C98.9493 87.6892 99.9463 88.6849 101.176 88.6849Z" fill="#798A78"/>
<path d="M111.429 88.6849C112.658 88.6849 113.655 87.6892 113.655 86.4608C113.655 85.2324 112.658 84.2367 111.429 84.2367C110.199 84.2367 109.202 85.2324 109.202 86.4608C109.202 87.6892 110.199 88.6849 111.429 88.6849Z" fill="#798A78"/>
<path d="M121.681 88.6849C122.911 88.6849 123.908 87.6892 123.908 86.4608C123.908 85.2324 122.911 84.2367 121.681 84.2367C120.451 84.2367 119.454 85.2324 119.454 86.4608C119.454 87.6892 120.451 88.6849 121.681 88.6849Z" fill="#798A78"/>
<path d="M98.9528 149.784H109.969C110.622 149.784 111.247 149.525 111.709 149.064C112.171 148.603 112.43 147.978 112.43 147.326V135.855C112.43 131.466 108.855 127.896 104.46 127.896C100.067 127.896 96.4919 131.466 96.4919 135.855V147.326C96.4919 147.978 96.7511 148.603 97.2127 149.064C97.6742 149.525 98.3002 149.784 98.9528 149.784ZM101.414 135.855C101.414 134.177 102.78 132.812 104.46 132.812C106.141 132.812 107.508 134.177 107.508 135.855V144.868H101.414V135.855ZM93.6793 147.326V127.077C93.6793 122.688 90.1046 119.117 85.7107 119.117C81.3161 119.117 77.7421 122.688 77.7421 127.077V147.326C77.7421 147.978 78.0014 148.603 78.4629 149.064C78.9244 149.525 79.5504 149.784 80.2031 149.784H91.2191C91.8716 149.784 92.4974 149.525 92.9588 149.064C93.4201 148.603 93.6793 147.978 93.6793 147.326ZM88.7574 144.868H82.6633V127.077C82.6641 126.27 82.9853 125.496 83.5565 124.926C84.1276 124.355 84.9021 124.034 85.71 124.033C86.5179 124.034 87.2924 124.355 87.8636 124.926C88.4347 125.496 88.7559 126.27 88.7567 127.077V144.868H88.7574ZM80.883 254.423C81.2071 254.593 81.2549 254.823 81.2613 255.005C81.2866 255.781 80.4513 257.215 78.0135 258.704C77.7377 258.872 77.4979 259.093 77.3076 259.354C77.1173 259.615 76.9804 259.911 76.9046 260.224C76.8288 260.538 76.8156 260.864 76.8658 261.183C76.916 261.502 77.0286 261.808 77.1972 262.083C77.3657 262.358 77.5869 262.598 77.8482 262.788C78.1095 262.978 78.4056 263.115 78.7198 263.191C79.034 263.266 79.3601 263.279 79.6793 263.229C79.9986 263.179 80.3049 263.067 80.5806 262.898C85.582 259.846 86.236 256.543 86.1811 254.845C86.115 252.809 84.99 251.025 83.1717 250.071C80.9484 248.905 78.126 249.167 75.6235 250.774C69.9957 254.388 65.5568 254.147 65.4386 254.137C64.0957 254.036 62.9074 255.019 62.7843 256.364C62.755 256.686 62.7894 257.01 62.8855 257.318C62.9816 257.626 63.1376 257.913 63.3445 258.161C63.5514 258.409 63.8053 258.614 64.0915 258.764C64.3777 258.914 64.6906 259.006 65.0125 259.035C65.2572 259.059 71.0932 259.527 78.2849 254.91C79.4535 254.159 80.4154 254.178 80.883 254.423ZM67.1107 287.137C67.4398 287.137 67.7745 287.07 68.0958 286.931L83.0958 280.376C83.5752 280.166 83.9751 279.809 84.2375 279.357C84.5 278.905 84.6112 278.38 84.5551 277.861C84.4989 277.341 84.2784 276.852 83.9254 276.466C83.5725 276.08 83.1055 275.817 82.5923 275.714L68.5296 272.905C67.8897 272.777 67.2251 272.908 66.6821 273.27C66.1391 273.631 65.7621 274.193 65.6341 274.832C65.5061 275.472 65.6375 276.135 65.9995 276.678C66.3614 277.22 66.9243 277.596 67.5642 277.724L67.9566 277.803L67.3462 281.892L66.1228 282.426C65.6042 282.652 65.1795 283.05 64.92 283.552C64.6605 284.054 64.5822 284.63 64.6982 285.183C64.8141 285.736 65.1174 286.232 65.5568 286.588C65.9962 286.944 66.5449 287.138 67.1107 287.137ZM72.098 278.63L73.9585 279.002L71.9089 279.897L72.098 278.63ZM100.273 217.025H102.618V219.366C102.618 220.018 102.877 220.643 103.338 221.104C103.8 221.565 104.426 221.824 105.079 221.824C105.731 221.824 106.357 221.565 106.819 221.104C107.28 220.643 107.54 220.018 107.54 219.366V217.025H109.883C110.536 217.025 111.162 216.766 111.623 216.305C112.085 215.844 112.344 215.219 112.344 214.567C112.344 213.915 112.085 213.29 111.623 212.829C111.162 212.368 110.536 212.109 109.883 212.109H107.54V209.768C107.54 209.116 107.28 208.491 106.819 208.03C106.357 207.569 105.731 207.31 105.079 207.31C104.426 207.31 103.8 207.569 103.338 208.03C102.877 208.491 102.618 209.116 102.618 209.768V212.109H100.273C99.6206 212.109 98.9947 212.368 98.5332 212.829C98.0716 213.29 97.8124 213.915 97.8124 214.567C97.8124 215.219 98.0716 215.844 98.5332 216.305C98.9947 216.766 99.6206 217.025 100.273 217.025Z" fill="#798A78"/>
<path d="M116.329 233.763C117.559 233.763 118.555 232.768 118.555 231.539C118.555 230.311 117.559 229.315 116.329 229.315C115.099 229.315 114.102 230.311 114.102 231.539C114.102 232.768 115.099 233.763 116.329 233.763Z" fill="#798A78"/>
<path d="M106.076 233.763C107.306 233.763 108.303 232.768 108.303 231.539C108.303 230.311 107.306 229.315 106.076 229.315C104.846 229.315 103.849 230.311 103.849 231.539C103.849 232.768 104.846 233.763 106.076 233.763Z" fill="#798A78"/>
<path d="M95.8239 233.763C97.0537 233.763 98.0507 232.768 98.0507 231.539C98.0507 230.311 97.0537 229.315 95.8239 229.315C94.594 229.315 93.597 230.311 93.597 231.539C93.597 232.768 94.594 233.763 95.8239 233.763Z" fill="#798A78"/>
<path d="M85.5714 233.763C86.8013 233.763 87.7983 232.768 87.7983 231.539C87.7983 230.311 86.8013 229.315 85.5714 229.315C84.3416 229.315 83.3446 230.311 83.3446 231.539C83.3446 232.768 84.3416 233.763 85.5714 233.763Z" fill="#798A78"/>
<path d="M75.3191 233.763C76.549 233.763 77.5459 232.768 77.5459 231.539C77.5459 230.311 76.549 229.315 75.3191 229.315C74.0893 229.315 73.0923 230.311 73.0923 231.539C73.0923 232.768 74.0893 233.763 75.3191 233.763Z" fill="#798A78"/>
<path d="M98.0472 168.216H87.0312C86.3785 168.216 85.7525 168.475 85.291 168.936C84.8295 169.397 84.5702 170.022 84.5702 170.674V179.982C84.5702 184.371 88.1449 187.941 92.5388 187.941C96.9327 187.941 100.507 184.371 100.507 179.982V170.674C100.508 170.351 100.444 170.032 100.32 169.734C100.197 169.435 100.016 169.164 99.7871 168.936C99.5586 168.708 99.2874 168.527 98.9888 168.403C98.6903 168.28 98.3703 168.216 98.0472 168.216ZM95.5862 179.982C95.5862 181.661 94.2193 183.025 92.5395 183.025C90.8597 183.025 89.4928 181.661 89.4928 179.982V173.132H95.5869V179.982H95.5862ZM116.797 168.216H105.782C105.129 168.216 104.503 168.475 104.041 168.936C103.58 169.397 103.321 170.022 103.321 170.674V190.923C103.321 195.312 106.895 198.883 111.289 198.883C115.683 198.883 119.258 195.312 119.258 190.923V170.674C119.258 170.022 118.999 169.397 118.537 168.936C118.076 168.475 117.45 168.216 116.797 168.216ZM114.336 190.923C114.336 192.602 112.97 193.967 111.289 193.967C109.609 193.967 108.243 192.602 108.243 190.923V173.132H114.336V190.923ZM85.492 163.909C85.492 164.561 85.7513 165.186 86.2128 165.647C86.6743 166.108 87.3003 166.367 87.953 166.367H108.813C109.466 166.367 110.092 166.108 110.553 165.647C111.015 165.186 111.274 164.561 111.274 163.909V161.57H114.204C114.527 161.57 114.847 161.507 115.146 161.383C115.444 161.26 115.715 161.079 115.944 160.85C116.172 160.622 116.354 160.351 116.477 160.053C116.601 159.755 116.665 159.435 116.665 159.112C116.665 158.79 116.601 158.47 116.477 158.172C116.354 157.874 116.172 157.603 115.944 157.374C115.715 157.146 115.444 156.965 115.146 156.841C114.847 156.718 114.527 156.654 114.204 156.654H111.274V154.311C111.274 153.659 111.015 153.034 110.553 152.573C110.092 152.112 109.466 151.853 108.813 151.853H87.953C87.3003 151.853 86.6743 152.112 86.2128 152.573C85.7513 153.034 85.492 153.659 85.492 154.311V156.654H83.0331C82.71 156.654 82.3899 156.718 82.0914 156.841C81.7928 156.965 81.5215 157.146 81.293 157.374C81.0645 157.603 80.8832 157.874 80.7595 158.172C80.6358 158.47 80.5722 158.79 80.5722 159.112C80.5722 159.435 80.6358 159.755 80.7595 160.053C80.8832 160.351 81.0645 160.622 81.293 160.85C81.5215 161.079 81.7928 161.26 82.0914 161.383C82.3899 161.507 82.71 161.57 83.0331 161.57H85.492V163.909ZM90.4139 156.769H106.352V161.451H90.4139V156.769ZM23.3722 48.1904C25.2322 48.1912 27.0719 47.8034 28.773 47.052V52.1745H22.0264C21.3737 52.1745 20.7477 52.4334 20.2862 52.8944C19.8247 53.3554 19.5654 53.9806 19.5654 54.6325C19.5654 55.2844 19.8247 55.9096 20.2862 56.3705C20.7477 56.8315 21.3737 57.0905 22.0264 57.0905H40.4415C41.0942 57.0905 41.7201 56.8315 42.1816 56.3705C42.6432 55.9096 42.9024 55.2844 42.9024 54.6325C42.9024 53.9806 42.6432 53.3554 42.1816 52.8944C41.7201 52.4334 41.0942 52.1745 40.4415 52.1745H33.6949V47.052C35.3958 47.8033 37.2352 48.1911 39.095 48.1904C42.6669 48.1904 46.0251 46.8013 48.5507 44.2786C53.7645 39.0712 53.7645 30.5981 48.5507 25.3899L32.9742 9.83218C32.7457 9.60391 32.4744 9.42283 32.1758 9.29929C31.8772 9.17575 31.5571 9.11216 31.2339 9.11216C30.9107 9.11216 30.5907 9.17575 30.2921 9.29929C29.9935 9.42283 29.7222 9.60391 29.4937 9.83218L13.9164 25.3899C8.7027 30.5974 8.7027 39.0705 13.9164 44.2786C15.1553 45.5227 16.6289 46.5091 18.252 47.1805C19.8751 47.852 21.6154 48.1952 23.3722 48.1904ZM17.397 28.8656L31.2339 15.046L45.0702 28.8656C48.3651 32.1572 48.3651 37.5114 45.0702 40.8023C44.2873 41.5885 43.3561 42.2118 42.3305 42.6361C41.3048 43.0604 40.2051 43.2774 39.095 43.2744C36.8379 43.2744 34.7152 42.3965 33.1197 40.8023L32.9742 40.657C32.746 40.4283 32.4747 40.247 32.176 40.1235C31.8774 39.9999 31.5572 39.9366 31.2339 39.9371C30.9112 39.9367 30.5915 39.9999 30.2933 40.1231C29.995 40.2462 29.724 40.4269 29.4958 40.6548L29.3481 40.8023C28.5653 41.5885 27.6341 42.2118 26.6084 42.6361C25.5828 43.0604 24.483 43.2774 23.3729 43.2744C22.2627 43.2774 21.163 43.0604 20.1374 42.6361C19.1117 42.2118 18.1805 41.5885 17.3977 40.8023C14.1021 37.5114 14.1021 32.1565 17.397 28.8656ZM173.628 269.81C171.768 269.809 169.928 270.197 168.227 270.948V265.826H174.974C175.627 265.826 176.253 265.567 176.714 265.106C177.176 264.645 177.435 264.019 177.435 263.368C177.435 262.716 177.176 262.09 176.714 261.629C176.253 261.169 175.627 260.91 174.974 260.91H156.559C155.907 260.91 155.281 261.169 154.819 261.629C154.358 262.09 154.098 262.716 154.098 263.368C154.098 264.019 154.358 264.645 154.819 265.106C155.281 265.567 155.907 265.826 156.559 265.826H163.306V270.948C161.605 270.196 159.766 269.809 157.906 269.81C154.334 269.81 150.976 271.199 148.45 273.721C143.236 278.929 143.236 287.402 148.45 292.61L164.026 308.168C164.507 308.648 165.137 308.888 165.767 308.888C166.397 308.888 167.026 308.647 167.507 308.168L183.084 292.61C188.297 287.403 188.297 278.93 183.084 273.721C181.845 272.477 180.371 271.491 178.748 270.819C177.125 270.148 175.385 269.805 173.628 269.81ZM179.603 289.134L165.766 302.954L151.929 289.134C148.634 285.843 148.634 280.489 151.929 277.198C152.712 276.411 153.643 275.788 154.669 275.364C155.695 274.94 156.795 274.723 157.905 274.726C160.162 274.726 162.284 275.603 163.88 277.198L164.026 277.343C164.949 278.265 166.583 278.265 167.506 277.343L167.651 277.198C168.434 276.411 169.365 275.788 170.391 275.364C171.417 274.94 172.517 274.723 173.627 274.726C175.884 274.726 178.006 275.603 179.602 277.198C182.898 280.489 182.898 285.843 179.603 289.134Z" fill="#798A78"/>
</g>
<defs>
<clipPath id="clip0_185_37">
<rect width="197" height="318" fill="white"/>
</clipPath>
</defs>
</svg>
