<svg width="150" height="93" viewBox="0 0 150 93" fill="none" xmlns="http://www.w3.org/2000/svg">
<path d="M39.02 88.76L39 85.92C38.68 86.6133 38.2 87.1867 37.56 87.64C36.92 88.08 36.2333 88.3 35.5 88.3C34.78 88.3 34.1333 88.0733 33.56 87.62C32.9867 87.1667 32.5333 86.5467 32.2 85.76C31.8667 84.96 31.7 84.06 31.7 83.06C31.7 81.94 31.9067 80.9667 32.32 80.14C32.7467 79.3133 33.3333 78.68 34.08 78.24C34.8267 77.7867 35.6867 77.56 36.66 77.56C37.2067 77.56 37.6533 77.6467 38 77.82C38.3467 77.98 38.66 78.26 38.94 78.66V74.8C38.94 74.32 38.7867 73.9333 38.48 73.64C38.1867 73.3467 37.8 73.2 37.32 73.2V73H39.36C40.0267 73 40.5333 72.9333 40.88 72.8C41.2267 72.6667 41.4733 72.48 41.62 72.24H41.82V86.2C41.82 86.68 41.9667 87.0667 42.26 87.36C42.5533 87.6533 42.9467 87.8 43.44 87.8V88H41.4C40.8133 88 40.3467 88.06 40 88.18C39.6667 88.3 39.4067 88.4933 39.22 88.76H39.02ZM36.6 87.5C36.9067 87.5 37.2133 87.4067 37.52 87.22C37.84 87.02 38.1267 86.76 38.38 86.44C38.6333 86.12 38.82 85.78 38.94 85.42V80.54C38.8733 79.74 38.6733 79.1 38.34 78.62C38.02 78.14 37.6 77.9 37.08 77.9C36.3867 77.9 35.8467 78.34 35.46 79.22C35.0867 80.1 34.9 81.4 34.9 83.12C34.9 86.04 35.4667 87.5 36.6 87.5ZM48.1964 88.24C47.2764 88.24 46.4564 88.0133 45.7364 87.56C45.0297 87.1067 44.4764 86.48 44.0764 85.68C43.6764 84.8667 43.4764 83.94 43.4764 82.9C43.4764 81.8333 43.6964 80.9 44.1364 80.1C44.5764 79.3 45.1764 78.68 45.9364 78.24C46.7097 77.7867 47.5831 77.56 48.5564 77.56C49.3697 77.56 50.0897 77.72 50.7164 78.04C51.3564 78.36 51.8631 78.8133 52.2364 79.4C52.6231 79.9733 52.8431 80.64 52.8964 81.4L52.9164 81.7H46.1964V81.8C46.1964 83.2133 46.5097 84.3467 47.1364 85.2C47.7631 86.04 48.6031 86.46 49.6564 86.46C50.2964 86.46 50.9031 86.3067 51.4764 86C52.0631 85.68 52.5364 85.2533 52.8964 84.72L53.0764 84.78C52.8497 85.46 52.4964 86.06 52.0164 86.58C51.5364 87.1 50.9697 87.5067 50.3164 87.8C49.6631 88.0933 48.9564 88.24 48.1964 88.24ZM46.2164 81.4H50.2764C50.2764 80.3467 50.1031 79.4933 49.7564 78.84C49.4231 78.1867 48.9497 77.86 48.3364 77.86C47.7497 77.86 47.2631 78.18 46.8764 78.82C46.4897 79.46 46.2697 80.32 46.2164 81.4ZM58.1386 88.32L54.1586 79.12C54.0253 78.8133 53.8453 78.56 53.6186 78.36C53.4053 78.16 53.1053 78.0533 52.7186 78.04V77.84H58.3186V78.04C57.8519 78.0933 57.5453 78.3 57.3986 78.66C57.2653 79.02 57.3119 79.4733 57.5386 80.02L59.5986 84.84L61.6386 80.14C61.7719 79.8333 61.8386 79.5333 61.8386 79.24C61.8386 78.9067 61.7386 78.6333 61.5386 78.42C61.3386 78.2067 61.0586 78.08 60.6986 78.04V77.84H63.8586V78.04C63.5119 78.12 63.1786 78.32 62.8586 78.64C62.5386 78.96 62.2519 79.4 61.9986 79.96L58.3186 88.32H58.1386ZM67.7277 88.24C66.8077 88.24 65.9877 88.0133 65.2677 87.56C64.561 87.1067 64.0077 86.48 63.6077 85.68C63.2077 84.8667 63.0077 83.94 63.0077 82.9C63.0077 81.8333 63.2277 80.9 63.6677 80.1C64.1077 79.3 64.7077 78.68 65.4677 78.24C66.241 77.7867 67.1143 77.56 68.0877 77.56C68.901 77.56 69.621 77.72 70.2477 78.04C70.8877 78.36 71.3943 78.8133 71.7677 79.4C72.1543 79.9733 72.3743 80.64 72.4277 81.4L72.4477 81.7H65.7277V81.8C65.7277 83.2133 66.041 84.3467 66.6677 85.2C67.2943 86.04 68.1343 86.46 69.1877 86.46C69.8277 86.46 70.4343 86.3067 71.0077 86C71.5943 85.68 72.0677 85.2533 72.4277 84.72L72.6077 84.78C72.381 85.46 72.0277 86.06 71.5477 86.58C71.0677 87.1 70.501 87.5067 69.8477 87.8C69.1943 88.0933 68.4877 88.24 67.7277 88.24ZM65.7477 81.4H69.8077C69.8077 80.3467 69.6343 79.4933 69.2877 78.84C68.9543 78.1867 68.481 77.86 67.8677 77.86C67.281 77.86 66.7943 78.18 66.4077 78.82C66.021 79.46 65.801 80.32 65.7477 81.4ZM72.3867 88V87.8C72.8667 87.8 73.2534 87.66 73.5467 87.38C73.8534 87.0867 74.0067 86.6933 74.0067 86.2V74.8C74.0067 74.32 73.8534 73.9333 73.5467 73.64C73.2534 73.3467 72.8667 73.2 72.3867 73.2V73H74.4267C75.1067 73 75.6267 72.9267 75.9867 72.78C76.3201 72.6333 76.5534 72.4533 76.6867 72.24H76.8867V86.2C76.8867 86.6933 77.0334 87.0867 77.3267 87.38C77.6334 87.66 78.0267 87.8 78.5067 87.8V88H72.3867ZM84.015 88.28C82.9217 88.28 81.9617 88.06 81.135 87.62C80.3217 87.18 79.6883 86.56 79.235 85.76C78.7817 84.96 78.555 84.0133 78.555 82.92C78.555 81.8267 78.7817 80.88 79.235 80.08C79.6883 79.28 80.3217 78.66 81.135 78.22C81.9617 77.78 82.9217 77.56 84.015 77.56C85.1083 77.56 86.0617 77.78 86.875 78.22C87.6883 78.66 88.3217 79.28 88.775 80.08C89.2283 80.88 89.455 81.8267 89.455 82.92C89.455 84.0133 89.2283 84.96 88.775 85.76C88.3217 86.56 87.6883 87.18 86.875 87.62C86.0617 88.06 85.1083 88.28 84.015 88.28ZM83.995 88.02C84.4617 88.02 84.8617 87.7867 85.195 87.32C85.5283 86.8533 85.7883 86.2333 85.975 85.46C86.1617 84.6733 86.255 83.82 86.255 82.9C86.255 81.9 86.155 81.02 85.955 80.26C85.7683 79.4867 85.5017 78.8867 85.155 78.46C84.8217 78.02 84.4417 77.8 84.015 77.8C83.5617 77.8 83.1617 78.0333 82.815 78.5C82.4817 78.9667 82.2217 79.5867 82.035 80.36C81.8483 81.1333 81.755 81.98 81.755 82.9C81.755 83.9133 81.855 84.8067 82.055 85.58C82.255 86.3533 82.5217 86.9533 82.855 87.38C83.2017 87.8067 83.5817 88.02 83.995 88.02ZM89.2733 92.2V92H89.2933C89.7733 92 90.1599 91.8533 90.4533 91.56C90.7466 91.2667 90.8933 90.88 90.8933 90.4V79.64C90.8799 79.0533 90.7533 78.64 90.5133 78.4C90.2733 78.16 89.8599 78.04 89.2733 78.04V77.84H91.2533C92.0399 77.84 92.5799 77.7667 92.8733 77.62C93.1666 77.4733 93.3799 77.2933 93.5133 77.08H93.7133L93.7333 79.64C94.0399 79.04 94.5066 78.54 95.1333 78.14C95.7599 77.74 96.4199 77.54 97.1133 77.54C97.8599 77.54 98.5199 77.7667 99.0933 78.22C99.6666 78.6733 100.113 79.2933 100.433 80.08C100.767 80.8533 100.933 81.7467 100.933 82.76C100.933 83.88 100.733 84.8533 100.333 85.68C99.9333 86.5067 99.3666 87.1467 98.6333 87.6C97.9133 88.0533 97.0533 88.28 96.0533 88.28C95.5066 88.28 95.0599 88.1933 94.7133 88.02C94.3666 87.86 94.0533 87.5867 93.7733 87.2V90.4C93.7733 90.88 93.9199 91.2667 94.2133 91.56C94.5066 91.8533 94.8933 92 95.3733 92H95.3933V92.2H89.2733ZM95.6333 87.94C96.3533 87.94 96.8999 87.4933 97.2733 86.6C97.6333 85.6933 97.8133 84.3933 97.8133 82.7C97.8133 79.7933 97.2266 78.34 96.0533 78.34C95.5999 78.34 95.1533 78.52 94.7133 78.88C94.2733 79.24 93.9599 79.68 93.7733 80.2V84.86C93.7733 85.82 93.9399 86.5733 94.2733 87.12C94.6066 87.6667 95.0599 87.94 95.6333 87.94ZM101.198 88V87.8H101.218C101.698 87.8 102.085 87.6533 102.378 87.36C102.671 87.0667 102.818 86.68 102.818 86.2V79.64C102.818 79.1333 102.711 78.74 102.498 78.46C102.298 78.18 101.865 78.04 101.198 78.04V77.84H103.178C103.725 77.84 104.145 77.8133 104.438 77.76C104.745 77.7067 104.971 77.64 105.118 77.56C105.265 77.4667 105.371 77.3733 105.438 77.28H105.638L105.658 79.88C106.005 79.1867 106.531 78.6267 107.238 78.2C107.945 77.7733 108.691 77.56 109.478 77.56C110.238 77.56 110.871 77.7733 111.378 78.2C111.885 78.6267 112.211 79.2 112.358 79.92C112.731 79.2 113.265 78.6267 113.958 78.2C114.665 77.7733 115.425 77.56 116.238 77.56C117.131 77.56 117.845 77.8533 118.378 78.44C118.925 79.0267 119.198 79.8 119.198 80.76V86.2C119.198 86.68 119.345 87.0667 119.638 87.36C119.931 87.6533 120.318 87.8 120.798 87.8H120.818V88H114.718V87.8H114.738C115.218 87.8 115.605 87.6533 115.898 87.36C116.191 87.0667 116.338 86.68 116.338 86.2V80.56C116.338 79.8933 116.205 79.36 115.938 78.96C115.671 78.56 115.325 78.36 114.898 78.36C114.485 78.36 114.051 78.5467 113.598 78.92C113.145 79.28 112.751 79.7533 112.418 80.34C112.431 80.3667 112.438 80.4 112.438 80.44C112.438 80.48 112.438 80.5133 112.438 80.54V86.2C112.438 86.68 112.585 87.0667 112.878 87.36C113.171 87.6533 113.558 87.8 114.038 87.8H114.058V88H107.958V87.8H107.978C108.458 87.8 108.845 87.6533 109.138 87.36C109.431 87.0667 109.578 86.68 109.578 86.2V80.56C109.578 79.8933 109.445 79.36 109.178 78.96C108.925 78.56 108.585 78.36 108.158 78.36C107.745 78.36 107.311 78.54 106.858 78.9C106.418 79.2467 106.031 79.72 105.698 80.32V86.2C105.698 86.68 105.845 87.0667 106.138 87.36C106.431 87.6533 106.818 87.8 107.298 87.8H107.318V88H101.198ZM125.638 88.24C124.718 88.24 123.898 88.0133 123.178 87.56C122.471 87.1067 121.918 86.48 121.518 85.68C121.118 84.8667 120.918 83.94 120.918 82.9C120.918 81.8333 121.138 80.9 121.578 80.1C122.018 79.3 122.618 78.68 123.378 78.24C124.151 77.7867 125.024 77.56 125.998 77.56C126.811 77.56 127.531 77.72 128.158 78.04C128.798 78.36 129.304 78.8133 129.678 79.4C130.064 79.9733 130.284 80.64 130.338 81.4L130.358 81.7H123.638V81.8C123.638 83.2133 123.951 84.3467 124.578 85.2C125.204 86.04 126.044 86.46 127.098 86.46C127.738 86.46 128.344 86.3067 128.918 86C129.504 85.68 129.978 85.2533 130.338 84.72L130.518 84.78C130.291 85.46 129.938 86.06 129.458 86.58C128.978 87.1 128.411 87.5067 127.758 87.8C127.104 88.0933 126.398 88.24 125.638 88.24ZM123.658 81.4H127.718C127.718 80.3467 127.544 79.4933 127.198 78.84C126.864 78.1867 126.391 77.86 125.778 77.86C125.191 77.86 124.704 78.18 124.318 78.82C123.931 79.46 123.711 80.32 123.658 81.4ZM130.612 88V87.8H130.632C131.112 87.8 131.499 87.6533 131.792 87.36C132.086 87.0667 132.232 86.68 132.232 86.2V79.64C132.232 79.1333 132.126 78.74 131.912 78.46C131.712 78.18 131.279 78.04 130.612 78.04V77.84H132.592C133.272 77.84 133.792 77.7667 134.152 77.62C134.486 77.4733 134.719 77.2933 134.852 77.08H135.052L135.072 79.88C135.419 79.1867 135.946 78.6267 136.652 78.2C137.359 77.7733 138.106 77.56 138.892 77.56C139.786 77.56 140.499 77.8533 141.032 78.44C141.579 79.0267 141.852 79.8 141.852 80.76V86.2C141.852 86.68 141.999 87.0667 142.292 87.36C142.586 87.6533 142.972 87.8 143.452 87.8H143.472V88H137.372V87.8H137.392C137.872 87.8 138.259 87.6533 138.552 87.36C138.846 87.0667 138.992 86.68 138.992 86.2V80.56C138.992 79.8933 138.859 79.36 138.592 78.96C138.339 78.56 137.999 78.36 137.572 78.36C137.159 78.36 136.726 78.54 136.272 78.9C135.832 79.2467 135.446 79.72 135.112 80.32V86.2C135.112 86.68 135.259 87.0667 135.552 87.36C135.846 87.6533 136.232 87.8 136.712 87.8H136.732V88H130.612ZM146.649 88.28C145.955 88.28 145.389 88.06 144.949 87.62C144.509 87.18 144.289 86.6067 144.289 85.9V78.2H142.589V77.94C143.509 77.8733 144.329 77.58 145.049 77.06C145.782 76.54 146.382 75.84 146.849 74.96H147.169V77.84H149.829L149.629 78.2H147.169V85.46C147.169 86.5267 147.529 87.06 148.249 87.06C148.489 87.06 148.762 86.9867 149.069 86.84C149.389 86.6933 149.689 86.5 149.969 86.26V86.46C149.529 87.02 149.009 87.4667 148.409 87.8C147.809 88.12 147.222 88.28 146.649 88.28Z" fill="#3D4E3C"/>
<path d="M20.8 0H26V51.2C26 58.2692 20.1797 64 13 64C5.8203 64 0 58.2692 0 51.2C0 50.6663 0.0331776 50.1402 0.097613 49.6236C0.0333065 50.2073 0 50.7376 0 51.2C0 56.8554 4.65624 61.4399 10.4 61.4399C16.1438 61.4399 20.8 56.8553 20.8 51.1999V0Z" fill="#798A78"/>
<path d="M36 64H31L31 12.8C31 8.34216 33.2254 4.41658 36.6007 2.12464C38.578 0.782016 40.9498 0 43.5 0C43.8351 0 44.1671 0.0135009 44.4955 0.0400004C50.9336 0.559464 56 6.07388 56 12.8L56 64H51V14.6019C51 14.5935 51 14.585 51 14.5765V12.7999L50.9998 12.7597L50.9999 12.7838C50.9914 8.5497 47.6368 5.12 43.5 5.12C39.3693 5.12 36.0186 8.53946 36.0001 12.7648L36 12.8L36 23.0409L36 64Z" fill="#798A78"/>
<path d="M36 23.0409C36 23.0409 36 23.041 36 23.0409L36.0001 14.6511C36.0001 14.6408 36 14.6304 36 14.6201L36 23.0409Z" fill="#798A78"/>
<path d="M36 14.5832L36 12.8L36.0001 12.7648L36.0001 14.5513C36.0001 14.5619 36 14.5725 36 14.5832Z" fill="#798A78"/>
<circle cx="43.5" cy="12.5" r="3.5" fill="#3D4E3C"/>
</svg>
