<svg width="45" height="45" viewBox="0 0 45 45" fill="none" xmlns="http://www.w3.org/2000/svg">
<g clip-path="url(#clip0_151_9)">
<path d="M27.3283 12.7533H22.7109L16.0551 30.027H20.2246L21.3124 27.1006H27.6011L26.4621 23.8634H22.3136L25.0066 16.4313L29.8125 30.0277H33.982L27.3283 12.7533ZM41.5828 35.2688C41.4309 35.2688 41.2813 35.3053 41.1465 35.3752C41.0117 35.445 40.8956 35.5462 40.8079 35.6702L39.5318 37.0645C37.6552 38.9458 35.4314 40.445 32.9836 41.4788C30.4523 42.5524 27.7481 43.096 24.9665 43.096C22.2125 43.1017 19.4857 42.5514 16.9495 41.4781C14.5018 40.4443 12.2782 38.9452 10.402 37.0638C8.52074 35.1872 7.0214 32.9633 5.98707 30.5156C4.91199 27.9844 4.35934 25.2809 4.35934 22.5C4.35934 19.7192 4.90426 17.0213 5.97652 14.483C7.01043 12.0349 8.51009 9.81095 10.3921 7.93478C12.2688 6.05362 14.4923 4.55409 16.9396 3.51916C19.4759 2.446 22.2027 1.89572 24.9567 1.90127C27.7107 1.89572 30.4374 2.446 32.9737 3.51916C34.7596 4.27502 36.4134 5.27697 37.9118 6.48494C37.8294 6.72698 37.7873 6.98091 37.7873 7.23658C37.7873 8.52048 38.8279 9.56111 40.1111 9.56111C41.3943 9.56111 42.4357 8.52048 42.4357 7.23658C42.4357 5.95267 41.395 4.91275 40.1111 4.91275C39.8023 4.91235 39.4965 4.9738 39.2118 5.09345C35.1978 1.79444 30.1616 -0.00618847 24.9658 1.59806e-05C12.5395 1.59806e-05 2.46582 10.0737 2.46582 22.5C2.46582 34.9263 12.5395 45 24.9658 45C31.9169 45 38.1283 41.8458 42.2627 36.893C42.3509 36.8048 42.421 36.7002 42.4687 36.585C42.5165 36.4697 42.5411 36.3462 42.5411 36.2215C42.5404 35.6942 42.115 35.2695 41.5891 35.2695L41.5828 35.2688Z" fill="white"/>
</g>
<defs>
<clipPath id="clip0_151_9">
<rect width="45" height="45" fill="white"/>
</clipPath>
</defs>
</svg>
