<svg width="45" height="45" viewBox="0 0 45 45" fill="none" xmlns="http://www.w3.org/2000/svg">
<g clip-path="url(#clip0_177_144)">
<path d="M27.3248 12.7533H22.7074L16.0516 30.027H20.2212L21.3089 27.1006H27.5977L26.4586 23.8634H22.3102L25.0031 16.4313L29.809 30.0277H33.9785L27.3248 12.7533ZM41.5793 35.2688C41.4274 35.2688 41.2778 35.3053 41.143 35.3752C41.0082 35.445 40.8921 35.5462 40.8045 35.6702L39.5283 37.0645C37.6518 38.9458 35.4279 40.445 32.9801 41.4788C30.4488 42.5524 27.7446 43.096 24.963 43.096C22.209 43.1017 19.4822 42.5514 16.946 41.4781C14.4984 40.4443 12.2747 38.9452 10.3985 37.0638C8.51726 35.1872 7.01792 32.9633 5.98359 30.5156C4.90851 27.9844 4.35586 25.2809 4.35586 22.5C4.35586 19.7192 4.90078 17.0213 5.97304 14.483C7.00695 12.0349 8.50661 9.81095 10.3887 7.93478C12.2653 6.05362 14.4888 4.55409 16.9362 3.51916C19.4725 2.446 22.1992 1.89572 24.9532 1.90127C27.7072 1.89572 30.4339 2.446 32.9702 3.51916C34.7562 4.27502 36.4099 5.27697 37.9083 6.48494C37.8259 6.72698 37.7839 6.98091 37.7838 7.23658C37.7838 8.52048 38.8245 9.56111 40.1077 9.56111C41.3909 9.56111 42.4322 8.52048 42.4322 7.23658C42.4322 5.95267 41.3916 4.91275 40.1077 4.91275C39.7988 4.91235 39.4931 4.97379 39.2084 5.09345C35.1943 1.79444 30.1581 -0.00618847 24.9623 1.59806e-05C12.536 1.59806e-05 2.46234 10.0737 2.46234 22.5C2.46234 34.9263 12.536 45 24.9623 45C31.9134 45 38.1248 41.8458 42.2592 36.893C42.3475 36.8048 42.4175 36.7002 42.4653 36.585C42.513 36.4697 42.5376 36.3462 42.5377 36.2215C42.5369 35.6942 42.1116 35.2695 41.5856 35.2695L41.5793 35.2688Z" fill="#3D4E3C"/>
</g>
<defs>
<clipPath id="clip0_177_144">
<rect width="45" height="45" fill="white"/>
</clipPath>
</defs>
</svg>
