<svg width="44" height="16" viewBox="0 0 44 16" fill="none" xmlns="http://www.w3.org/2000/svg">
<path d="M35.3906 15.627L43.5352 8.87893C43.7988 8.66409 43.9453 8.34183 43.9453 8.00003C43.9453 7.65823 43.7988 7.33597 43.5352 7.12112L35.3906 0.373074C34.9023 -0.0273167 34.1895 0.0410426 33.7891 0.519558C33.3887 1.00784 33.457 1.72073 33.9355 2.12112L39.6484 6.85745L1.14258 6.85745C0.517582 6.85745 3.49764e-06 7.36526 3.46989e-06 8.00003C3.44257e-06 8.62503 0.507816 9.14261 1.14258 9.14261L39.6484 9.14261L33.9355 13.8789C33.6621 14.1035 33.5254 14.4258 33.5254 14.7578C33.5254 15.0117 33.6133 15.2754 33.7891 15.4805C34.1895 15.959 34.9121 16.0274 35.3906 15.627Z" fill="#DC9E00" />
</svg>
