<svg width="16" height="26" viewBox="0 0 16 26" fill="none" xmlns="http://www.w3.org/2000/svg">
<path d="M0.261203 16.918L7.00925 25.0625C7.22409 25.3262 7.54636 25.4727 7.88816 25.4727C8.22995 25.4727 8.55222 25.3262 8.76706 25.0625L15.5151 16.918C15.9155 16.4297 15.8471 15.7168 15.3686 15.3164C14.8803 14.916 14.1675 14.9844 13.7671 15.4629L9.03073 21.1758L9.03074 1.66993C9.03074 1.04493 8.52293 0.527347 7.88816 0.527347C7.26316 0.527347 6.74558 1.03516 6.74558 1.66992L6.74558 21.1758L2.00925 15.4629C1.78464 15.1895 1.46237 15.0527 1.13034 15.0527C0.876437 15.0527 0.612765 15.1406 0.407687 15.3164C-0.0708286 15.7168 -0.139188 16.4395 0.261203 16.918Z" fill="#DC9E00"/>
</svg>
