<svg width="40" height="40" viewBox="0 0 40 40" fill="none" xmlns="http://www.w3.org/2000/svg">
<path d="M1.95287 39.9996C1.56653 39.9997 1.18884 39.8851 0.867585 39.6705C0.546331 39.4559 0.295939 39.1509 0.148083 38.7939C0.000226297 38.437 -0.0384525 38.0442 0.036939 37.6653C0.11233 37.2864 0.298405 36.9384 0.571626 36.6652L36.6651 0.571705C37.0315 0.205378 37.5283 -0.000423431 38.0464 -0.000423431C38.5645 -0.000423431 39.0613 0.205378 39.4276 0.571705C39.794 0.938033 39.9998 1.43488 39.9998 1.95295C39.9998 2.47101 39.794 2.96786 39.4276 3.33419L3.33411 39.4277C3.15289 39.6093 2.93758 39.7533 2.70054 39.8514C2.46351 39.9496 2.20942 39.9999 1.95287 39.9996Z" fill="#3D4E3C"/>
<path d="M38.0466 39.9996C37.7901 39.9999 37.536 39.9496 37.299 39.8514C37.0619 39.7533 36.8466 39.6093 36.6654 39.4277L0.571885 3.33419C0.205557 2.96786 -0.000244141 2.47101 -0.000244141 1.95295C-0.000244141 1.43488 0.205557 0.938033 0.571885 0.571705C0.938213 0.205378 1.43506 -0.000423431 1.95313 -0.000423431C2.47119 -0.000423431 2.96804 0.205378 3.33437 0.571705L39.4279 36.6652C39.7011 36.9384 39.8872 37.2864 39.9626 37.6653C40.038 38.0442 39.9993 38.437 39.8514 38.7939C39.7036 39.1509 39.4532 39.4559 39.1319 39.6705C38.8107 39.8851 38.433 39.9997 38.0466 39.9996Z" fill="#3D4E3C"/>
</svg>
