<svg width="60" height="60" viewBox="0 0 60 60" fill="none" xmlns="http://www.w3.org/2000/svg">
<g clip-path="url(#clip0_177_123)">
<circle cx="30" cy="30" r="30" fill="#798A78"/>
<path d="M14.796 33.624C14.252 33.624 13.768 33.492 13.344 33.228C12.92 32.956 12.588 32.58 12.348 32.1C12.116 31.62 12 31.072 12 30.456C12 29.816 12.132 29.252 12.396 28.764C12.66 28.268 13.02 27.884 13.476 27.612C13.94 27.332 14.46 27.192 15.036 27.192C15.708 27.192 16.264 27.376 16.704 27.744C17.152 28.104 17.42 28.596 17.508 29.22L16.068 30.024C16.068 29.208 15.964 28.56 15.756 28.08C15.548 27.608 15.256 27.372 14.88 27.372C14.624 27.372 14.4 27.476 14.208 27.684C14.024 27.892 13.88 28.172 13.776 28.524C13.68 28.876 13.632 29.268 13.632 29.7C13.632 30.252 13.716 30.74 13.884 31.164C14.052 31.58 14.288 31.908 14.592 32.148C14.896 32.38 15.256 32.496 15.672 32.496C16.056 32.496 16.42 32.4 16.764 32.208C17.116 32.016 17.404 31.756 17.628 31.428L17.748 31.464C17.612 31.896 17.396 32.276 17.1 32.604C16.804 32.924 16.456 33.176 16.056 33.36C15.664 33.536 15.244 33.624 14.796 33.624Z" fill="#E7E4DF"/>
<path d="M21.4169 33.624C20.7609 33.624 20.1849 33.492 19.6889 33.228C19.2009 32.964 18.8209 32.592 18.5489 32.112C18.2769 31.632 18.1409 31.064 18.1409 30.408C18.1409 29.752 18.2769 29.184 18.5489 28.704C18.8209 28.224 19.2009 27.852 19.6889 27.588C20.1849 27.324 20.7609 27.192 21.4169 27.192C22.0729 27.192 22.6449 27.324 23.1329 27.588C23.6209 27.852 24.0009 28.224 24.2729 28.704C24.5449 29.184 24.6809 29.752 24.6809 30.408C24.6809 31.064 24.5449 31.632 24.2729 32.112C24.0009 32.592 23.6209 32.964 23.1329 33.228C22.6449 33.492 22.0729 33.624 21.4169 33.624ZM21.4049 33.468C21.6849 33.468 21.9249 33.328 22.1249 33.048C22.3249 32.768 22.4809 32.396 22.5929 31.932C22.7049 31.46 22.7609 30.948 22.7609 30.396C22.7609 29.796 22.7009 29.268 22.5809 28.812C22.4689 28.348 22.3089 27.988 22.1009 27.732C21.9009 27.468 21.6729 27.336 21.4169 27.336C21.1449 27.336 20.9049 27.476 20.6969 27.756C20.4969 28.036 20.3409 28.408 20.2289 28.872C20.1169 29.336 20.0609 29.844 20.0609 30.396C20.0609 31.004 20.1209 31.54 20.2409 32.004C20.3609 32.468 20.5209 32.828 20.7209 33.084C20.9289 33.34 21.1569 33.468 21.4049 33.468Z" fill="#E7E4DF"/>
<path d="M24.5719 35.976V35.856H24.5839C24.8719 35.856 25.1039 35.768 25.2799 35.592C25.4559 35.416 25.5439 35.184 25.5439 34.896V28.44C25.5359 28.088 25.4599 27.84 25.3159 27.696C25.1719 27.552 24.9239 27.48 24.5719 27.48V27.36H25.7599C26.2319 27.36 26.5559 27.316 26.7319 27.228C26.9079 27.14 27.0359 27.032 27.1159 26.904H27.2359L27.2479 28.44C27.4319 28.08 27.7119 27.78 28.0879 27.54C28.4639 27.3 28.8599 27.18 29.2759 27.18C29.7239 27.18 30.1199 27.316 30.4639 27.588C30.8079 27.86 31.0759 28.232 31.2679 28.704C31.4679 29.168 31.5679 29.704 31.5679 30.312C31.5679 30.984 31.4479 31.568 31.2079 32.064C30.9679 32.56 30.6279 32.944 30.1879 33.216C29.7559 33.488 29.2399 33.624 28.6399 33.624C28.3119 33.624 28.0439 33.572 27.8359 33.468C27.6279 33.372 27.4399 33.208 27.2719 32.976V34.896C27.2719 35.184 27.3599 35.416 27.5359 35.592C27.7119 35.768 27.9439 35.856 28.2319 35.856H28.2439V35.976H24.5719ZM28.3879 33.42C28.8199 33.42 29.1479 33.152 29.3719 32.616C29.5879 32.072 29.6959 31.292 29.6959 30.276C29.6959 28.532 29.3439 27.66 28.6399 27.66C28.3679 27.66 28.0999 27.768 27.8359 27.984C27.5719 28.2 27.3839 28.464 27.2719 28.776V31.572C27.2719 32.148 27.3719 32.6 27.5719 32.928C27.7719 33.256 28.0439 33.42 28.3879 33.42Z" fill="#E7E4DF"/>
<path d="M31.7388 33.456V33.336H31.7508C32.0388 33.336 32.2708 33.248 32.4468 33.072C32.6228 32.896 32.7108 32.664 32.7108 32.376V28.44C32.7108 28.136 32.6468 27.9 32.5188 27.732C32.3988 27.564 32.1388 27.48 31.7388 27.48V27.36H32.9628C33.3708 27.36 33.6828 27.316 33.8988 27.228C34.0988 27.14 34.2388 27.032 34.3188 26.904H34.4388V32.376C34.4388 32.664 34.5268 32.896 34.7028 33.072C34.8788 33.248 35.1108 33.336 35.3988 33.336H35.4108V33.456H31.7388ZM33.5628 26.148C33.2748 26.148 33.0348 26.056 32.8428 25.872C32.6588 25.68 32.5668 25.44 32.5668 25.152C32.5668 24.864 32.6588 24.628 32.8428 24.444C33.0348 24.252 33.2748 24.156 33.5628 24.156C33.8428 24.156 34.0748 24.252 34.2588 24.444C34.4508 24.636 34.5468 24.872 34.5468 25.152C34.5468 25.432 34.4508 25.668 34.2588 25.86C34.0748 26.052 33.8428 26.148 33.5628 26.148Z" fill="#E7E4DF"/>
<path d="M38.2695 33.6C37.7175 33.6 37.2255 33.464 36.7935 33.192C36.3695 32.92 36.0375 32.544 35.7975 32.064C35.5575 31.576 35.4375 31.02 35.4375 30.396C35.4375 29.756 35.5695 29.196 35.8335 28.716C36.0975 28.236 36.4575 27.864 36.9135 27.6C37.3775 27.328 37.9015 27.192 38.4855 27.192C38.9735 27.192 39.4055 27.288 39.7815 27.48C40.1655 27.672 40.4695 27.944 40.6935 28.296C40.9255 28.64 41.0575 29.04 41.0895 29.496L41.1015 29.676H37.0695V29.736C37.0695 30.584 37.2575 31.264 37.6335 31.776C38.0095 32.28 38.5135 32.532 39.1455 32.532C39.5295 32.532 39.8935 32.44 40.2375 32.256C40.5895 32.064 40.8735 31.808 41.0895 31.488L41.1975 31.524C41.0615 31.932 40.8495 32.292 40.5615 32.604C40.2735 32.916 39.9335 33.16 39.5415 33.336C39.1495 33.512 38.7255 33.6 38.2695 33.6ZM37.0815 29.496H39.5175C39.5175 28.864 39.4135 28.352 39.2055 27.96C39.0055 27.568 38.7215 27.372 38.3535 27.372C38.0015 27.372 37.7095 27.564 37.4775 27.948C37.2455 28.332 37.1135 28.848 37.0815 29.496Z" fill="#E7E4DF"/>
<path d="M45.9941 33.912L45.9821 32.208C45.7901 32.624 45.5021 32.968 45.1181 33.24C44.7341 33.504 44.3221 33.636 43.8821 33.636C43.4501 33.636 43.0621 33.5 42.7181 33.228C42.3741 32.956 42.1021 32.584 41.9021 32.112C41.7021 31.632 41.6021 31.092 41.6021 30.492C41.6021 29.82 41.7261 29.236 41.9741 28.74C42.2301 28.244 42.5821 27.864 43.0301 27.6C43.4781 27.328 43.9941 27.192 44.5781 27.192C44.9061 27.192 45.1741 27.244 45.3821 27.348C45.5901 27.444 45.7781 27.612 45.9461 27.852V25.536C45.9461 25.248 45.8541 25.016 45.6701 24.84C45.4941 24.664 45.2621 24.576 44.9741 24.576V24.456H46.1981C46.5981 24.456 46.9021 24.416 47.1101 24.336C47.3181 24.256 47.4661 24.144 47.5541 24H47.6741V32.376C47.6741 32.664 47.7621 32.896 47.9381 33.072C48.1141 33.248 48.3501 33.336 48.6461 33.336V33.456H47.4221C47.0701 33.456 46.7901 33.492 46.5821 33.564C46.3821 33.636 46.2261 33.752 46.1141 33.912H45.9941ZM44.5421 33.156C44.7261 33.156 44.9101 33.1 45.0941 32.988C45.2861 32.868 45.4581 32.712 45.6101 32.52C45.7621 32.328 45.8741 32.124 45.9461 31.908V28.98C45.9061 28.5 45.7861 28.116 45.5861 27.828C45.3941 27.54 45.1421 27.396 44.8301 27.396C44.4141 27.396 44.0901 27.66 43.8581 28.188C43.6341 28.716 43.5221 29.496 43.5221 30.528C43.5221 32.28 43.8621 33.156 44.5421 33.156Z" fill="#E7E4DF"/>
</g>
<defs>
<clipPath id="clip0_177_123">
<rect width="60" height="60" fill="white"/>
</clipPath>
</defs>
</svg>
