<svg width="60" height="60" viewBox="0 0 60 60" fill="none" xmlns="http://www.w3.org/2000/svg">
<g clip-path="url(#clip0_156_30)">
<circle cx="30" cy="30" r="30" fill="#1A1A1A"/>
<path d="M11.7207 33.2383C11.916 33.2383 12.1055 33.207 12.2891 33.1445C12.4766 33.082 12.6426 32.9961 12.7871 32.8867C12.9316 32.7734 13.0469 32.6426 13.1328 32.4941C13.2227 32.3418 13.2695 32.1777 13.2734 32.002H14.2988C14.2949 32.2832 14.2207 32.5527 14.0762 32.8105C13.9355 33.0645 13.7461 33.2891 13.5078 33.4844C13.2695 33.6758 12.9961 33.8301 12.6875 33.9473C12.3789 34.0605 12.0566 34.1172 11.7207 34.1172C11.2402 34.1172 10.8203 34.0312 10.4609 33.8594C10.1016 33.6875 9.80078 33.457 9.55859 33.168C9.32031 32.875 9.14062 32.5391 9.01953 32.1602C8.89844 31.7773 8.83789 31.375 8.83789 30.9531V30.707C8.83789 30.2891 8.89844 29.8887 9.01953 29.5059C9.14062 29.123 9.32031 28.7871 9.55859 28.498C9.80078 28.2051 10.1016 27.9727 10.4609 27.8008C10.8203 27.6289 11.2402 27.543 11.7207 27.543C12.0957 27.543 12.4395 27.6035 12.752 27.7246C13.0684 27.8418 13.3398 28.0039 13.5664 28.2109C13.7969 28.4141 13.9766 28.6562 14.1055 28.9375C14.2344 29.2188 14.2988 29.5195 14.2988 29.8398H13.2734C13.2695 29.6484 13.2266 29.4688 13.1445 29.3008C13.0664 29.1289 12.959 28.9785 12.8223 28.8496C12.6855 28.7207 12.5215 28.6191 12.3301 28.5449C12.1426 28.4707 11.9395 28.4336 11.7207 28.4336C11.3848 28.4336 11.1016 28.502 10.8711 28.6387C10.6445 28.7715 10.4609 28.9473 10.3203 29.166C10.1797 29.3809 10.0781 29.623 10.0156 29.8926C9.95703 30.1621 9.92773 30.4336 9.92773 30.707V30.9531C9.92773 31.2305 9.95703 31.5059 10.0156 31.7793C10.0781 32.0488 10.1777 32.293 10.3145 32.5117C10.4551 32.7266 10.6387 32.9023 10.8652 33.0391C11.0957 33.1719 11.3809 33.2383 11.7207 33.2383ZM15.9219 30.7715C15.9219 30.3145 15.9883 29.8906 16.1211 29.5C16.2539 29.1055 16.4434 28.7637 16.6895 28.4746C16.9395 28.1855 17.2422 27.959 17.5977 27.7949C17.9531 27.627 18.3535 27.543 18.7988 27.543C19.248 27.543 19.6504 27.627 20.0059 27.7949C20.3652 27.959 20.668 28.1855 20.9141 28.4746C21.1641 28.7637 21.3555 29.1055 21.4883 29.5C21.6211 29.8906 21.6875 30.3145 21.6875 30.7715V30.9004C21.6875 31.3574 21.6211 31.7812 21.4883 32.1719C21.3555 32.5625 21.1641 32.9023 20.9141 33.1914C20.668 33.4805 20.3672 33.707 20.0117 33.8711C19.6562 34.0352 19.2559 34.1172 18.8105 34.1172C18.3613 34.1172 17.957 34.0352 17.5977 33.8711C17.2422 33.707 16.9395 33.4805 16.6895 33.1914C16.4434 32.9023 16.2539 32.5625 16.1211 32.1719C15.9883 31.7812 15.9219 31.3574 15.9219 30.9004V30.7715ZM17.0059 30.9004C17.0059 31.2129 17.043 31.5117 17.1172 31.7969C17.1914 32.0781 17.3027 32.3262 17.4512 32.541C17.6035 32.7559 17.793 32.9258 18.0195 33.0508C18.2461 33.1758 18.5098 33.2383 18.8105 33.2383C19.1074 33.2383 19.3672 33.1758 19.5898 33.0508C19.8164 32.9258 20.0039 32.7559 20.1523 32.541C20.3047 32.3262 20.418 32.0781 20.4922 31.7969C20.5664 31.5117 20.6035 31.2129 20.6035 30.9004V30.7715C20.6035 30.4629 20.5645 30.168 20.4863 29.8867C20.4121 29.6016 20.2988 29.3516 20.1465 29.1367C19.998 28.9219 19.8105 28.752 19.584 28.627C19.3613 28.498 19.0996 28.4336 18.7988 28.4336C18.498 28.4336 18.2363 28.498 18.0137 28.627C17.791 28.752 17.6035 28.9219 17.4512 29.1367C17.3027 29.3516 17.1914 29.6016 17.1172 29.8867C17.043 30.168 17.0059 30.4629 17.0059 30.7715V30.9004ZM28.7832 30.9004C28.7832 31.3535 28.7285 31.7773 28.6191 32.1719C28.5098 32.5625 28.3496 32.9023 28.1387 33.1914C27.9277 33.4805 27.666 33.707 27.3535 33.8711C27.0449 34.0352 26.6914 34.1172 26.293 34.1172C25.9062 34.1172 25.5645 34.0547 25.2676 33.9297C24.9746 33.8047 24.7227 33.625 24.5117 33.3906V36.4375H23.4277V27.6602H24.418L24.4707 28.3516C24.6816 28.0898 24.9355 27.8906 25.2324 27.7539C25.5332 27.6133 25.8809 27.543 26.2754 27.543C26.6816 27.543 27.041 27.623 27.3535 27.7832C27.666 27.9434 27.9277 28.166 28.1387 28.4512C28.3496 28.7363 28.5098 29.0781 28.6191 29.4766C28.7285 29.8711 28.7832 30.3047 28.7832 30.7773V30.9004ZM27.6992 30.7773C27.6992 30.4688 27.6641 30.1758 27.5938 29.8984C27.5273 29.6172 27.4219 29.3711 27.2773 29.1602C27.1367 28.9453 26.957 28.7754 26.7383 28.6504C26.5195 28.5254 26.2578 28.4629 25.9531 28.4629C25.6055 28.4629 25.3125 28.5449 25.0742 28.709C24.8398 28.8691 24.6523 29.0762 24.5117 29.3301V32.3828C24.6523 32.6328 24.8398 32.8379 25.0742 32.998C25.3086 33.1543 25.6055 33.2324 25.9648 33.2324C26.2656 33.2324 26.5254 33.1699 26.7441 33.0449C26.9629 32.916 27.1426 32.7441 27.2832 32.5293C27.4238 32.3145 27.5273 32.0664 27.5938 31.7852C27.6641 31.5039 27.6992 31.209 27.6992 30.9004V30.7773ZM30.8105 27.6602H34.0508V33.0625H36.1191V34H30.8105V33.0625H32.9668V28.6035H30.8105V27.6602ZM32.8262 25.9961C32.8262 25.8164 32.8789 25.666 32.9844 25.5449C33.0938 25.4199 33.2578 25.3574 33.4766 25.3574C33.6914 25.3574 33.8535 25.4199 33.9629 25.5449C34.0723 25.666 34.127 25.8164 34.127 25.9961C34.127 26.1719 34.0723 26.3184 33.9629 26.4355C33.8535 26.5527 33.6914 26.6113 33.4766 26.6113C33.2578 26.6113 33.0938 26.5527 32.9844 26.4355C32.8789 26.3184 32.8262 26.1719 32.8262 25.9961ZM40.6484 34.1172C40.2031 34.1172 39.793 34.041 39.418 33.8887C39.0469 33.7363 38.7285 33.5234 38.4629 33.25C38.1973 32.9766 37.9902 32.6523 37.8418 32.2773C37.6934 31.9023 37.6191 31.4941 37.6191 31.0527V30.8066C37.6191 30.2949 37.7012 29.8379 37.8652 29.4355C38.0293 29.0293 38.2461 28.6875 38.5156 28.4102C38.7891 28.1289 39.0977 27.9141 39.4414 27.7656C39.7891 27.6172 40.1445 27.543 40.5078 27.543C40.9648 27.543 41.3633 27.623 41.7031 27.7832C42.0469 27.9395 42.332 28.1582 42.5586 28.4395C42.7852 28.7168 42.9531 29.0449 43.0625 29.4238C43.1758 29.8027 43.2324 30.2129 43.2324 30.6543V31.1406H38.7031C38.7148 31.4297 38.7695 31.7012 38.8672 31.9551C38.9688 32.209 39.1055 32.4316 39.2773 32.623C39.4531 32.8105 39.6621 32.959 39.9043 33.0684C40.1465 33.1777 40.4141 33.2324 40.707 33.2324C41.0938 33.2324 41.4375 33.1543 41.7383 32.998C42.0391 32.8418 42.2891 32.6348 42.4883 32.377L43.1504 32.8926C43.0449 33.0527 42.9121 33.207 42.752 33.3555C42.5957 33.5 42.4141 33.6289 42.207 33.7422C42 33.8555 41.7656 33.9453 41.5039 34.0117C41.2422 34.082 40.957 34.1172 40.6484 34.1172ZM40.5078 28.4336C40.2891 28.4336 40.082 28.4746 39.8867 28.5566C39.6914 28.6348 39.5156 28.752 39.3594 28.9082C39.2031 29.0605 39.0703 29.25 38.9609 29.4766C38.8555 29.6992 38.7812 29.957 38.7383 30.25H42.1484V30.168C42.1367 29.957 42.0957 29.748 42.0254 29.541C41.959 29.334 41.8594 29.1484 41.7266 28.9844C41.5938 28.8203 41.4258 28.6875 41.2227 28.5859C41.0234 28.4844 40.7852 28.4336 40.5078 28.4336ZM44.8496 30.7773C44.8496 30.3047 44.9082 29.8711 45.0254 29.4766C45.1465 29.0781 45.3164 28.7363 45.5352 28.4512C45.7578 28.166 46.0254 27.9434 46.3379 27.7832C46.6504 27.623 47 27.543 47.3867 27.543C47.7656 27.543 48.0957 27.6074 48.377 27.7363C48.6621 27.8613 48.9082 28.0449 49.1152 28.2871V25H50.1992V34H49.2031L49.1562 33.332C48.9453 33.5898 48.6934 33.7852 48.4004 33.918C48.1074 34.0508 47.7656 34.1172 47.375 34.1172C46.9922 34.1172 46.6445 34.0352 46.332 33.8711C46.0234 33.707 45.7598 33.4805 45.541 33.1914C45.3223 32.9023 45.1523 32.5625 45.0312 32.1719C44.9102 31.7773 44.8496 31.3535 44.8496 30.9004V30.7773ZM45.9336 30.9004C45.9336 31.209 45.9668 31.502 46.0332 31.7793C46.0996 32.0566 46.2012 32.3008 46.3379 32.5117C46.4785 32.7227 46.6562 32.8906 46.8711 33.0156C47.0859 33.1367 47.3438 33.1973 47.6445 33.1973C47.8281 33.1973 47.9941 33.1758 48.1426 33.1328C48.291 33.0898 48.4258 33.0293 48.5469 32.9512C48.668 32.8691 48.7754 32.7734 48.8691 32.6641C48.9629 32.5508 49.0449 32.4258 49.1152 32.2891V29.3477C48.9746 29.0898 48.7852 28.8789 48.5469 28.7148C48.3086 28.5469 48.0117 28.4629 47.6562 28.4629C47.3516 28.4629 47.0898 28.5254 46.8711 28.6504C46.6562 28.7754 46.4785 28.9453 46.3379 29.1602C46.2012 29.3711 46.0996 29.6172 46.0332 29.8984C45.9668 30.1758 45.9336 30.4688 45.9336 30.7773V30.9004Z" fill="white"/>
</g>
<defs>
<clipPath id="clip0_156_30">
<rect width="60" height="60" fill="white"/>
</clipPath>
</defs>
</svg>
