<svg width="100" height="100" viewBox="0 0 100 100" fill="none" xmlns="http://www.w3.org/2000/svg">
<g clip-path="url(#clip0_177_123)">
<circle cx="50" cy="50" r="50" fill="#798A78"/>
<path d="M30.5523 54.5541C29.8709 54.5541 29.2647 54.3888 28.7337 54.0581C28.2026 53.7174 27.7868 53.2465 27.4862 52.6453C27.1956 52.0441 27.0503 51.3577 27.0503 50.5862C27.0503 49.7846 27.2156 49.0782 27.5463 48.4669C27.8769 47.8457 28.3278 47.3647 28.899 47.024C29.4802 46.6733 30.1315 46.498 30.8529 46.498C31.6946 46.498 32.391 46.7285 32.9421 47.1894C33.5032 47.6403 33.8389 48.2565 33.9491 49.0381L32.1455 50.0451C32.1455 49.023 32.0152 48.2114 31.7547 47.6102C31.4942 47.019 31.1284 46.7234 30.6575 46.7234C30.3369 46.7234 30.0563 46.8537 29.8158 47.1142C29.5854 47.3747 29.405 47.7255 29.2747 48.1663C29.1545 48.6072 29.0944 49.0982 29.0944 49.6393C29.0944 50.3307 29.1996 50.9419 29.41 51.4729C29.6204 51.994 29.916 52.4048 30.2968 52.7054C30.6775 52.996 31.1284 53.1413 31.6495 53.1413C32.1305 53.1413 32.5864 53.021 33.0172 52.7806C33.4581 52.5401 33.8188 52.2144 34.0994 51.8036L34.2497 51.8487C34.0794 52.3898 33.8088 52.8657 33.4381 53.2766C33.0673 53.6774 32.6315 53.993 32.1305 54.2234C31.6395 54.4439 31.1134 54.5541 30.5523 54.5541Z" fill="#E7E4DF"/>
<path d="M38.845 54.5541C38.0234 54.5541 37.3019 54.3888 36.6807 54.0581C36.0695 53.7275 35.5935 53.2615 35.2528 52.6603C34.9121 52.0591 34.7418 51.3477 34.7418 50.5261C34.7418 49.7044 34.9121 48.993 35.2528 48.3918C35.5935 47.7906 36.0695 47.3246 36.6807 46.994C37.3019 46.6633 38.0234 46.498 38.845 46.498C39.6667 46.498 40.3831 46.6633 40.9943 46.994C41.6055 47.3246 42.0815 47.7906 42.4222 48.3918C42.7629 48.993 42.9332 49.7044 42.9332 50.5261C42.9332 51.3477 42.7629 52.0591 42.4222 52.6603C42.0815 53.2615 41.6055 53.7275 40.9943 54.0581C40.3831 54.3888 39.6667 54.5541 38.845 54.5541ZM38.83 54.3587C39.1807 54.3587 39.4813 54.1834 39.7318 53.8327C39.9823 53.482 40.1777 53.016 40.318 52.4349C40.4582 51.8437 40.5284 51.2024 40.5284 50.511C40.5284 49.7595 40.4532 49.0982 40.3029 48.5271C40.1627 47.9459 39.9622 47.495 39.7017 47.1743C39.4512 46.8437 39.1657 46.6784 38.845 46.6784C38.5043 46.6784 38.2037 46.8537 37.9432 47.2044C37.6927 47.5551 37.4973 48.021 37.357 48.6022C37.2168 49.1834 37.1466 49.8196 37.1466 50.511C37.1466 51.2725 37.2218 51.9439 37.3721 52.5251C37.5224 53.1062 37.7228 53.5571 37.9733 53.8778C38.2338 54.1984 38.5194 54.3587 38.83 54.3587Z" fill="#E7E4DF"/>
<path d="M42.7966 57.5V57.3497H42.8117C43.1724 57.3497 43.463 57.2395 43.6834 57.019C43.9038 56.7986 44.0141 56.508 44.0141 56.1473V48.0611C44.004 47.6202 43.9089 47.3096 43.7285 47.1293C43.5481 46.9489 43.2375 46.8587 42.7966 46.8587V46.7084H44.2846C44.8758 46.7084 45.2816 46.6533 45.502 46.5431C45.7225 46.4329 45.8828 46.2976 45.983 46.1373H46.1333L46.1483 48.0611C46.3788 47.6102 46.7295 47.2345 47.2004 46.9339C47.6714 46.6333 48.1674 46.483 48.6884 46.483C49.2495 46.483 49.7455 46.6533 50.1764 46.994C50.6072 47.3347 50.9429 47.8006 51.1834 48.3918C51.4339 48.9729 51.5592 49.6443 51.5592 50.4058C51.5592 51.2475 51.4089 51.979 51.1083 52.6002C50.8076 53.2214 50.3818 53.7024 49.8307 54.0431C49.2896 54.3838 48.6433 54.5541 47.8918 54.5541C47.481 54.5541 47.1453 54.489 46.8848 54.3587C46.6243 54.2385 46.3888 54.0331 46.1784 53.7425V56.1473C46.1784 56.508 46.2886 56.7986 46.5091 57.019C46.7295 57.2395 47.0201 57.3497 47.3808 57.3497H47.3958V57.5H42.7966ZM47.5762 54.2986C48.1173 54.2986 48.5281 53.9629 48.8087 53.2916C49.0792 52.6102 49.2145 51.6333 49.2145 50.3607C49.2145 48.1764 48.7736 47.0842 47.8918 47.0842C47.5511 47.0842 47.2155 47.2194 46.8848 47.49C46.5541 47.7605 46.3187 48.0912 46.1784 48.482V51.984C46.1784 52.7054 46.3036 53.2715 46.5541 53.6824C46.8046 54.0932 47.1453 54.2986 47.5762 54.2986Z" fill="#E7E4DF"/>
<path d="M51.7732 54.3437V54.1934H51.7882C52.149 54.1934 52.4395 54.0832 52.66 53.8627C52.8804 53.6423 52.9906 53.3517 52.9906 52.991V48.0611C52.9906 47.6804 52.9105 47.3848 52.7502 47.1743C52.5999 46.9639 52.2742 46.8587 51.7732 46.8587V46.7084H53.3063C53.8173 46.7084 54.2081 46.6533 54.4786 46.5431C54.7291 46.4329 54.9045 46.2976 55.0047 46.1373H55.155V52.991C55.155 53.3517 55.2652 53.6423 55.4856 53.8627C55.7061 54.0832 55.9967 54.1934 56.3574 54.1934H56.3724V54.3437H51.7732ZM54.0578 45.1904C53.6971 45.1904 53.3965 45.0752 53.156 44.8447C52.9255 44.6042 52.8103 44.3036 52.8103 43.9429C52.8103 43.5822 52.9255 43.2866 53.156 43.0561C53.3965 42.8156 53.6971 42.6954 54.0578 42.6954C54.4085 42.6954 54.6991 42.8156 54.9295 43.0561C55.17 43.2966 55.2902 43.5922 55.2902 43.9429C55.2902 44.2936 55.17 44.5892 54.9295 44.8297C54.6991 45.0701 54.4085 45.1904 54.0578 45.1904Z" fill="#E7E4DF"/>
<path d="M59.953 54.524C59.2616 54.524 58.6454 54.3537 58.1043 54.013C57.5732 53.6723 57.1574 53.2014 56.8568 52.6002C56.5562 51.989 56.4059 51.2926 56.4059 50.511C56.4059 49.7094 56.5712 49.008 56.9019 48.4068C57.2325 47.8056 57.6834 47.3397 58.2546 47.009C58.8357 46.6683 59.4921 46.498 60.2235 46.498C60.8347 46.498 61.3758 46.6182 61.8468 46.8587C62.3277 47.0992 62.7085 47.4399 62.989 47.8808C63.2796 48.3116 63.445 48.8126 63.485 49.3838L63.5001 49.6092H58.45V49.6844C58.45 50.7465 58.6854 51.5982 59.1564 52.2395C59.6273 52.8707 60.2586 53.1864 61.0502 53.1864C61.5311 53.1864 61.987 53.0711 62.4179 52.8407C62.8588 52.6002 63.2145 52.2796 63.485 51.8788L63.6203 51.9238C63.45 52.4349 63.1844 52.8858 62.8237 53.2766C62.463 53.6673 62.0371 53.9729 61.5462 54.1934C61.0552 54.4138 60.5241 54.524 59.953 54.524ZM58.465 49.3838H61.5161C61.5161 48.5922 61.3858 47.9509 61.1253 47.4599C60.8748 46.9689 60.5191 46.7234 60.0582 46.7234C59.6173 46.7234 59.2516 46.9639 58.961 47.4449C58.6704 47.9259 58.5051 48.5721 58.465 49.3838Z" fill="#E7E4DF"/>
<path d="M69.6281 54.9148L69.6131 52.7806C69.3726 53.3016 69.0119 53.7325 68.5309 54.0731C68.0499 54.4038 67.5339 54.5691 66.9828 54.5691C66.4417 54.5691 65.9558 54.3988 65.5249 54.0581C65.094 53.7174 64.7534 53.2515 64.5029 52.6603C64.2524 52.0591 64.1271 51.3828 64.1271 50.6313C64.1271 49.7896 64.2824 49.0581 64.593 48.4369C64.9137 47.8156 65.3546 47.3397 65.9157 47.009C66.4768 46.6683 67.1231 46.498 67.8546 46.498C68.2654 46.498 68.601 46.5631 68.8616 46.6934C69.1221 46.8136 69.3576 47.024 69.568 47.3246V44.4238C69.568 44.0631 69.4528 43.7725 69.2223 43.5521C69.0018 43.3317 68.7113 43.2214 68.3505 43.2214V43.0711H69.8836C70.3846 43.0711 70.7654 43.021 71.0259 42.9208C71.2864 42.8206 71.4718 42.6804 71.582 42.5H71.7323V52.991C71.7323 53.3517 71.8425 53.6423 72.063 53.8627C72.2834 54.0832 72.579 54.1934 72.9497 54.1934V54.3437H71.4167C70.9758 54.3437 70.6251 54.3888 70.3646 54.479C70.1141 54.5691 69.9187 54.7144 69.7784 54.9148H69.6281ZM67.8095 53.9679C68.0399 53.9679 68.2704 53.8978 68.5008 53.7575C68.7413 53.6072 68.9568 53.4118 69.1471 53.1713C69.3375 52.9309 69.4778 52.6754 69.568 52.4048V48.7375C69.5179 48.1363 69.3676 47.6553 69.1171 47.2946C68.8766 46.9339 68.561 46.7535 68.1702 46.7535C67.6491 46.7535 67.2433 47.0842 66.9528 47.7455C66.6722 48.4068 66.5319 49.3838 66.5319 50.6764C66.5319 52.8707 66.9578 53.9679 67.8095 53.9679Z" fill="#E7E4DF"/>
</g>
<defs>
<clipPath id="clip0_177_123">
<rect width="100" height="100" fill="white"/>
</clipPath>
</defs>
</svg>
