<svg width="60" height="60" viewBox="0 0 60 60" fill="none" xmlns="http://www.w3.org/2000/svg">
<g clip-path="url(#clip0_177_119)">
<circle cx="30" cy="30" r="30" fill="#DC9E00"/>
<path fill-rule="evenodd" clip-rule="evenodd" d="M38.5714 23.8846H27.4286C26.9552 23.8846 26.5714 24.3151 26.5714 24.8462V42.1538C26.5714 42.6849 26.9552 43.1154 27.4286 43.1154H38.5714C39.0448 43.1154 39.4286 42.6849 39.4286 42.1538V24.8462C39.4286 24.3151 39.0448 23.8846 38.5714 23.8846ZM27.4286 21C25.535 21 24 22.722 24 24.8462V42.1538C24 44.278 25.535 46 27.4286 46H38.5714C40.465 46 42 44.278 42 42.1538V24.8462C42 22.722 40.465 21 38.5714 21H27.4286Z" fill="#E7E4DF"/>
<path fill-rule="evenodd" clip-rule="evenodd" d="M18 19C18 16.7909 19.7909 15 22 15L34.4651 15.0001C35.3128 15.0001 36 15.6873 36 16.535V16.535C36 17.3826 35.3128 18.0698 34.4651 18.0698L21.8421 18.0698C21.2898 18.0698 20.8421 18.5175 20.8421 19.0698V35.5789C20.8421 36.3638 20.2059 37 19.4211 37V37C18.6362 37 18 36.3638 18 35.5789V19Z" fill="#E7E4DF"/>
</g>
<defs>
<clipPath id="clip0_177_119">
<rect width="60" height="60" fill="white"/>
</clipPath>
</defs>
</svg>
