<svg width="100" height="100" viewBox="0 0 100 100" fill="none" xmlns="http://www.w3.org/2000/svg">
<g clip-path="url(#clip0_177_119)">
<circle cx="50" cy="50" r="50" fill="#DC9E00"/>
<path fill-rule="evenodd" clip-rule="evenodd" d="M63.0089 40.7932H46.0973C45.3789 40.7932 44.7965 41.4465 44.7965 42.2525V68.5204C44.7965 69.3263 45.3789 69.9797 46.0973 69.9797H63.0089C63.7273 69.9797 64.3097 69.3263 64.3097 68.5204V42.2525C64.3097 41.4465 63.7273 40.7932 63.0089 40.7932ZM46.0973 36.4152C43.2235 36.4152 40.8938 39.0286 40.8938 42.2525V68.5204C40.8938 71.7442 43.2235 74.3577 46.0973 74.3577H63.0089C65.8827 74.3577 68.2124 71.7442 68.2124 68.5204V42.2525C68.2124 39.0286 65.8827 36.4152 63.0089 36.4152H46.0973Z" fill="#E7E4DF"/>
<path fill-rule="evenodd" clip-rule="evenodd" d="M31.7876 31.309C31.7876 29.0998 33.5785 27.309 35.7876 27.309L56.7767 27.3091C58.0633 27.3091 59.1062 28.352 59.1062 29.6386V29.6386C59.1062 30.9251 58.0632 31.9681 56.7767 31.9681L37.1011 31.968C36.5488 31.968 36.1011 32.4157 36.1011 32.968V58.5417C36.1011 59.7328 35.1355 60.6984 33.9443 60.6984V60.6984C32.7532 60.6984 31.7876 59.7328 31.7876 58.5417V31.309Z" fill="#E7E4DF"/>
</g>
<defs>
<clipPath id="clip0_177_119">
<rect width="100" height="100" fill="white"/>
</clipPath>
</defs>
</svg>
