<svg width="60" height="60" viewBox="0 0 60 60" fill="none" xmlns="http://www.w3.org/2000/svg">
<g clip-path="url(#clip0_154_24)">
<circle cx="30" cy="30" r="30" fill="#1A1A1A"/>
<path fill-rule="evenodd" clip-rule="evenodd" d="M38.5714 22.8846H27.4286C26.9552 22.8846 26.5714 23.3151 26.5714 23.8462V41.1538C26.5714 41.6849 26.9552 42.1154 27.4286 42.1154H38.5714C39.0448 42.1154 39.4286 41.6849 39.4286 41.1538V23.8462C39.4286 23.3151 39.0448 22.8846 38.5714 22.8846ZM27.4286 20C25.535 20 24 21.722 24 23.8462V41.1538C24 43.278 25.535 45 27.4286 45H38.5714C40.465 45 42 43.278 42 41.1538V23.8462C42 21.722 40.465 20 38.5714 20H27.4286Z" fill="white"/>
<path fill-rule="evenodd" clip-rule="evenodd" d="M18 18C18 15.7909 19.7909 14 22 14L34.4651 14.0001C35.3128 14.0001 36 14.6873 36 15.535V15.535C36 16.3826 35.3128 17.0698 34.4651 17.0698L21.8421 17.0698C21.2898 17.0698 20.8421 17.5175 20.8421 18.0698V34.5789C20.8421 35.3638 20.2059 36 19.4211 36V36C18.6362 36 18 35.3638 18 34.5789V18Z" fill="white"/>
</g>
<defs>
<clipPath id="clip0_154_24">
<rect width="60" height="60" fill="white"/>
</clipPath>
</defs>
</svg>
