<svg width="88" height="88" viewBox="0 0 88 88" fill="none" xmlns="http://www.w3.org/2000/svg">
<path fill-rule="evenodd" clip-rule="evenodd" d="M63.5174 18.7784C65.3676 18.7784 67.1045 19.4856 68.4128 20.7719C71.1119 23.4252 71.1119 27.7437 68.4128 30.3973C67.0636 31.7234 65.2913 32.3871 63.5174 32.3871C61.7429 32.3871 59.9715 31.7238 58.6219 30.3972C55.9228 27.7439 55.9228 23.4254 58.6219 20.7719C59.93 19.4859 61.6672 18.7784 63.5174 18.7784ZM60.375 28.6737C62.1078 30.3773 64.9268 30.3772 66.6599 28.6737C68.3929 26.97 68.3929 24.1989 66.6597 22.4951C65.821 21.6706 64.7035 21.2156 63.5174 21.2156C62.3313 21.2156 61.2137 21.6706 60.375 22.4951C58.6419 24.1989 58.6418 26.97 60.375 28.6737Z" fill="#798A78"/>
<path d="M47.1532 42.1728C47.1532 42.8459 46.5981 43.3915 45.9135 43.3915C45.2288 43.3915 44.6737 42.8459 44.6737 42.1728C44.6737 41.4997 45.2288 40.9541 45.9135 40.9541C46.5981 40.9541 47.1532 41.4997 47.1532 42.1728Z" fill="#798A78"/>
<path fill-rule="evenodd" clip-rule="evenodd" d="M43.9646 86.9971C43.8158 86.9971 43.6655 86.9705 43.52 86.9156C43.0631 86.7427 42.7524 86.3216 42.7272 85.8406L41.5575 63.4628L39.6023 64.9543C39.3805 65.1237 39.1125 65.2101 38.8422 65.2101C38.6394 65.2101 38.436 65.1613 38.2501 65.0619C37.7405 64.7894 37.2377 64.5045 36.7402 64.2102L36.4339 64.029L36.158 64.2524C35.3138 64.9355 34.4109 65.6761 33.5299 66.3989L33.4808 66.4392C32.2589 67.4414 31.0026 68.4718 29.9117 69.3418C29.6865 69.5213 29.4097 69.6141 29.1304 69.6141C28.9503 69.6141 28.7692 69.5755 28.6004 69.4969C26.2189 68.3889 24.0885 66.9117 22.2673 65.1063C20.4892 63.3439 19.0299 61.2922 17.9297 59.0068C17.7224 58.5755 17.7899 58.0649 18.1023 57.7003L23.4845 51.4189L23.2935 51.1129C22.9263 50.5251 22.5743 49.9277 22.2386 49.3209C21.9985 48.8872 22.0485 48.3539 22.3653 47.9703L23.8779 46.1395L1.17904 44.9931C0.690081 44.9685 0.261583 44.663 0.0856948 44.2134C-0.0900765 43.7641 0.0198812 43.2549 0.366275 42.9144L10.6197 32.8344C16.139 27.4087 23.4747 24.4216 31.28 24.4216C31.2936 24.4216 31.306 24.4218 31.3163 24.4221L41.577 24.7183L45.56 19.8979C54.6771 8.86337 68.1839 2.01485 82.6152 1.10916L84.241 1.00726C85.2424 0.943188 86.2297 1.30581 86.9464 1.99985C87.6626 2.69389 88.0453 3.65846 87.9957 4.64553L87.9542 5.48058C87.211 20.4025 79.8993 34.213 67.8935 43.3718L63.6528 46.6069V56.2494C63.6528 63.9228 60.6144 71.1341 55.0951 76.5599L44.8414 86.64C44.6047 86.8728 44.2877 86.9971 43.9646 86.9971ZM12.3728 34.558L4.09076 42.6998L25.8135 43.7969L39.6091 27.0999L31.262 26.8589L31.2543 26.8589C24.1229 26.8657 17.4162 29.6 12.3728 34.558ZM29.2267 66.7442C30.0688 66.0633 30.9743 65.3206 31.8588 64.5953L31.9415 64.5275L32.0037 64.4765C32.5904 63.9952 33.185 63.5075 33.7658 63.0335L34.2647 62.6263L33.7415 62.2498C32.062 61.0413 30.4788 59.7054 29.0066 58.25L29.0015 58.2441L28.988 58.2316L28.9852 58.2288L28.9834 58.2273C27.6556 56.9123 26.4263 55.509 25.3031 54.0275L24.9218 53.5247L20.5201 58.6617L20.6847 58.9598C21.5883 60.5965 22.7095 62.0835 24.0275 63.3899C25.3884 64.7389 26.9451 65.8819 28.6645 66.7974L28.9638 66.9567L29.2267 66.7442ZM61.174 56.2494L61.1738 48.4985L43.9449 61.6417L45.0603 82.9783L53.3423 74.8365C58.3921 69.8722 61.174 63.2697 61.174 56.2494ZM41.2381 47.924C41.722 47.4482 41.7221 46.6764 41.2381 46.2004C40.7539 45.7245 39.9689 45.7245 39.4848 46.2004L29.8882 55.6346L29.5315 55.2464C27.8135 53.3766 26.2915 51.3417 24.9954 49.1647L24.8184 48.8674L47.4846 21.4345C56.1673 10.9256 69.0288 4.40414 82.773 3.54179L84.399 3.43988C84.808 3.41493 85.0832 3.61712 85.2063 3.73624C85.3287 3.85464 85.5402 4.12202 85.5201 4.52673L85.4784 5.36152C84.7707 19.5716 77.8073 32.7243 66.374 41.4463L38.7292 62.5354L38.4341 62.3658C36.1324 61.0437 33.9875 59.4828 32.0249 57.7149L31.6354 57.3641L41.2381 47.924Z" fill="#798A78"/>
<path d="M8.55471 78.7758C8.73613 78.9541 9.13925 79.2557 9.74782 79.2158L12.1666 79.053C14.369 78.9049 16.3462 77.6072 17.3302 75.6649L19.4091 71.5606C19.7144 70.958 20.4585 70.7128 21.0714 71.0128C21.6842 71.3129 21.9336 72.0443 21.6283 72.6469L19.5494 76.7511C18.1757 79.4634 15.4106 81.2777 12.3359 81.4846L9.91794 81.6473C9.8265 81.6535 9.73438 81.6566 9.64302 81.6566C8.58063 81.6566 7.55763 81.2428 6.80124 80.4992C5.97972 79.6916 5.55415 78.575 5.63353 77.4353L5.79903 75.0585C6.00965 72.0358 7.85543 69.3175 10.6141 67.9671L14.789 65.9233C15.4019 65.6233 16.1461 65.8686 16.4512 66.471C16.7564 67.0734 16.5071 67.805 15.8941 68.1051L11.7192 70.1488C9.7436 71.1162 8.42349 73.0601 8.27267 75.225L8.10716 77.6019C8.06568 78.2005 8.37362 78.5978 8.55471 78.7758Z" fill="#798A78"/>
<path d="M2.4864 85.7779C2.4864 86.4528 1.9298 87 1.2432 87C0.556599 87 0 86.4528 0 85.7779C0 85.1029 0.556601 84.5557 1.2432 84.5557C1.9298 84.5557 2.4864 85.1029 2.4864 85.7779Z" fill="#798A78"/>
</svg>
