<svg width="88" height="88" viewBox="0 0 88 88" fill="none" xmlns="http://www.w3.org/2000/svg">
<g clip-path="url(#clip0_19_75)">
<path d="M1.72907 87.7433C2.684 87.7433 3.45813 86.9692 3.45813 86.0142C3.45813 85.0593 2.684 84.2852 1.72907 84.2852C0.774129 84.2852 0 85.0593 0 86.0142C0 86.9692 0.774129 87.7433 1.72907 87.7433Z" fill="#798A78"/>
<path d="M45.8916 43.888C46.8446 43.888 47.6172 43.1154 47.6172 42.1624C47.6172 41.2094 46.8446 40.4368 45.8916 40.4368C44.9385 40.4368 44.166 41.2094 44.166 42.1624C44.166 43.1154 44.9385 43.888 45.8916 43.888Z" fill="#798A78"/>
<path d="M68.4887 20.2867C67.1015 18.8993 65.2571 18.1355 63.2953 18.1355C61.3335 18.1355 59.489 18.8997 58.1019 20.2867C55.2383 23.1505 55.2383 27.81 58.1019 30.6736C59.534 32.1055 61.4143 32.8212 63.2953 32.8212C65.1758 32.8212 67.057 32.1052 68.4887 30.6736C71.3523 27.8098 71.3523 23.1503 68.4887 20.2867ZM66.0486 28.2332C64.5304 29.7512 62.0601 29.7512 60.5422 28.2332C59.024 26.7152 59.024 24.245 60.5422 22.7268C61.2777 21.9914 62.2553 21.5864 63.2953 21.5864C64.3353 21.5864 65.313 21.9914 66.0484 22.7268C67.5666 24.245 67.5666 26.7152 66.0486 28.2332Z" fill="#798A78"/>
<path d="M21.5547 70.718C20.7015 70.2932 19.6658 70.6405 19.2409 71.4935L17.1856 75.6211C16.2919 77.4157 14.4944 78.6157 12.4941 78.7525L10.1037 78.9162C9.69962 78.9431 9.4339 78.7419 9.31101 78.619C9.18812 78.4961 8.98633 78.2299 9.01383 77.8261L9.17746 75.4358C9.31444 73.4357 10.5145 71.6381 12.3089 70.7443L16.4363 68.6891C17.2895 68.2642 17.6366 67.2283 17.2118 66.3753C16.7871 65.5223 15.7512 65.1749 14.898 65.5998L10.7706 67.6551C7.88444 69.0923 5.95462 71.9832 5.73428 75.2L5.57066 77.5903C5.48231 78.8806 5.956 80.1449 6.87038 81.0593C7.71222 81.9011 8.8509 82.3696 10.0334 82.3696C10.135 82.3696 10.2372 82.3662 10.3393 82.3592L12.7298 82.1955C15.9466 81.9754 18.8375 80.0457 20.2748 77.1592L22.33 73.0318C22.7549 72.1786 22.4077 71.1429 21.5547 70.718Z" fill="#798A78"/>
<path d="M86.8091 1.40603C85.9994 0.608353 84.8839 0.191211 83.7509 0.264946L82.1442 0.367384C67.7378 1.28709 54.2554 8.24099 45.1541 19.4462L41.3721 24.1022L31.475 23.8115C31.4582 23.811 31.4412 23.8108 31.4245 23.8108C23.5753 23.8108 16.1958 26.8675 10.6454 32.4177L0.508586 42.5547C0.0264755 43.0368 -0.126665 43.7578 0.118085 44.3941C0.362836 45.0306 0.959243 45.4633 1.64021 45.4981L23.0978 46.6005L22.223 47.6776C21.7821 48.2206 21.7123 48.9758 22.0466 49.5901C22.3828 50.2081 22.7352 50.8164 23.1026 51.4149L18.0141 57.4558C17.5791 57.9723 17.4854 58.6952 17.774 59.3057C18.8855 61.6543 20.3607 63.7646 22.1592 65.5779C24.0014 67.4355 26.1555 68.9546 28.5614 70.0933C28.7965 70.2046 29.0487 70.2591 29.2992 70.2591C29.6879 70.2591 30.0732 70.1278 30.3867 69.8736C31.4829 68.9843 32.7467 67.9295 33.9691 66.9096C34.8403 66.1826 35.7317 65.4389 36.5648 64.7531C37.062 65.0523 37.5654 65.3425 38.0764 65.6204C38.3349 65.761 38.6183 65.8302 38.9007 65.8302C39.2764 65.8302 39.6498 65.7079 39.9588 65.4679L41.1349 64.5553L42.2421 86.1033C42.2772 86.7842 42.7098 87.3807 43.3461 87.6254C43.5475 87.7027 43.7569 87.7406 43.9649 87.7406C44.4143 87.7406 44.8557 87.5647 45.1853 87.2349L55.3224 77.0979C60.8727 71.5475 63.9292 64.1682 63.9292 56.3188V46.8665L67.9282 43.7633C79.9129 34.4632 87.212 20.4392 87.9538 5.28697L87.9949 4.44719C88.0509 3.31212 87.6184 2.20387 86.8091 1.40603ZM5.69303 42.2508L13.0857 34.8581C17.9782 29.9657 24.4816 27.2686 31.3996 27.2619L38.6329 27.4744L25.7921 43.2835L5.69303 42.2508ZM31.7581 64.2598C30.8573 65.0112 29.9338 65.7819 29.0768 66.4868C27.4193 65.5891 25.9198 64.469 24.6095 63.1476C23.3403 61.868 22.2601 60.411 21.389 58.806L25.1146 54.3832C26.2411 55.8945 27.4741 57.326 28.8061 58.6672C28.8072 58.6682 28.8082 58.669 28.8092 58.6701C28.8096 58.6704 28.8099 58.6709 28.8103 58.6713C28.8108 58.6718 28.8113 58.6721 28.8118 58.6727C30.2887 60.159 31.8774 61.523 33.5626 62.7566C32.9676 63.2506 32.3579 63.7593 31.7581 64.2598ZM60.4786 56.3188C60.4786 63.2463 57.7811 69.759 52.8824 74.6576L45.4897 82.0503L44.4581 61.9766L60.4785 49.5449V56.3188H60.4786ZM84.5073 5.11836C83.8148 19.2632 77.001 32.3549 65.813 41.0369L38.7495 62.0381C36.5051 60.7267 34.4132 59.1783 32.4987 57.424L41.6229 48.2998C42.2966 47.6261 42.2966 46.5333 41.6229 45.8593C40.949 45.1854 39.8563 45.1854 39.1824 45.8593L30.0668 54.9749C28.3909 53.1195 26.9066 51.1007 25.6428 48.9414L47.8329 21.622C56.3291 11.1618 68.9151 4.67011 82.3639 3.81177L83.9706 3.70933C84.1811 3.69627 84.322 3.80077 84.387 3.8647C84.4518 3.92847 84.5589 4.06717 84.5486 4.27875L84.5073 5.11836Z" fill="#798A78"/>
</g>
<defs>
<clipPath id="clip0_19_75">
<rect width="88" height="88" fill="#798A78"/>
</clipPath>
</defs>
</svg>
