<svg width="88" height="88" viewBox="0 0 88 88" fill="none" xmlns="http://www.w3.org/2000/svg">
<g clip-path="url(#clip0_19_26)">
<path d="M40.9062 63.8499C40.1942 63.8499 39.6172 64.427 39.6172 65.1389C39.6172 65.8508 40.1942 66.428 40.9062 66.428H47.0938C47.8058 66.428 48.3828 65.8508 48.3828 65.1389C48.3828 64.427 47.8058 63.8499 47.0938 63.8499H40.9062Z" fill="white"/>
<path d="M15.4688 43.834H23.9896C24.5101 45.1885 25.8213 46.1543 27.3568 46.1543C28.8924 46.1543 30.2036 45.1885 30.724 43.834H32.4271C33.1392 43.834 33.7162 43.2568 33.7162 42.5449C33.7162 41.833 33.1392 41.2559 32.4271 41.2559H30.724C30.2036 39.9013 28.8924 38.9355 27.3568 38.9355C25.8213 38.9355 24.5101 39.9013 23.9896 41.2559H15.4688C14.7567 41.2559 14.1797 41.833 14.1797 42.5449C14.1797 43.2568 14.7567 43.834 15.4688 43.834ZM27.3568 41.5137C27.9256 41.5137 28.3881 41.9762 28.3881 42.5449C28.3881 43.1137 27.9256 43.5762 27.3568 43.5762C26.7881 43.5762 26.3256 43.1137 26.3256 42.5449C26.3256 41.9762 26.7881 41.5137 27.3568 41.5137Z" fill="white"/>
<path d="M15.4688 36.4434H17.1146C17.6351 37.7979 18.9463 38.7637 20.4818 38.7637C22.0174 38.7637 23.3286 37.7979 23.849 36.4434H32.4271C33.1392 36.4434 33.7162 35.8662 33.7162 35.1543C33.7162 34.4424 33.1392 33.8652 32.4271 33.8652H23.849C23.3286 32.5107 22.0174 31.5449 20.4818 31.5449C18.9463 31.5449 17.6351 32.5107 17.1146 33.8652H15.4688C14.7567 33.8652 14.1797 34.4424 14.1797 35.1543C14.1797 35.8662 14.7567 36.4434 15.4688 36.4434ZM20.4818 34.123C21.0506 34.123 21.5131 34.5856 21.5131 35.1543C21.5131 35.723 21.0506 36.1855 20.4818 36.1855C19.9131 36.1855 19.4506 35.723 19.4506 35.1543C19.4506 34.5856 19.9131 34.123 20.4818 34.123Z" fill="white"/>
<path d="M32.6849 24.584C33.3969 24.584 33.974 24.0069 33.974 23.2949C33.974 22.583 33.3969 22.0059 32.6849 22.0059C31.973 22.0059 31.3959 22.583 31.3959 23.2949C31.3959 24.0069 31.973 24.584 32.6849 24.584Z" fill="white"/>
<path d="M29.1328 24.584C29.8447 24.584 30.4219 24.0069 30.4219 23.2949C30.4219 22.583 29.8447 22.0059 29.1328 22.0059C28.4209 22.0059 27.8438 22.583 27.8438 23.2949C27.8438 24.0069 28.4209 24.584 29.1328 24.584Z" fill="white"/>
<path d="M25.5807 24.584C26.2926 24.584 26.8698 24.0069 26.8698 23.2949C26.8698 22.583 26.2926 22.0059 25.5807 22.0059C24.8688 22.0059 24.2916 22.583 24.2916 23.2949C24.2916 24.0069 24.8688 24.584 25.5807 24.584Z" fill="white"/>
<path d="M84.1328 8.67677H83.65L84.0101 8.3167C85.0886 7.23818 85.0886 5.48317 84.0101 4.40465L81.1883 1.58281C80.1097 0.504462 78.3549 0.504462 77.2762 1.58281L70.1827 8.6766H3.86719C1.73491 8.6766 0 10.4113 0 12.5438V66.0767C0 68.683 2.12025 70.8032 4.72656 70.8032H35.2593V79.9221H29.0469C27.3885 79.9221 26.0391 81.2714 26.0391 82.9299V84.2179C26.0391 85.8763 27.3885 87.2257 29.0469 87.2257H58.9531C60.6115 87.2257 61.9609 85.8763 61.9609 84.2179V82.9299C61.9609 81.2714 60.6115 79.9221 58.9531 79.9221H52.7407V70.8032H66.5156C67.2277 70.8032 67.8047 70.2261 67.8047 69.5142C67.8047 68.8023 67.2277 68.2251 66.5156 68.2251H4.72656C3.54183 68.2251 2.57812 67.2614 2.57812 66.0767V62.261H85.4219V66.0767C85.4219 67.2614 84.4582 68.2251 83.2734 68.2251H72.5312C71.8192 68.2251 71.2422 68.8023 71.2422 69.5142C71.2422 70.2261 71.8192 70.8032 72.5312 70.8032H83.2734C85.8798 70.8032 88 68.683 88 66.0767V12.544C88 10.4117 86.2651 8.67677 84.1328 8.67677ZM58.9531 82.5004C59.1901 82.5004 59.3828 82.6932 59.3828 82.93V84.2181C59.3828 84.4549 59.1901 84.6478 58.9531 84.6478H29.0469C28.8099 84.6478 28.6172 84.4549 28.6172 84.2181V82.93C28.6172 82.6932 28.8099 82.5004 29.0469 82.5004H58.9531ZM37.8374 70.8036H50.1627V79.9224H37.8374V70.8036ZM79.0993 3.40606C79.1728 3.33266 79.2921 3.33284 79.3653 3.40606L82.187 6.22773C82.2604 6.30112 82.2604 6.42057 82.187 6.49379L79.4946 9.18621L76.4069 6.09848L79.0993 3.40606ZM74.5838 7.92156L77.6713 11.0093L76.7723 11.9084L73.6847 8.82063L74.5838 7.92156ZM71.8616 10.6437L74.9494 13.7314L59.6953 28.9855L56.6075 25.8978L71.8616 10.6437ZM69.9531 22.429C71.7064 22.429 73.1328 23.8554 73.1328 25.6087C73.1328 27.362 71.7064 28.7884 69.9531 28.7884C68.1998 28.7884 66.7734 27.362 66.7734 25.6087C66.7734 25.5882 66.7762 25.5685 66.7765 25.548L69.893 22.4321C69.9131 22.4318 69.9328 22.429 69.9531 22.429ZM57.4568 30.3932L53.6417 31.9514L55.1999 28.1363L57.4568 30.3932ZM85.4219 59.6833H2.57812V12.544C2.57812 11.8333 3.15631 11.2549 3.86719 11.2549H67.6048L65.6392 13.2205H21.8281C21.116 13.2205 20.5391 13.7976 20.5391 14.5095C20.5391 15.2214 21.116 15.7986 21.8281 15.7986H63.0613L53.9689 24.8915C53.712 25.1507 53.511 25.4532 53.3727 25.7917L50.4933 32.8414C50.2291 33.4888 50.3779 34.2267 50.8724 34.721C51.2043 35.0529 51.6457 35.2289 52.0958 35.2289C52.3165 35.2289 52.5391 35.1866 52.752 35.0998L59.8015 32.2206C60.1305 32.0861 60.4247 31.8916 60.6791 31.6449L64.6006 27.724C65.4454 29.855 67.525 31.3667 69.9533 31.3667C73.1282 31.3667 75.7111 28.7837 75.7111 25.6089C75.7111 23.181 74.1998 21.1014 72.0691 20.2565L76.5273 15.7988H80.8782V55.1397H80.195L75.5234 47.0484C75.1676 46.4317 74.3787 46.2205 73.7626 46.5766C73.146 46.9325 72.9348 47.7209 73.2908 48.3374L77.2181 55.1397H59.2108L57.2794 51.7945L66.2831 36.1998L70.2828 43.1277C70.6389 43.7443 71.4273 43.9557 72.0436 43.5995C72.6602 43.2436 72.8714 42.4552 72.5154 41.8387L68.2483 34.4479C67.838 33.7374 67.1034 33.3132 66.2829 33.3132C65.4624 33.3132 64.7276 33.7374 64.3173 34.4479L55.7906 49.2166L44.8501 30.2672C44.4398 29.5567 43.7052 29.1325 42.8845 29.1325C42.0642 29.1325 41.3294 29.5567 40.9191 30.2672L38.0126 35.3016V21.484C38.0126 19.8256 36.6632 18.4762 35.0047 18.4762H12.8906C11.2322 18.4762 9.88281 19.8256 9.88281 21.484V49.6715C9.88281 50.8563 10.8465 51.82 12.0312 51.82H28.4761L26.5593 55.1399H7.12198V15.7986H15.8125C16.5246 15.7986 17.1016 15.2214 17.1016 14.5095C17.1016 13.7976 16.5246 13.2205 15.8125 13.2205H6.6923C5.50756 13.2205 4.54386 14.1842 4.54386 15.3689V55.5693C4.54386 56.754 5.50756 57.7177 6.6923 57.7177H81.3079C82.4926 57.7177 83.4563 56.754 83.4563 55.5693V15.3689C83.4563 14.1842 82.4926 13.2205 81.3079 13.2205H79.1058L81.0717 11.2549H84.1328C84.8437 11.2549 85.4219 11.8333 85.4219 12.544V59.6833ZM35.435 28.623V49.2415H12.4609V28.623H35.435ZM12.4609 26.0449V21.4837C12.4609 21.2469 12.6536 21.054 12.8906 21.054H35.0053C35.2423 21.054 35.435 21.2469 35.435 21.4837V26.0449H12.4609ZM31.4531 51.8196H35.8646C37.0494 51.8196 38.0131 50.8559 38.0131 49.6712V46.9406C38.3355 47.0953 38.6946 47.179 39.0706 47.179C39.9506 47.179 40.7385 46.7239 41.1783 45.962L43.3721 42.1623C43.4385 42.0475 43.5399 42.0233 43.6129 42.0233C43.6863 42.0233 43.7877 42.0475 43.8539 42.1623L45.2064 44.5048C45.6464 45.2671 46.4344 45.722 47.3146 45.722C48.1946 45.722 48.9827 45.2671 49.4225 44.505L49.7583 43.9234L56.2339 55.1394H29.5364L31.4531 51.8196ZM38.0131 42.6255V40.4575L42.8852 32.0189L48.2697 41.3452L47.3144 42.9997L46.0866 40.8731C45.5703 39.9788 44.6456 39.445 43.6128 39.445C42.5801 39.445 41.6555 39.9788 41.1391 40.8731L39.0701 44.4567L38.0131 42.6255Z" fill="white"/>
</g>
<defs>
<clipPath id="clip0_19_26">
<rect width="88" height="88" fill="white"/>
</clipPath>
</defs>
</svg>
