<svg width="88" height="88" viewBox="0 0 88 88" fill="none" xmlns="http://www.w3.org/2000/svg">
<path d="M84.5658 5.00813H15.0244C13.1642 5.00813 11.5902 6.51057 11.5902 8.44228V16.5984H3.43415C1.50244 16.5984 0 18.1008 0 20.0325V79.5577C0 81.4179 1.50244 82.9919 3.43415 82.9919H72.9756C74.8358 82.9919 76.4097 81.4894 76.4097 79.5577V71.4016H84.5658C86.426 71.4016 88 69.8992 88 67.9675V8.44228C88 6.51057 86.4975 5.00813 84.5658 5.00813V5.00813ZM15.0244 7.86992H84.5658C84.852 7.86992 85.1382 8.08455 85.1382 8.44228V18.3155H14.452V8.44228C14.452 8.08455 14.7382 7.86992 15.0244 7.86992V7.86992ZM3.43415 19.4602H11.5902V29.9057H2.86179V20.0325C2.86179 19.7463 3.07642 19.4602 3.43415 19.4602V19.4602ZM73.548 79.5577C73.548 79.8439 73.3333 80.1301 72.9756 80.1301H3.43415C3.14797 80.1301 2.86179 79.9155 2.86179 79.5577V32.7675H11.5902V67.9675C11.5902 69.8277 13.0927 71.4016 15.0244 71.4016H73.548V79.5577ZM84.5658 68.5398H15.0244C14.7382 68.5398 14.452 68.3252 14.452 67.9675V21.1772H85.1382V67.9675C85.1382 68.2537 84.9236 68.5398 84.5658 68.5398Z" fill="#798A78"/>
<path d="M26.5431 14.2374H21.2488C20.4618 14.2374 19.8179 13.5935 19.8179 12.8065C19.8179 12.0195 20.4618 11.3756 21.2488 11.3756H26.5431C27.3301 11.3756 27.974 12.0195 27.974 12.8065C27.974 13.5935 27.3301 14.2374 26.5431 14.2374Z" fill="#798A78"/>
<path d="M38.6341 14.2374H33.3398C32.5528 14.2374 31.9089 13.5935 31.9089 12.8065C31.9089 12.0195 32.5528 11.3756 33.3398 11.3756H38.6341C39.4211 11.3756 40.065 12.0195 40.065 12.8065C40.065 13.5935 39.4211 14.2374 38.6341 14.2374Z" fill="#798A78"/>
<path d="M27.8309 45.0016L41.4244 52.013V49.2943L30.9788 44.0715L41.4244 38.8488V36.1301L27.8309 43.0699V45.0016Z" fill="#798A78"/>
<path d="M44.4293 52.8716H47.0049L55.0179 32.1236H52.3707L44.4293 52.8716Z" fill="#798A78"/>
<path d="M57.9512 36.1301V38.8488L68.4683 44.0715L57.9512 49.2943V52.013L71.5447 45.0016V43.0699L57.9512 36.1301Z" fill="#798A78"/>
</svg>
