<svg width="88" height="88" viewBox="0 0 88 88" fill="none" xmlns="http://www.w3.org/2000/svg">
<path d="M84.5658 5.00806H15.0244C13.1642 5.00806 11.5902 6.5105 11.5902 8.4422V16.5983H3.43415C1.50244 16.5983 0 18.1007 0 20.0324V79.5577C0 81.4178 1.50244 82.9918 3.43415 82.9918H72.9756C74.8358 82.9918 76.4098 81.4894 76.4098 79.5577V71.4016H84.5658C86.426 71.4016 88 69.8991 88 67.9674V8.4422C88 6.5105 86.4976 5.00806 84.5658 5.00806ZM15.0244 7.86985H84.5658C84.852 7.86985 85.1382 8.08448 85.1382 8.4422V18.3154H14.452V8.4422C14.452 8.08448 14.7382 7.86985 15.0244 7.86985ZM3.43415 19.4601H11.5902V29.9056H2.86179V20.0324C2.86179 19.7463 3.07642 19.4601 3.43415 19.4601ZM73.548 79.5577C73.548 79.8438 73.3333 80.13 72.9756 80.13H3.43415C3.14797 80.13 2.86179 79.9154 2.86179 79.5577V32.7674H11.5902V67.9674C11.5902 69.8276 13.0927 71.4016 15.0244 71.4016H73.548V79.5577ZM84.5658 68.5398H15.0244C14.7382 68.5398 14.452 68.3251 14.452 67.9674V21.1772H85.1382V67.9674C85.1382 68.2536 84.9236 68.5398 84.5658 68.5398Z" fill="#798A78"/>
<path d="M26.5431 14.2373H21.2488C20.4618 14.2373 19.8179 13.5934 19.8179 12.8064C19.8179 12.0194 20.4618 11.3755 21.2488 11.3755H26.5431C27.3301 11.3755 27.974 12.0194 27.974 12.8064C27.974 13.5934 27.3301 14.2373 26.5431 14.2373Z" fill="#798A78"/>
<path d="M38.6341 14.2373H33.3398C32.5528 14.2373 31.9089 13.5934 31.9089 12.8064C31.9089 12.0194 32.5528 11.3755 33.3398 11.3755H38.6341C39.4211 11.3755 40.065 12.0194 40.065 12.8064C40.065 13.5934 39.4211 14.2373 38.6341 14.2373Z" fill="#798A78"/>
<path d="M27.8309 45.0017L41.4244 52.0131V49.2944L30.9788 44.0716L41.4244 38.8488V36.1301L27.8309 43.07V45.0017Z" fill="#798A78"/>
<path d="M44.4293 52.8715H47.0049L55.0179 32.1235H52.3707L44.4293 52.8715Z" fill="#798A78"/>
<path d="M57.9512 36.1301V38.8488L68.4683 44.0716L57.9512 49.2944V52.0131L71.5447 45.0017V43.07L57.9512 36.1301Z" fill="#798A78"/>
</svg>
