<svg width="45" height="45" viewBox="0 0 45 45" fill="none" xmlns="http://www.w3.org/2000/svg">
<path d="M45 34.868C43.3631 35.2842 42.3506 34.8862 41.4422 33.5222L34.9819 24.5841L34.0481 23.3466L26.5036 33.5517C25.6416 34.7794 24.7373 35.3137 23.1286 34.8792L32.7895 21.9108L23.7952 10.1967C25.342 9.89578 26.4108 10.0491 27.36 11.4342L34.0608 20.4834L40.8108 11.4834C41.6756 10.2558 42.6052 9.78891 44.1577 10.2417L40.6702 14.8655L35.9452 21.0178C35.3827 21.7209 35.46 22.2019 35.9775 22.8811L45 34.868ZM0.01125 21.6942L0.801562 17.8073C2.95312 10.1152 11.7703 6.91875 17.8509 11.6719C21.4045 14.4675 22.2877 18.4219 22.1119 22.8516H2.08125C1.78031 30.825 7.51922 35.6372 14.8359 33.1819C17.4023 32.3198 18.9141 30.3103 19.6706 27.7959C20.0545 26.5359 20.6902 26.3391 21.8742 26.6991C21.2695 29.8434 19.9055 32.4703 17.0227 34.1142C12.7153 36.5752 6.56719 35.7792 3.33281 32.3592C1.40625 30.375 0.610313 27.8606 0.253125 25.1719C0.196875 24.7275 0.084375 24.3042 0 23.8781C0.0075 23.1506 0.01125 22.4231 0.01125 21.6956V21.6942ZM2.11781 21.1598H20.2191C20.1009 15.3942 16.5108 11.2992 11.6044 11.2641C6.21844 11.2219 2.35125 15.2198 2.11781 21.1598Z" fill="#798A78"/>
</svg>
