<svg width="45" height="45" viewBox="0 0 45 45" fill="none" xmlns="http://www.w3.org/2000/svg">
<path d="M45 34.8682C43.3631 35.2844 42.3506 34.8865 41.4422 33.5224L34.9819 24.5843L34.0481 23.3468L26.5036 33.5519C25.6416 34.7796 24.7373 35.314 23.1286 34.8794L32.7895 21.911L23.7952 10.1969C25.342 9.89601 26.4108 10.0493 27.36 11.4344L34.0608 20.4837L40.8108 11.4837C41.6756 10.256 42.6052 9.78914 44.1577 10.2419L40.6702 14.8657L35.9452 21.018C35.3827 21.7212 35.46 22.2021 35.9775 22.8813L45 34.8682ZM0.01125 21.6944L0.801562 17.8076C2.95312 10.1154 11.7703 6.91898 17.8509 11.6721C21.4045 14.4677 22.2877 18.4221 22.1119 22.8518H2.08125C1.78031 30.8252 7.51922 35.6374 14.8359 33.1821C17.4023 32.3201 18.9141 30.3105 19.6706 27.7962C20.0545 26.5362 20.6902 26.3393 21.8742 26.6993C21.2695 29.8437 19.9055 32.4705 17.0227 34.1144C12.7153 36.5754 6.56719 35.7794 3.33281 32.3594C1.40625 30.3752 0.610313 27.8609 0.253125 25.1721C0.196875 24.7277 0.084375 24.3044 0 23.8784C0.0075 23.1509 0.01125 22.4234 0.01125 21.6959V21.6944ZM2.11781 21.1601H20.2191C20.1009 15.3944 16.5108 11.2994 11.6044 11.2643C6.21844 11.2221 2.35125 15.2201 2.11781 21.1601Z" fill="#3D4E3C"/>
</svg>
