<svg width="45" height="45" viewBox="0 0 45 45" fill="none" xmlns="http://www.w3.org/2000/svg">
<g clip-path="url(#clip0_151_13)">
<path d="M6.1207 34.2962L4.4707 33.3422L22.8727 1.47021L24.5227 2.42421L6.1207 34.2962Z" fill="#E10098"/>
<path d="M4.09131 30.7949H40.8983V32.7029H4.09131V30.7949Z" fill="#E10098"/>
<path d="M23.2297 42.4981L4.82019 31.8691L5.77419 30.2191L24.1837 40.8481L23.2297 42.4981ZM39.2227 14.7931L20.8117 4.16563L21.7657 2.51562L40.1752 13.1446L39.2227 14.7931Z" fill="#E10098"/>
<path d="M5.77871 14.7869L4.82471 13.1369L23.2507 2.50488L24.2047 4.15488L5.77871 14.7869Z" fill="#E10098"/>
<path d="M38.8838 34.2958L20.4788 2.4208L22.1288 1.4668L40.5338 33.3418L38.8838 34.2958ZM5.55078 11.8708H7.45878V33.1288H5.55078V11.8708ZM37.5428 11.8708H39.4508V33.1288H37.5428V11.8708Z" fill="#E10098"/>
<path d="M22.9057 41.6895L22.0732 40.2465L38.0857 31.002L38.9182 32.445L22.9057 41.6895Z" fill="#E10098"/>
<path d="M41.9783 33.7502C41.4452 34.6708 40.5691 35.3425 39.5418 35.6183C38.5144 35.8941 37.4197 35.7515 36.4973 35.2217C35.5768 34.6887 34.905 33.8126 34.6292 32.7852C34.3534 31.7579 34.496 30.6631 35.0258 29.7407C35.5588 28.8202 36.4349 28.1485 37.4623 27.8727C38.4896 27.5969 39.5844 27.7395 40.5068 28.2692C42.4373 29.3837 43.0928 31.8317 41.9768 33.7502M9.96378 15.2612C9.43074 16.1817 8.5546 16.8535 7.52727 17.1293C6.49994 17.4051 5.40517 17.2625 4.48278 16.7327C3.56185 16.1997 2.88982 15.3233 2.61399 14.2956C2.33816 13.2679 2.48102 12.1728 3.01128 11.2502C3.54431 10.3297 4.42045 9.65797 5.44778 9.38216C6.47511 9.10635 7.56988 9.24895 8.49228 9.77873C9.4128 10.3118 10.0845 11.1879 10.3603 12.2152C10.6362 13.2426 10.4936 14.3388 9.96378 15.2612ZM3.02328 33.7502C2.4935 32.8278 2.3509 31.7331 2.62671 30.7057C2.90252 29.6784 3.57425 28.8023 4.49478 28.2692C5.41717 27.7395 6.51194 27.5969 7.53927 27.8727C8.5666 28.1485 9.44274 28.8202 9.97578 29.7407C10.5056 30.6631 10.6482 31.7579 10.3723 32.7852C10.0965 33.8126 9.4248 34.6887 8.50428 35.2217C6.57378 36.3242 4.12428 35.6702 3.02328 33.7502ZM35.0378 15.2627C34.508 14.3403 34.3654 13.2456 34.6412 12.2182C34.917 11.1909 35.5888 10.3148 36.5093 9.78173C37.4317 9.25195 38.5264 9.10935 39.5538 9.38516C40.5811 9.66097 41.4572 10.3327 41.9903 11.2532C42.5201 12.1756 42.6627 13.2704 42.3868 14.2977C42.111 15.3251 41.4393 16.2012 40.5188 16.7342C39.5964 17.264 38.5016 17.4066 37.4743 17.1308C36.447 16.855 35.5708 16.1832 35.0378 15.2627ZM22.5008 45.0002C21.7074 45.0002 20.9319 44.765 20.2722 44.3242C19.6126 43.8834 19.0985 43.2568 18.795 42.5238C18.4914 41.7908 18.4121 40.9843 18.567 40.2062C18.7218 39.4281 19.104 38.7134 19.6651 38.1525C20.2262 37.5916 20.941 37.2097 21.7192 37.0551C22.4973 36.9005 23.3039 36.9802 24.0368 37.284C24.7696 37.5878 25.396 38.1021 25.8365 38.7619C26.2771 39.4217 26.5121 40.1974 26.5118 40.9907C26.509 42.0535 26.0855 43.072 25.3338 43.8233C24.5822 44.5747 23.5636 44.9979 22.5008 45.0002ZM22.5008 8.02223C21.9738 8.02302 21.4519 7.91981 20.9649 7.71852C20.4779 7.51722 20.0354 7.22181 19.6628 6.84919C19.2902 6.47658 18.9948 6.0341 18.7935 5.5471C18.5922 5.06011 18.489 4.53818 18.4898 4.01123C18.4898 2.94764 18.9123 1.92762 19.6644 1.17555C20.4164 0.423484 21.4364 0.000976563 22.5 0.000976562C23.5636 0.000976563 24.5836 0.423484 25.3357 1.17555C26.0878 1.92762 26.5103 2.94764 26.5103 4.01123C26.5109 4.53793 26.4076 5.05957 26.2063 5.5463C26.005 6.03302 25.7097 6.47526 25.3372 6.84769C24.9648 7.22013 24.5226 7.51544 24.0358 7.71673C23.5491 7.91801 23.0275 8.02282 22.5008 8.02223Z" fill="#E10098"/>
</g>
<defs>
<clipPath id="clip0_151_13">
<rect width="45" height="45" fill="white"/>
</clipPath>
</defs>
</svg>
