<svg width="45" height="45" viewBox="0 0 45 45" fill="none" xmlns="http://www.w3.org/2000/svg">
<path d="M6.12004 34.2958L4.47002 33.3418L22.8723 1.46927L24.5224 2.42329L6.12004 34.2958Z" fill="#798A78"/>
<path d="M4.09051 30.7948H40.8981V32.7028H4.09051V30.7948Z" fill="#798A78"/>
<path d="M23.2293 42.498L4.81952 31.8688L5.77354 30.2188L24.1833 40.8479L23.2293 42.498ZM39.2226 14.7925L20.8113 4.16482L21.7653 2.51479L40.1751 13.144L39.2226 14.7925Z" fill="#798A78"/>
<path d="M5.77804 14.7865L4.82402 13.1365L23.2503 2.50429L24.2043 4.15432L5.77804 14.7865Z" fill="#798A78"/>
<path d="M38.8836 34.2958L20.4783 2.42029L22.1283 1.46627L40.5336 33.3418L38.8836 34.2958ZM5.55003 11.8704H7.45807V33.1288H5.55003V11.8704ZM37.5426 11.8704H39.4506V33.1288H37.5426V11.8704Z" fill="#798A78"/>
<path d="M22.9053 41.6894L22.0728 40.2464L38.0856 31.0018L38.9181 32.4448L22.9053 41.6894Z" fill="#798A78"/>
<path d="M41.9781 33.7498C41.4451 34.6703 40.5689 35.3421 39.5416 35.6179C38.5143 35.8937 37.4195 35.7511 36.4971 35.2213C35.5765 34.6883 34.9048 33.8121 34.629 32.7848C34.3531 31.7574 34.4957 30.6627 35.0255 29.7402C35.5586 28.8197 36.4347 28.148 37.4621 27.8721C38.4894 27.5963 39.5842 27.7389 40.5066 28.2687C42.4372 29.3832 43.0927 31.8313 41.9766 33.7498M9.96311 15.2605C9.43007 16.181 8.55391 16.8528 7.52656 17.1286C6.49921 17.4044 5.40443 17.2618 4.48201 16.732C3.56107 16.199 2.88903 15.3226 2.6132 14.2948C2.33736 13.2671 2.48023 12.172 3.01049 11.2494C3.54353 10.3289 4.41969 9.65715 5.44703 9.38134C6.47438 9.10552 7.56917 9.24813 8.49158 9.77791C9.41212 10.311 10.0839 11.1871 10.3597 12.2145C10.6355 13.2418 10.4929 14.3381 9.96311 15.2605ZM3.02249 33.7498C2.4927 32.8274 2.3501 31.7326 2.62592 30.7053C2.90173 29.6779 3.57348 28.8018 4.49402 28.2687C5.41643 27.7389 6.51122 27.5963 7.53856 27.8721C8.56591 28.148 9.44207 28.8197 9.97511 29.7402C10.5049 30.6627 10.6475 31.7574 10.3717 32.7848C10.0959 33.8121 9.42412 34.6883 8.50358 35.2213C6.57305 36.3239 4.12351 35.6698 3.02249 33.7498ZM35.0375 15.262C34.5077 14.3396 34.3651 13.2448 34.641 12.2175C34.9168 11.1901 35.5885 10.314 36.5091 9.78091C37.4315 9.25113 38.5263 9.10852 39.5536 9.38434C40.581 9.66015 41.4571 10.3319 41.9901 11.2524C42.5199 12.1749 42.6625 13.2696 42.3867 14.297C42.1109 15.3243 41.4392 16.2005 40.5186 16.7335C39.5962 17.2633 38.5014 17.4059 37.4741 17.1301C36.4467 16.8543 35.5706 16.1825 35.0375 15.262ZM22.5003 45C21.7069 45 20.9314 44.7647 20.2717 44.3239C19.6121 43.8831 19.098 43.2566 18.7944 42.5236C18.4909 41.7905 18.4115 40.984 18.5664 40.2059C18.7213 39.4278 19.1035 38.713 19.6646 38.1522C20.2257 37.5913 20.9405 37.2094 21.7187 37.0548C22.4969 36.9002 23.3034 36.9798 24.0363 37.2836C24.7692 37.5874 25.3956 38.1018 25.8361 38.7616C26.2767 39.4214 26.5117 40.1971 26.5114 40.9904C26.5086 42.0532 26.0851 43.0717 25.3334 43.8231C24.5818 44.5745 23.5631 44.9976 22.5003 45ZM22.5003 8.02138C21.9734 8.02217 21.4514 7.91896 20.9644 7.71767C20.4774 7.51637 20.0349 7.22095 19.6623 6.84833C19.2897 6.47571 18.9943 6.03322 18.793 5.54622C18.5917 5.05922 18.4885 4.53728 18.4893 4.01032C18.4893 2.94671 18.9118 1.92667 19.6638 1.17459C20.4159 0.422514 21.436 0 22.4996 0C23.5632 0 24.5832 0.422514 25.3353 1.17459C26.0874 1.92667 26.5099 2.94671 26.5099 4.01032C26.5105 4.53703 26.4072 5.05868 26.2059 5.54541C26.0046 6.03214 25.7093 6.47439 25.3368 6.84683C24.9644 7.21927 24.5221 7.51459 24.0354 7.71588C23.5487 7.91717 23.027 8.02198 22.5003 8.02138Z" fill="#798A78"/>
</svg>
