<svg xmlns="http://www.w3.org/2000/svg" version="1.1" xmlns:xlink="http://www.w3.org/1999/xlink" xmlns:svgjs="http://svgjs.com/svgjs" width="512" height="512" x="0" y="0" viewBox="0 0 453.356 453.356" style="enable-background:new 0 0 512 512" xml:space="preserve" class=""><g><path d="M363.265 0H90.091a3.5 3.5 0 0 0-3.5 3.5v446.356a3.5 3.5 0 0 0 3.5 3.5h273.174a3.5 3.5 0 0 0 3.5-3.5V3.5a3.5 3.5 0 0 0-3.5-3.5zM245.329 433.217l8.3-2.176 8.531 15.315h-14.705l-2.126-13.139zm13.095-7.952a3.5 3.5 0 0 0-3.945-1.683l-14 3.67a3.5 3.5 0 0 0-2.567 3.944l2.453 15.16h-7.011l-2.075-13.905a3.5 3.5 0 0 0-3.462-2.983h-23.34a3.5 3.5 0 0 0-3.432 2.815l-2.808 14.073h-7.308l2.453-15.16a3.5 3.5 0 0 0-2.567-3.944l-14-3.67a3.499 3.499 0 0 0-3.945 1.683l-11.748 21.092h-10.057l19.848-28.246c13.691 6.549 28.839 9.998 44.005 9.998 7.026 0 14.075-.731 20.95-2.176a102.008 102.008 0 0 0 22.914-7.75l17.618 28.174h-6.226l-11.75-21.092zm-32.15 21.091h-20.901l1.973-9.889h17.453l1.475 9.889zm-42.437 0h-14.704l8.531-15.315 8.3 2.176-2.127 13.139zm24.187-426.218-8.3 2.176L191.2 7h14.705l2.119 13.138zm-13.097 7.952a3.5 3.5 0 0 0 3.946 1.684l14-3.67a3.502 3.502 0 0 0 2.568-3.943L212.996 7h7.005l2.083 13.906a3.5 3.5 0 0 0 3.461 2.981h23.33a3.502 3.502 0 0 0 3.433-2.815L255.116 7h7.31l-2.446 15.16a3.5 3.5 0 0 0 2.567 3.943l14 3.67a3.503 3.503 0 0 0 3.947-1.684L292.232 7h10.064L282.44 35.246c-13.691-6.549-28.84-9.998-44.006-9.998-7.018 0-14.062.731-20.939 2.175a102.13 102.13 0 0 0-22.923 7.751L176.962 7h6.227l11.738 21.09zM227.079 7h20.899l-1.973 9.888H228.56L227.079 7zm42.437 0h14.704l-8.523 15.313-8.3-2.176L269.516 7zm20.787 131.932 2.778-4.464 66.685 43.34v6.276l-69.463-45.152zm9.352 33.245c1.979 15.763 7.086 30.84 14.821 44.41a107.342 107.342 0 0 0-29.832-20.289l15.011-24.121zm-.896-11.808-20.663 33.204a106.613 106.613 0 0 0-18.586-5.155l27.095-43.541 12.206 7.934a122.16 122.16 0 0 0-.094 4.487c-.001 1.103.016 2.105.042 3.071zm15.61 151.376a130.524 130.524 0 0 1-12.289-10.127c.295-2.447.451-4.949.451-7.47 0-25.369-14.927-47.759-38.179-57.551-.111-.427-.222-.848-.331-1.291-.544-2.167-1.788-7.988-2.06-10.254-.14-1.165-.309-2.573-.509-4.194a76.72 76.72 0 0 1 37.889 25.158c11.014 13.544 17.08 30.638 17.08 48.132a76.39 76.39 0 0 1-2.052 17.597zm-97.905-36.644a49.405 49.405 0 0 1-1.677-.947c-5.059-2.946-9.039-7.579-11.213-13.058a26.185 26.185 0 0 1-1.604-6.007 1021.36 1021.36 0 0 1-2.483-18.357c-.498-3.877-.877-7.018-1.145-9.246-.331-2.86-1.713-9.116-2.209-11.128a135.419 135.419 0 0 0-.799-3.082c-4.578-16.932-11.649-32.271-21.035-45.69 13.811-1.997 39.439-2.825 64.267 11.618a26.352 26.352 0 0 1 11.21 13.058 26.132 26.132 0 0 1 1.605 6.006c.911 6.324 1.746 12.497 2.482 18.357.499 3.878.877 7.018 1.146 9.261.341 2.835 1.729 9.163 2.217 11.107.184.748.8 3.1.8 3.1 4.583 16.94 11.653 32.275 21.033 45.678-13.43 1.939-38.231 2.792-62.595-10.67zm44.339 89.734a12.534 12.534 0 0 0-2.349-2.257 12.41 12.41 0 0 0-10.14-2.129l6.1-12.071a5.452 5.452 0 0 1 6.5-2.749c2.259.7 3.837 2.837 3.837 5.197 0 .302-.024.602-.071.895a4.58 4.58 0 0 1-4.219 2.815 4.67 4.67 0 0 1-1.567-.279c-1.817-.662-3.824.279-4.483 2.097s.279 3.824 2.097 4.483c1.279.464 2.609.699 3.954.699.86 0 1.703-.101 2.52-.284l-2.179 3.583zm-27.99 54.564a95.248 95.248 0 0 1-14 1.621l22.571-43.552a11.544 11.544 0 0 0 3.273 3.304 3.5 3.5 0 0 0 3.883-5.825 4.54 4.54 0 0 1-1.948-2.917 4.539 4.539 0 0 1 .566-3.241 5.44 5.44 0 0 1 7.144-.576c2.156 1.589 2.843 4.477 1.65 6.829l-23.139 44.357zm-16.747-136.595c16.458 8.376 32.889 10.875 46.159 11.041v23.623h-67.731l21.572-34.664zm-25.928 41.664h72.087v14.276a12.408 12.408 0 0 0-11.351 2.9h-9.892a11.256 11.256 0 0 0-10.197 6.533l-1.524 3.313c-6.657-10.615-18.455-17.355-31.304-17.355h-12.134c-.599 0-1.189.047-1.772.114l6.087-9.781zm47.007 26.635a4.236 4.236 0 0 1 3.838-2.459h5.453l-6.167 12.203c-.449-.452-.93-.88-1.457-1.269a12.51 12.51 0 0 0-4.596-2.113l2.929-6.362zm-76.872-32.213-66.682-43.334v-6.283l69.462 45.151-2.78 4.466zm-6.576-37.705c-1.979-15.768-7.088-30.851-14.827-44.426a107.358 107.358 0 0 0 29.841 20.298l-15.014 24.128zm13.055 27.295-12.21-7.937c.056-1.519.094-3.025.094-4.485 0-1.091-.017-2.092-.043-3.063l20.668-33.211a106.703 106.703 0 0 0 18.586 5.156l-27.095 43.54zm-27.765-166.869a128.498 128.498 0 0 1 12.29 10.132 62.421 62.421 0 0 0-.451 7.465c0 25.37 14.928 47.761 38.182 57.554.11.426 2.125 9.312 2.383 11.543.14 1.164.309 2.571.509 4.191-14.774-4.315-28.089-13.113-37.883-25.156-11.015-13.544-17.081-30.638-17.081-48.132a76.34 76.34 0 0 1 2.051-17.597zm26.389 25.614c9.061 11.84 16.102 25.434 20.997 40.492-17.555-9.678-28.548-27.996-28.548-48.509 0-.296.012-.591.016-.886a124.781 124.781 0 0 1 7.535 8.903zm27.178-78.704a12.53 12.53 0 0 0 2.349 2.256 12.44 12.44 0 0 0 7.401 2.447c.921 0 1.838-.111 2.737-.315l-6.097 12.067a5.455 5.455 0 0 1-6.501 2.749c-2.259-.7-3.836-2.837-3.836-5.197 0-.304.024-.604.071-.894a4.578 4.578 0 0 1 4.218-2.816c.52 0 1.063.097 1.57.28a3.5 3.5 0 1 0 2.379-6.582 11.559 11.559 0 0 0-3.95-.698c-.86 0-1.703.101-2.519.284l2.178-3.581zm27.988-54.563a95.209 95.209 0 0 1 14-1.622l-22.57 43.552a11.54 11.54 0 0 0-3.272-3.304 3.501 3.501 0 0 0-3.884 5.825 4.542 4.542 0 0 1 1.949 2.917 4.534 4.534 0 0 1-.567 3.241 5.439 5.439 0 0 1-7.143.576c-2.156-1.589-2.843-4.477-1.651-6.828l23.138-44.357zm16.748 136.594c-16.445-8.373-32.877-10.882-46.159-11.046v-23.619h67.729l-21.57 34.665zm25.925-41.664H191.13v-14.27c.987.241 1.981.363 2.963.363 3.112 0 6.103-1.175 8.386-3.269h9.893c4.369 0 8.372-2.564 10.198-6.533l1.524-3.313c6.656 10.615 18.454 17.355 31.304 17.355h12.134c.598 0 1.186-.046 1.769-.114l-6.086 9.781zm-47.004-26.635a4.236 4.236 0 0 1-3.838 2.459h-5.453l6.166-12.203c.449.451.93.88 1.457 1.268a12.52 12.52 0 0 0 4.592 2.122l-2.924 6.354zm71.773 183.877c-9.065-11.834-16.11-25.436-21.002-40.491 17.555 9.678 28.548 27.994 28.548 48.508 0 .292-.012.583-.016.875a126.784 126.784 0 0 1-7.53-8.892zm-34.292-101.615a33.375 33.375 0 0 0-10.297-10.525l38.029-61.116 11.997 7.8-39.729 63.841zm23.105-108.014a4.222 4.222 0 0 1-4.565-1.709 3.505 3.505 0 0 0-5.344-.498c-1.246 1.214-1.329 3.201-.318 4.616a11.319 11.319 0 0 0 9.191 4.721c.928 0 1.863-.115 2.786-.354l.146-.038c-.079.228-1.314 9.63-1.314 9.63l-7.397.017a3.5 3.5 0 0 0 .008 7h.008l6.487-.015-.642 5.033a8.393 8.393 0 0 1-8.31 7.316h-12.134c-11.792 0-22.487-7.007-27.281-17.645a12.594 12.594 0 0 0 3.106-2.521c.106-.119.205-.246.295-.379a11.498 11.498 0 0 0 1.755-8.706 11.5 11.5 0 0 0-4.932-7.387 3.501 3.501 0 0 0-3.884 5.824 4.54 4.54 0 0 1 1.948 2.918 4.54 4.54 0 0 1-.566 3.241 5.439 5.439 0 0 1-7.143.575c-2.156-1.589-2.843-4.477-1.647-6.837l25.374-48.962a95.33 95.33 0 0 1 21.749 3.483c-1.823.225-4.287.631-6.879 1.358-7.354 2.064-12.173 5.763-13.934 10.692a3.501 3.501 0 0 0 6.592 2.356c2.061-5.769 13.621-7.521 17.51-7.681a3.498 3.498 0 0 0 3.358-3.632 3.534 3.534 0 0 0-.21-1.029 94.727 94.727 0 0 1 8.975 3.75l-3.016 14.01c-.15.7-.083 1.43.194 2.09l7.102 16.936-7.068 1.827zm-80.914-34.163a95.303 95.303 0 0 1 15.611-6.17s-20.491 39.33-20.577 39.522a11.64 11.64 0 0 0-2.434-2.179 3.5 3.5 0 1 0-3.885 5.823 4.545 4.545 0 0 1 1.949 2.92 4.529 4.529 0 0 1-.567 3.239 5.44 5.44 0 0 1-7.143.577 5.447 5.447 0 0 1-1.633-6.866l18.679-36.866zm-13.837 63.464a12.342 12.342 0 0 0 2.085 4.251v49.574c-1.686.081-3.291.197-4.821.334v-49.828c.229-.302.462-.6.667-.928l2.069-3.403zm-9.736 55.006a99.89 99.89 0 0 0-2.736.456c-.629-.793-1.166-1.592-1.814-2.372v-27.759c0 .056-.369-.834-1.025-1.49l-7.371-7.371v-11.407l.512-.173a12.47 12.47 0 0 0 4.753 3.471c1.555.643 3.17.951 4.764.951.988 0 1.966-.128 2.917-.359v46.053zm-18.921-34.612 7.371 7.371v17.637a129.729 129.729 0 0 0-3.349-3.329c-2.151-2.067-4.414-4.054-6.73-5.995v-27.807c.575-.23 1.135-.45 1.684-.663v10.312c0 .928.368 1.818 1.024 2.474zm-9.709 10.159a138.865 138.865 0 0 0-4.826-3.384 142.905 142.905 0 0 0-11.122-6.734c4.567-3.507 10.387-6.622 15.948-9.17v19.288zm-10.848 1.04a83.23 83.23 0 0 0-2.897 21.813c0 19.099 6.623 37.76 18.65 52.548 11.328 13.931 26.975 23.887 44.265 28.254a1054.91 1054.91 0 0 0 2.191 16.077c.097.675.216 1.346.354 2.011-47.459-8.508-82.61-50.089-82.61-98.89 0-10.384 1.578-20.573 4.677-30.35a137.52 137.52 0 0 1 15.37 8.537zm-13.822 73.44a119.522 119.522 0 0 0-25.419-19.244v-71.448c4.124 1.047 10.237 2.871 17.449 5.857a107.14 107.14 0 0 0-5.254 33.208 107.07 107.07 0 0 0 13.224 51.627zm28.558 81.334c.045 1.21.067 2.48.067 3.885l-15.398-10.009c-1.701-26.682-16.005-50.764-38.646-65.075v-21.26c32.17 19.711 52.696 54.599 53.977 92.459zm-22.836-11.003-31.141-20.242v-31.516c17.121 12.275 28.349 30.944 31.141 51.758zM110.875 326.2l-10.12 4.337a5.434 5.434 0 0 1-1.437-1.365l11.404-4.275.153 1.303zm-17.284 38.177c1.845 3.576 4.377 7.36 6.881 10.753l-6.881 6.881v-17.634zm0-17.532V333.22a12.453 12.453 0 0 0 3.564 3.331v3.838c0 .85.313 1.625.821 2.235a15.588 15.588 0 0 0-4.385 4.221zm5.075-27.15 11.047-3.398.169 1.44-11.376 4.265.16-2.307zm10.042-11.964.175 1.496-9.657 2.97a5.435 5.435 0 0 1 2.729-3.767l4.239-2.333 2.514 1.634zm-10.128-5.432a12.413 12.413 0 0 0-4.989 5.092v-9.487l5.948 3.866-.959.529zm-4.989 86.305 6.881 6.882c-2.504 3.392-5.036 7.176-6.881 10.751v-17.633zm12.731 10.747c5.857 7.896 8.5 13.466 8.5 15.602 0 4.687-3.813 8.5-8.5 8.5s-8.5-3.813-8.5-8.5c0-2.136 2.644-7.706 8.5-15.602zm-6.128-14.043 6.128-6.128 6.128 6.128-6.128 6.129-6.128-6.129zm-2.372-29.645c0-4.687 3.813-8.5 8.5-8.5s8.5 3.813 8.5 8.5c0 2.134-2.643 7.705-8.5 15.602-5.857-7.898-8.5-13.468-8.5-15.602zm11.775-18.08-5.441-.43v-.458l11.879-5.091a3.5 3.5 0 0 0 2.097-3.625l-1.793-15.289 14.543 9.454-3.952 7.882a9.677 9.677 0 0 1-5.49 4.823l-5.48 1.912a15.412 15.412 0 0 1-6.363.822zm-16.006-48.027v-5.652l62.983 40.931-2.509 4.031-60.474-39.31zm106.073-20.715a33.437 33.437 0 0 0 10.295 10.526l-38.03 61.111-11.994-7.797 39.729-63.84zM176.56 376.855a4.222 4.222 0 0 1 4.564 1.707 3.497 3.497 0 0 0 4.87.889 3.5 3.5 0 0 0 .888-4.869c-2.675-3.869-7.526-5.681-12.072-4.504l-.145.032c.079-.227 1.313-9.625 1.313-9.625l7.397-.017a3.5 3.5 0 0 0-.008-7h-.008l-6.487.015.642-5.033a8.395 8.395 0 0 1 8.31-7.316h12.134c11.796 0 22.495 7.012 27.286 17.657a12.52 12.52 0 0 0-3.11 2.509 3.458 3.458 0 0 0-.295.378 11.499 11.499 0 0 0-1.756 8.708 11.496 11.496 0 0 0 4.932 7.386 3.501 3.501 0 0 0 3.883-5.825 4.54 4.54 0 0 1-1.948-2.917 4.534 4.534 0 0 1 .567-3.241 5.439 5.439 0 0 1 7.143-.576c2.156 1.589 2.843 4.477 1.647 6.838l-25.375 48.962a95.265 95.265 0 0 1-21.754-3.484c1.824-.225 4.29-.631 6.884-1.359 7.354-2.063 12.172-5.762 13.933-10.691a3.5 3.5 0 0 0-6.592-2.356c-2.061 5.769-13.621 7.521-17.509 7.681a3.499 3.499 0 0 0-3.359 3.632c.014.364.098.706.214 1.032a94.679 94.679 0 0 1-8.978-3.751l3.017-14.012c.151-.7.083-1.43-.194-2.09l-7.102-16.936 7.068-1.824zm80.914 34.161a95.324 95.324 0 0 1-15.612 6.173s20.49-39.331 20.576-39.524c.697.826 1.51 1.563 2.435 2.18a3.5 3.5 0 0 0 3.883-5.825 4.54 4.54 0 0 1-1.948-2.918 4.54 4.54 0 0 1 .566-3.241 5.438 5.438 0 0 1 7.144-.575 5.446 5.446 0 0 1 1.632 6.865l-18.676 36.865zm13.837-63.462a12.356 12.356 0 0 0-2.085-4.252v-49.573c1.684-.08 3.293-.194 4.82-.331v49.79c-.234.307-2.735 4.366-2.735 4.366zm9.735-55.003c.978-.15 1.896-.304 2.744-.458.63.794 1.157 1.592 1.806 2.372v27.68c0 .022.369.912 1.025 1.568l7.371 7.371v11.407l-.512.173a12.47 12.47 0 0 0-4.753-3.471 12.404 12.404 0 0 0-7.682-.596v-46.046zm18.921 34.608-7.371-7.371v-17.651c1.049 1.08 7.767 7.397 10.08 9.334v27.811c-.575.23-1.135.45-1.684.663v-10.311a3.5 3.5 0 0 0-1.025-2.475zm9.709-10.16a140.2 140.2 0 0 0 4.82 3.386 142.665 142.665 0 0 0 11.125 6.735c-4.566 3.506-10.385 6.62-15.945 9.168v-19.289zm10.846-1.035a83.245 83.245 0 0 0 2.898-21.817c0-19.099-6.623-37.76-18.649-52.548-11.33-13.932-26.978-23.889-44.27-28.255a1053.4 1053.4 0 0 0-2.192-16.076 33.01 33.01 0 0 0-.354-2.011c47.461 8.505 82.614 50.088 82.614 98.89a100.22 100.22 0 0 1-4.677 30.353 137.62 137.62 0 0 1-15.37-8.536zm13.826-73.44a119.461 119.461 0 0 0 25.418 19.239v71.458c-4.313-1.094-10.361-2.924-17.451-5.864a107.148 107.148 0 0 0 5.255-33.21 107.09 107.09 0 0 0-13.222-51.623zm-28.565-81.339a102.75 102.75 0 0 1-.067-3.885l15.398 10.009c1.701 26.684 16.007 50.771 38.652 65.086v21.249c-32.174-19.71-52.702-54.596-53.983-92.459zm22.836 11.003 31.146 20.246v31.523c-17.124-12.281-28.354-30.954-31.146-51.769zm-31.839-43.665 2.51-4.034 60.475 39.317v5.652l-62.985-40.935zm62.985-8.386a12.46 12.46 0 0 0-3.565-3.332v-3.838c0-.85-.313-1.625-.821-2.234a15.63 15.63 0 0 0 4.387-4.223v13.627zm-8.367 24.788-4.242 2.336-2.508-1.63-.176-1.502 9.657-2.97a5.438 5.438 0 0 1-2.731 3.766zm-8.918-17.77 10.121-4.337a5.434 5.434 0 0 1 1.437 1.365l-11.405 4.275-.153-1.303zm12.211 6.505-11.048 3.398-.169-1.44 11.377-4.265-.16 2.307zm5.074-44.681c-1.845-3.576-4.378-7.36-6.882-10.753l6.882-6.883v17.636zm0-24.227-6.883-6.882c2.505-3.393 5.038-7.179 6.883-10.755v17.637zm-12.731-10.747c-5.857-7.897-8.5-13.468-8.5-15.602 0-4.687 3.813-8.5 8.5-8.5s8.5 3.813 8.5 8.5c0 2.133-2.644 7.703-8.5 15.602zm6.128 14.043-6.128 6.129-6.129-6.129 6.129-6.128 6.128 6.128zm2.372 29.644c0 4.687-3.813 8.5-8.5 8.5s-8.5-3.813-8.5-8.5c0-2.135 2.644-7.705 8.5-15.602 5.856 7.897 8.5 13.469 8.5 15.602zm-11.775 18.08 5.441.43v.458l-11.879 5.091a3.5 3.5 0 0 0-2.098 3.625l1.794 15.293-14.544-9.456 3.952-7.883a9.681 9.681 0 0 1 5.49-4.824l5.481-1.912a15.437 15.437 0 0 1 6.363-.822zm10.052 35.815.964-.531a12.414 12.414 0 0 0 4.99-5.094v9.495l-5.954-3.87zm5.954-122.002c-2.802-4.032-7.46-6.682-12.731-6.682-8.547 0-15.5 6.953-15.5 15.5 0 5.141 4.889 13.017 9.65 19.467l-7.703 7.703a3.499 3.499 0 0 0 0 4.949l7.703 7.704c-4.762 6.449-9.65 14.323-9.65 19.466 0 4.693 2.104 8.896 5.409 11.74a22.37 22.37 0 0 0-1.85.552l-5.482 1.912a16.642 16.642 0 0 0-9.442 8.296l-3.6 7.181-33.738-21.935 2.491-19.513 5.924-6.517a3.501 3.501 0 0 0 .638-3.708l-8.24-19.652 3.209-14.904 24-34.144h48.912v22.585zM168.707 7l20.564 32.899-18.31 36.141a12.426 12.426 0 0 0 3.725 15.666 12.464 12.464 0 0 0 6.286 2.39l-6.953 11.436a5.458 5.458 0 0 1-10.093-2.895c0-.471.057-.927.169-1.359a4.584 4.584 0 0 1 4.051-2.44c.668 0 1.322.147 1.944.439a3.499 3.499 0 1 0 2.972-6.338 11.515 11.515 0 0 0-4.917-1.102c-4.503 0-8.627 2.636-10.508 6.714a3.65 3.65 0 0 0-.165.429 12.325 12.325 0 0 0-.436 5.273c-7.433 2.509-25.593 9.268-36.087 18.514a147.295 147.295 0 0 0-4.151-1.922c-9.992-4.409-18.394-6.772-23.208-7.911V7h75.117zM93.591 423.771c2.802 4.032 7.46 6.682 12.731 6.682 8.547 0 15.5-6.953 15.5-15.5 0-5.144-4.889-13.018-9.65-19.466l7.704-7.704a3.499 3.499 0 0 0 0-4.949l-7.703-7.703c4.761-6.45 9.65-14.325 9.65-19.467 0-4.69-2.102-8.891-5.403-11.735.62-.159 1.236-.344 1.846-.557l5.481-1.912a16.636 16.636 0 0 0 9.442-8.296l3.6-7.18 33.739 21.931-2.491 19.515-5.924 6.517a3.501 3.501 0 0 0-.638 3.708l8.241 19.652-3.206 14.894-24.001 34.156H93.591v-22.586zm191.063 22.585-20.571-32.896 18.312-36.145a12.423 12.423 0 0 0-3.724-15.664 12.456 12.456 0 0 0-6.287-2.391l6.955-11.437a5.458 5.458 0 0 1 10.092 2.895c0 .471-.057.927-.169 1.359a4.582 4.582 0 0 1-4.051 2.44 4.557 4.557 0 0 1-1.947-.439 3.5 3.5 0 1 0-2.966 6.34c1.56.729 3.213 1.1 4.914 1.1 4.502 0 8.627-2.636 10.508-6.714.064-.14.12-.283.166-.431a12.353 12.353 0 0 0 .435-5.271c7.431-2.508 25.59-9.267 36.084-18.513a144.36 144.36 0 0 0 4.149 1.92c9.801 4.327 18.036 6.693 23.213 7.917v105.93h-75.113z" fill="#ffffff" data-original="#000000" class=""></path><path d="M251.733 90.803c-.461-.242-.529-.569-.538-.828-.036-1.105 1.152-3.147 4.619-5.267a3.5 3.5 0 0 0-3.651-5.973c-7.113 4.347-8.044 9.05-7.965 11.467.094 2.899 1.694 5.44 4.279 6.798 1.308.687 2.759 1.025 4.265 1.025 2.138 0 4.383-.684 6.472-2.026 8.003-5.146 14.317-4.805 14.485-4.789a3.502 3.502 0 0 0 3.774-3.171 3.499 3.499 0 0 0-3.168-3.803c-.353-.036-8.651-.699-18.877 5.874-1.662 1.068-3.03 1.041-3.695.693zM269.919 44.515l-21.333 9.333a3.502 3.502 0 0 0 .717 6.639l20 4a3.5 3.5 0 0 0 1.373-6.863l-.559-.112.868-5.821 1.741-.762a3.501 3.501 0 0 0-2.807-6.414zm-5.692 11.818-2.646-.529 2.915-1.275-.269 1.804zM224.156 144.055h-3.333v-3.333a3.5 3.5 0 1 0-7 0v3.333h-3.333a3.5 3.5 0 1 0 0 7h3.333v3.333a3.5 3.5 0 1 0 7 0v-3.333h3.333a3.5 3.5 0 1 0 0-7z" fill="#ffffff" data-original="#000000" class=""></path><circle cx="201.322" cy="123.388" r="3.167" fill="#ffffff" data-original="#000000" class=""></circle><circle cx="215.903" cy="123.388" r="3.167" fill="#ffffff" data-original="#000000" class=""></circle><circle cx="230.484" cy="123.388" r="3.167" fill="#ffffff" data-original="#000000" class=""></circle><circle cx="245.065" cy="123.388" r="3.167" fill="#ffffff" data-original="#000000" class=""></circle><circle cx="259.646" cy="123.388" r="3.167" fill="#ffffff" data-original="#000000" class=""></circle><path d="M227.322 213.555h15.667a3.5 3.5 0 0 0 3.5-3.5v-16.333c0-6.25-5.084-11.334-11.334-11.334-6.249 0-11.333 5.084-11.333 11.334v16.333a3.5 3.5 0 0 0 3.5 3.5zm3.5-19.833c0-2.39 1.943-4.334 4.333-4.334s4.334 1.944 4.334 4.334v12.833h-8.667v-12.833zM219.822 210.055v-28.833c0-6.25-5.084-11.334-11.333-11.334-6.25 0-11.333 5.084-11.333 11.334v28.833a3.5 3.5 0 0 0 3.5 3.5h15.667a3.5 3.5 0 0 0 3.499-3.5zm-7-3.5h-8.667v-25.333a4.338 4.338 0 0 1 4.333-4.334 4.338 4.338 0 0 1 4.333 4.334v25.333zM201.623 362.553c.461.242.529.569.538.828.036 1.105-1.152 3.148-4.619 5.267a3.5 3.5 0 0 0 3.651 5.973c7.113-4.347 8.043-9.05 7.965-11.467-.094-2.899-1.694-5.44-4.28-6.798-3.162-1.661-7.176-1.287-10.735 1.001-8.004 5.146-14.317 4.803-14.485 4.789-1.91-.144-3.6 1.256-3.775 3.171a3.5 3.5 0 0 0 3.169 3.803c.348.034 8.648.7 18.876-5.874 1.662-1.069 3.03-1.042 3.695-.693zM182.036 409.135c.468 0 .944-.095 1.401-.294l21.333-9.333a3.501 3.501 0 0 0-.716-6.639l-20-4a3.499 3.499 0 1 0-1.373 6.863l.558.112-.868 5.822-1.74.761a3.5 3.5 0 0 0 1.405 6.708zm7.093-12.113 2.646.529-2.915 1.275.269-1.804zM229.2 309.301h3.334v3.333a3.5 3.5 0 1 0 7 0v-3.333h3.333a3.5 3.5 0 1 0 0-7h-3.333v-3.333a3.5 3.5 0 1 0-7 0v3.333H229.2a3.5 3.5 0 1 0 0 7z" fill="#ffffff" data-original="#000000" class=""></path><circle cx="252.034" cy="329.968" r="3.167" fill="#ffffff" data-original="#000000" class=""></circle><circle cx="237.453" cy="329.968" r="3.167" fill="#ffffff" data-original="#000000" class=""></circle><circle cx="222.872" cy="329.968" r="3.167" fill="#ffffff" data-original="#000000" class=""></circle><circle cx="208.291" cy="329.968" r="3.167" fill="#ffffff" data-original="#000000" class=""></circle><circle cx="193.71" cy="329.968" r="3.167" fill="#ffffff" data-original="#000000" class=""></circle><path d="M226.034 239.801h-15.667a3.5 3.5 0 0 0-3.5 3.5v13.254c0 6.249 5.084 11.333 11.333 11.333s11.333-5.084 11.333-11.333v-13.254a3.499 3.499 0 0 0-3.499-3.5zm-3.5 16.754c0 2.39-1.944 4.333-4.333 4.333s-4.333-1.943-4.333-4.333v-9.754h8.667v9.754zM252.7 239.801h-15.666a3.5 3.5 0 0 0-3.5 3.5v28.833c0 6.25 5.084 11.334 11.333 11.334s11.333-5.084 11.333-11.334v-28.833a3.5 3.5 0 0 0-3.5-3.5zm-3.5 32.333c0 2.39-1.943 4.334-4.333 4.334s-4.333-1.944-4.333-4.334v-25.333h8.666v25.333zM208.178 233.668a3.5 3.5 0 0 0 3.5 3.5h29.667a3.5 3.5 0 0 0 3.5-3.5v-3.33h4.167a3.5 3.5 0 1 0 0-7h-4.167v-3.337a3.5 3.5 0 0 0-3.5-3.5h-29.667a3.5 3.5 0 0 0-3.5 3.5v3.337h-3.497a3.5 3.5 0 1 0 0 7h3.497v3.33zm7-10.167h22.667v6.667h-22.667v-6.667zM119.831 68.894a18.97 18.97 0 0 0 7.681-1.621v7.294h-9.595a3.5 3.5 0 1 0 0 7h26.19a3.5 3.5 0 1 0 0-7h-9.595v-7.294a18.97 18.97 0 0 0 7.68 1.621c5.08 0 9.856-1.978 13.448-5.57 7.415-7.415 7.415-19.48 0-26.896l-22.153-22.153a3.5 3.5 0 0 0-4.95 0l-22.154 22.153c-7.415 7.415-7.415 19.48 0 26.896a18.894 18.894 0 0 0 13.448 5.57zm-8.498-27.517 19.679-19.678 19.678 19.678c4.686 4.687 4.686 12.311 0 16.997a11.94 11.94 0 0 1-8.498 3.52c-3.21 0-6.229-1.25-8.498-3.52l-.207-.207a3.487 3.487 0 0 0-2.475-1.025 3.49 3.49 0 0 0-2.472 1.022l-.21.21a11.94 11.94 0 0 1-8.498 3.52 11.94 11.94 0 0 1-8.498-3.52c-4.687-4.686-4.687-12.311-.001-16.997zM333.525 384.462a18.97 18.97 0 0 0-7.681 1.621v-7.294h9.596a3.5 3.5 0 1 0 0-7h-26.19a3.5 3.5 0 1 0 0 7h9.595v7.294a18.949 18.949 0 0 0-7.68-1.621c-5.08 0-9.856 1.978-13.448 5.57-7.415 7.415-7.415 19.48 0 26.896l22.153 22.153c.684.684 1.579 1.025 2.475 1.025s1.791-.342 2.475-1.025l22.153-22.153c7.415-7.415 7.415-19.48 0-26.896a18.891 18.891 0 0 0-13.448-5.57zm8.498 27.517-19.679 19.678-19.679-19.678c-4.686-4.687-4.686-12.311 0-16.997a11.942 11.942 0 0 1 8.499-3.52c3.21 0 6.228 1.25 8.498 3.52l.207.207c1.313 1.313 3.637 1.313 4.949 0l.207-.207a11.942 11.942 0 0 1 8.499-3.52c3.21 0 6.228 1.25 8.498 3.52 4.687 4.686 4.687 12.31.001 16.997z" fill="#ffffff" data-original="#000000" class=""></path></g></svg>