<svg width="45" height="45" viewBox="0 0 45 45" fill="none" xmlns="http://www.w3.org/2000/svg">
<g clip-path="url(#clip0_177_156)">
<path fill-rule="evenodd" clip-rule="evenodd" d="M41.4496 34.5088C39.0017 34.4407 37.1027 34.6916 35.5111 35.3611C35.0528 35.5452 34.3173 35.5452 34.2569 36.122C34.5019 36.3641 34.5313 36.7602 34.7461 37.0956C35.1131 37.7045 35.7567 38.5247 36.3378 38.9502L38.2965 40.3499C39.4902 41.0795 40.837 41.5056 41.9998 42.2358C42.6736 42.6619 43.3466 43.2094 44.0203 43.6662C44.3633 43.9097 44.5712 44.3058 45 44.4571V44.3651C44.7859 44.0924 44.7242 43.6969 44.5108 43.3915L43.5915 42.5099C42.7044 41.3235 41.6019 40.2886 40.4082 39.4377C39.4285 38.7681 37.2866 37.8559 36.8887 36.7309L36.8283 36.6627C37.5006 36.5945 38.2965 36.3579 38.94 36.1752C39.9814 35.9025 40.9296 35.9625 41.9998 35.6891L43.4701 35.2629V34.9902C42.9192 34.4427 42.5213 33.7125 41.9402 33.1957C40.3794 31.8573 38.6642 30.5489 36.8887 29.4539C35.9398 28.8457 34.7152 28.4496 33.7053 27.9335C33.3369 27.7507 32.7256 27.6594 32.5116 27.3553C31.9593 26.6871 31.654 25.8042 31.2561 25.0126L28.7465 19.7197C28.1956 18.5333 27.858 17.347 27.1857 16.252C24.0325 11.0805 20.6036 7.94755 15.3387 4.87462C14.2067 4.23577 12.86 3.961 11.4282 3.62691L9.13259 3.50418C8.64206 3.29146 8.1529 2.71328 7.72411 2.4392C5.97945 1.34421 1.47956 -1.02849 0.193192 2.09829C-0.633514 4.07554 1.41781 6.02211 2.11417 7.02642C2.63558 7.72596 3.30792 8.51686 3.67633 9.30776C3.88215 9.82457 3.95076 10.3727 4.1655 10.9202C4.65466 12.2586 5.11433 13.7498 5.75717 14.9975C6.1002 15.6363 6.46038 16.3065 6.88917 16.884C7.1341 17.2249 7.56288 17.3709 7.65413 17.9183C7.22534 18.5272 7.19584 19.4388 6.95092 20.2004C5.84841 23.6381 6.2772 27.8966 7.838 30.4275C8.32853 31.1877 9.48455 32.8616 11.0529 32.2221C12.4305 31.6746 12.1232 29.9407 12.5211 28.4196C12.6137 28.0548 12.5519 27.8114 12.7351 27.5673V27.6355L13.9906 30.1603C14.9394 31.6507 16.5929 33.2025 17.9698 34.2375C18.7039 34.785 19.2857 35.7286 20.2036 36.0627V35.9706H20.1432C19.9594 35.6979 19.6836 35.5752 19.4386 35.3625C18.8877 34.815 18.2758 34.1454 17.847 33.5373C16.562 31.8341 15.43 29.9475 14.4194 28.001C13.9289 27.058 13.5001 26.0237 13.1035 25.0808C12.9183 24.7153 12.9183 24.1671 12.613 23.9858C12.1533 24.654 11.481 25.2335 11.1428 26.0544C10.561 27.3621 10.5006 28.9746 10.2866 30.6478C10.1631 30.6784 10.218 30.6477 10.1631 30.7159C9.18474 30.4732 8.8472 29.4682 8.48015 28.6173C7.5622 26.4573 7.40852 22.9897 8.20435 20.4949C8.4184 19.8561 9.33773 17.8481 8.97069 17.2399C8.78545 16.6618 8.17485 16.3277 7.8373 15.8709C7.43939 15.2927 7.01197 14.5632 6.73618 13.9243C6.00209 12.2198 5.63505 10.3346 4.83853 8.63072C4.47011 7.83982 3.82796 7.01824 3.30724 6.2887C2.72545 5.46712 2.08398 4.88894 1.62432 3.916C1.47133 3.57509 1.25728 3.03374 1.5022 2.66829C1.56257 2.42488 1.68607 2.32738 1.92962 2.27283C2.32753 1.93193 3.46091 2.3642 3.85883 2.54556C4.99083 3.00237 5.93966 3.42782 6.88848 4.066C7.31727 4.37008 7.77694 4.94826 8.32785 5.10099H8.97137C9.95107 5.31371 11.0522 5.16917 11.9695 5.44189C13.592 5.96007 15.0609 6.7196 16.3781 7.54187C20.3875 10.0666 23.6943 13.6563 25.9281 17.9463C26.2952 18.6458 26.4482 19.2847 26.7857 20.0149C27.4292 21.506 28.2251 23.0265 28.8665 24.4876C29.5101 25.9174 30.122 27.3785 31.04 28.5648C31.4996 29.2037 33.3355 29.5378 34.1616 29.8725C34.7742 30.1453 35.7224 30.3907 36.2746 30.7248C37.3147 31.3637 38.3555 32.0939 39.3345 32.7934C39.8236 33.1575 41.3549 33.9184 41.4462 34.5252L41.4496 34.5088ZM10.2337 8.07368C9.81082 8.06996 9.38922 8.12108 8.97961 8.22572V8.29391H9.03998C9.2849 8.78072 9.7137 9.11549 10.0197 9.54162L10.7243 11.0021L10.7846 10.9339C11.2134 10.6298 11.4282 10.143 11.4282 9.41344C11.2443 9.20071 11.2141 8.98731 11.0611 8.77458C10.8773 8.47049 10.4793 8.31777 10.2337 8.07504V8.07368Z" fill="#798A78"/>
</g>
<defs>
<clipPath id="clip0_177_156">
<rect width="45" height="45" fill="white"/>
</clipPath>
</defs>
</svg>
