<svg width="45" height="45" viewBox="0 0 45 45" fill="none" xmlns="http://www.w3.org/2000/svg">
<g clip-path="url(#clip0_151_11)">
<path fill-rule="evenodd" clip-rule="evenodd" d="M41.4503 35.0526C39.0028 34.9845 37.1041 35.2353 35.5127 35.9047C35.0545 36.0888 34.3192 36.0888 34.2588 36.6655C34.5037 36.9075 34.5332 37.3036 34.7479 37.639C35.1149 38.2477 35.7583 39.0678 36.3393 39.4932L38.2977 40.8927C39.4912 41.6221 40.8377 42.0482 42.0004 42.7783C42.674 43.2044 43.3469 43.7518 44.0205 44.2085C44.3635 44.4519 44.5714 44.8479 45.0001 44.9993V44.9072C44.7861 44.6346 44.7243 44.2392 44.511 43.9338L43.5918 43.0523C42.7049 41.8662 41.6026 40.8314 40.409 39.9806C39.4295 39.3112 37.2879 38.3991 36.8901 37.2743L36.8297 37.2061C37.502 37.1379 38.2977 36.9014 38.9411 36.7187C39.9824 36.446 40.9303 36.506 42.0004 36.2326L43.4704 35.8066V35.5339C42.9196 34.9865 42.5217 34.2564 41.9407 33.7397C40.3802 32.4015 38.6653 31.0933 36.8901 29.9985C35.9414 29.3904 34.717 28.9944 33.7073 28.4783C33.3389 28.2956 32.7278 28.2043 32.5137 27.9003C31.9616 27.2322 31.6563 26.3494 31.2585 25.5579L28.7493 20.2659C28.1984 19.0798 27.861 17.8936 27.1887 16.7988C24.0361 11.6281 20.6077 8.49574 15.3437 5.42333C14.2119 4.78458 12.8654 4.50986 11.4338 4.17583L9.13864 4.05312C8.64819 3.84043 8.15911 3.26235 7.73039 2.98831C5.98602 1.8935 1.48688 -0.478804 0.200729 2.64746C-0.62584 4.62438 1.42515 6.57063 2.12138 7.57477C2.64271 8.27419 3.31494 9.06496 3.68329 9.85573C3.88908 10.3725 3.95767 10.9205 4.17238 11.4679C4.66146 12.8061 5.12104 14.297 5.76378 15.5445C6.10675 16.1832 6.46688 16.8534 6.8956 17.4308C7.14048 17.7716 7.56919 17.9175 7.66042 18.4649C7.2317 19.0736 7.20221 19.9851 6.95733 20.7465C5.85501 24.1836 6.28373 28.4415 7.84426 30.972C8.33471 31.7321 9.49054 33.4056 11.0586 32.7662C12.436 32.2188 12.1287 30.4853 12.5266 28.9644C12.6192 28.5997 12.5574 28.3563 12.7406 28.1123V28.1804L13.9959 30.7048C14.9445 32.195 16.5977 33.7465 17.9744 34.7813C18.7083 35.3287 19.29 36.2722 20.2078 36.6062V36.5142H20.1475C19.9636 36.2415 19.6879 36.1188 19.443 35.9061C18.8922 35.3587 18.2803 34.6893 17.8516 34.0812C16.5668 32.3783 15.435 30.4921 14.4246 28.5458C13.9341 27.603 13.5054 26.5689 13.1089 25.6261C12.9237 25.2607 12.9237 24.7126 12.6185 24.5313C12.1589 25.1994 11.4867 25.7788 11.1485 26.5996C10.5668 27.9071 10.5064 29.5193 10.2924 31.1922C10.1689 31.2228 10.2238 31.1922 10.1689 31.2603C9.19078 31.0177 8.8533 30.0128 8.48631 29.1621C7.56851 27.0025 7.41485 23.5353 8.21056 21.041C8.42457 20.4023 9.34375 18.3947 8.97676 17.7866C8.79156 17.2085 8.18106 16.8745 7.84357 16.4177C7.44572 15.8397 7.01838 15.1103 6.74262 14.4715C6.00866 12.7673 5.64168 10.8824 4.84529 9.1788C4.47693 8.38803 3.83489 7.56659 3.31425 6.83717C2.73257 6.01573 2.0912 5.43765 1.63162 4.46487C1.47865 4.12402 1.26463 3.58275 1.50952 3.21736C1.56988 2.97399 1.69335 2.87651 1.93687 2.82197C2.33472 2.48113 3.4679 2.91332 3.86575 3.09465C4.99757 3.55139 5.94624 3.97677 6.89491 4.61484C7.32362 4.91888 7.78321 5.49696 8.33403 5.64966H8.97744C9.95698 5.86235 11.0579 5.71783 11.9751 5.99051C13.5973 6.5086 15.0659 7.268 16.383 8.09013C20.3916 10.6145 23.6979 14.2036 25.9314 18.4928C26.2984 19.1923 26.4513 19.831 26.7888 20.5611C27.4322 22.052 28.2279 23.5722 28.8693 25.033C29.5127 26.4626 30.1246 27.9234 31.0424 29.1096C31.502 29.7483 33.3376 30.0824 34.1635 30.4171C34.776 30.6898 35.724 30.9352 36.2762 31.2692C37.3161 31.908 38.3567 32.6381 39.3355 33.3375C39.8246 33.7015 41.3556 34.4623 41.4469 35.069L41.4503 35.0526ZM10.2396 8.62185C9.81675 8.61814 9.39523 8.66924 8.98568 8.77388V8.84204H9.04604C9.29093 9.32878 9.71965 9.66349 10.0256 10.0895L10.7301 11.5497L10.7904 11.4816C11.2191 11.1775 11.4338 10.6908 11.4338 9.96139C11.25 9.7487 11.2198 9.53533 11.0668 9.32264C10.883 9.0186 10.4852 8.8659 10.2396 8.62322V8.62185Z" fill="#00678C"/>
</g>
<defs>
<clipPath id="clip0_151_11">
<rect width="45" height="45" fill="white"/>
</clipPath>
</defs>
</svg>
