<svg width="45" height="45" viewBox="0 0 45 45" fill="none" xmlns="http://www.w3.org/2000/svg">
<path d="M21.0152 0.0113848C20.9098 0.0201751 20.6023 0.0465459 20.3387 0.0729167C13.9428 0.653075 7.96857 4.09886 4.17317 9.3994C2.07341 12.3002 0.720422 15.6844 0.20207 19.2269C0.0263569 20.4664 0 20.8268 0 22.5057C0 24.1846 0.0263569 24.545 0.20207 25.7757C1.42327 34.2319 7.43264 41.3257 15.5857 43.954C17.0529 44.4198 18.5904 44.7451 20.3387 44.9473C21.0152 45.0176 23.9584 45.0176 24.6437 44.9473C27.666 44.6132 30.2226 43.8661 32.7528 42.5739C33.1394 42.3805 33.2097 42.3278 33.1658 42.2838C31.927 40.6488 30.7146 39.0138 29.5021 37.37L25.9088 32.5178L21.4106 25.846C19.9082 23.6133 18.4059 21.3893 16.8684 19.1742C16.8508 19.1742 16.8333 22.1365 16.8245 25.7581C16.8069 32.0959 16.8069 32.3508 16.7278 32.5002C16.6488 32.676 16.517 32.8255 16.3413 32.9046C16.2007 32.9661 16.0777 32.9837 15.41 32.9837H14.6456L14.4436 32.8606C14.3206 32.7815 14.2152 32.6673 14.1537 32.5354L14.057 32.3332L14.0658 23.5166L14.0834 14.6999L14.2239 14.5241L14.549 14.2604C14.7335 14.1725 14.8038 14.1549 15.5681 14.1549C16.4643 14.1549 16.6048 14.1901 16.8421 14.445C18.6607 17.1612 20.4793 19.8862 22.2628 22.62C25.1884 27.0503 29.1771 33.098 31.1363 36.0691L34.7032 41.4663L34.879 41.352C36.5922 40.2093 38.1472 38.8468 39.5002 37.2909C42.338 34.0473 44.1742 30.0565 44.7979 25.7933C44.9824 24.5538 45 24.1934 45 22.5145C45 20.8355 44.9736 20.4751 44.7979 19.2445C43.5504 10.7795 37.541 3.68572 29.3967 1.05743C27.8768 0.573962 26.3042 0.248722 24.7228 0.081707C24.2923 0.0289654 21.3842 -0.0237763 21.0152 0.0113848ZM30.2226 13.6275C30.4334 13.7242 30.5916 13.9176 30.6706 14.1374C30.7058 14.2516 30.7146 16.7041 30.7058 22.2068L30.6882 30.1181L29.3001 27.982L27.9032 25.846V20.1059C27.9032 16.3789 27.9207 14.2956 27.9383 14.1901C27.9998 13.9528 28.1667 13.7594 28.3776 13.6363C28.5533 13.5484 28.6148 13.5396 29.3177 13.5396C29.9678 13.5308 30.0732 13.5396 30.2226 13.6275Z" fill="#3D4E3C"/>
</svg>
