<svg width="45" height="45" viewBox="0 0 45 45" fill="none" xmlns="http://www.w3.org/2000/svg">
<path fill-rule="evenodd" clip-rule="evenodd" d="M2.55516 19.5966C1.50276 20.5467 0.989011 21.5286 0.989011 22.5C0.989011 23.4715 1.50276 24.4534 2.55516 25.4035C3.60752 26.3534 5.15806 27.2316 7.11616 27.9793C11.0289 29.4732 16.4678 30.4076 22.5 30.4076C28.5322 30.4076 33.9711 29.4732 37.8838 27.9793C39.8419 27.2316 41.3925 26.3534 42.4448 25.4035C43.4972 24.4534 44.011 23.4715 44.011 22.5C44.011 21.5286 43.4972 20.5467 42.4448 19.5966C41.3925 18.6467 39.8419 17.7685 37.8838 17.0208C33.9711 15.5269 28.5322 14.5925 22.5 14.5925C16.4678 14.5925 11.0289 15.5269 7.11616 17.0208C5.15806 17.7685 3.60752 18.6467 2.55516 19.5966ZM6.76337 16.0969C10.815 14.5499 16.3789 13.6034 22.5 13.6034C28.6211 13.6034 34.185 14.5499 38.2366 16.0969C40.2607 16.8697 41.9328 17.8021 43.1076 18.8625C44.2822 19.9229 45 21.1513 45 22.5C45 23.8488 44.2822 25.0772 43.1076 26.1376C41.9328 27.198 40.2607 28.1304 38.2366 28.9032C34.185 30.4502 28.6211 31.3966 22.5 31.3966C16.3789 31.3966 10.815 30.4502 6.76337 28.9032C4.73926 28.1304 3.06717 27.198 1.89245 26.1376C0.717776 25.0772 0 23.8488 0 22.5C0 21.1513 0.717776 19.9229 1.89245 18.8625C3.06717 17.8021 4.73926 16.8697 6.76337 16.0969Z" fill="#798A78"/>
<path fill-rule="evenodd" clip-rule="evenodd" d="M22.4999 9.19655C20.1471 11.6841 17.7727 14.8726 15.6518 18.5462C14.886 19.8726 14.1915 21.1959 13.5706 22.5C14.1915 23.8041 14.886 25.1275 15.6518 26.4539C17.7727 30.1274 20.1471 33.3159 22.4999 35.8035C24.8528 33.3159 27.2272 30.1274 29.3482 26.4538C30.1139 25.1274 30.8084 23.8041 31.4293 22.5C30.8084 21.196 30.1139 19.8726 29.3482 18.5463C27.2272 14.8727 24.8528 11.6842 22.4999 9.19655ZM21.8101 8.48662C19.3845 11.0457 16.9552 14.3107 14.7953 18.0517C14.1607 19.1508 13.5734 20.2495 13.0348 21.3388C11.512 17.9299 10.5071 14.6893 10.0629 11.9169C9.73136 9.84728 9.71661 8.06538 10.0131 6.67902C10.3097 5.2926 10.9032 4.3567 11.7445 3.87099C12.5858 3.38528 13.693 3.33922 15.042 3.77562C16.3909 4.21199 17.9267 5.11571 19.5532 6.43765C20.2942 7.03987 21.0496 7.72531 21.8101 8.48662ZM22.4999 7.77776C21.7195 6.99714 20.9421 6.29204 20.177 5.67016C18.4956 4.30365 16.8522 3.32174 15.3464 2.83462C13.8407 2.34752 12.418 2.3401 11.25 3.01448C10.0819 3.68886 9.377 4.92467 9.04601 6.47216C8.71499 8.01973 8.74362 9.93396 9.08638 12.0733C9.5795 15.1512 10.7319 18.7506 12.4775 22.5C10.7319 26.2495 9.5795 29.8488 9.08638 32.9267C8.74362 35.0661 8.71499 36.9803 9.046 38.5279C9.377 40.0754 10.0819 41.3112 11.25 41.9855C12.418 42.6599 13.8407 42.6525 15.3464 42.1654C16.8521 41.6783 18.4956 40.6964 20.177 39.3299C20.9421 38.708 21.7195 38.0029 22.4999 37.2223C23.2804 38.0029 24.0578 38.708 24.823 39.33C26.5044 40.6965 28.1478 41.6784 29.6536 42.1655C31.1592 42.6526 32.5819 42.66 33.75 41.9856C34.918 41.3113 35.623 40.0755 35.954 38.528C36.285 36.9804 36.2563 35.0662 35.9136 32.9268C35.4205 29.8489 34.2681 26.2495 32.5224 22.5C34.2681 18.7505 35.4205 15.1511 35.9136 12.0732C36.2563 9.93386 36.285 8.01963 35.954 6.47206C35.623 4.92457 34.918 3.68877 33.75 3.01438C32.5819 2.34 31.1592 2.34743 29.6536 2.83452C28.1478 3.32164 26.5044 4.30355 24.823 5.67006C24.0578 6.29197 23.2804 6.9971 22.4999 7.77776ZM23.1897 8.48662C25.6154 11.0457 28.0448 14.3107 30.2047 18.0518C30.8392 19.1508 31.4265 20.2495 31.9651 21.3388C33.488 17.9298 34.4929 14.6892 34.937 11.9168C35.2686 9.84718 35.2834 8.06528 34.9868 6.67893C34.6903 5.2925 34.0967 4.3566 33.2555 3.87089C32.4142 3.38519 31.3069 3.33912 29.958 3.77552C28.6091 4.21189 27.0733 5.11561 25.4468 6.43756C24.7058 7.03979 23.9503 7.72527 23.1897 8.48662ZM31.9651 23.6612C31.4265 24.7505 30.8392 25.8492 30.2047 26.9483C28.0448 30.6893 25.6154 33.9543 23.1898 36.5134C23.9503 37.2748 24.7058 37.9602 25.4468 38.5625C27.0733 39.8844 28.6091 40.7881 29.958 41.2245C31.3069 41.6609 32.4142 41.6148 33.2555 41.1291C34.0967 40.6434 34.6903 39.7075 34.9868 38.3211C35.2834 36.9347 35.2686 35.1528 34.937 33.0833C34.4929 30.3108 33.488 27.0702 31.9651 23.6612ZM21.8101 36.5134C19.3845 33.9543 16.9552 30.6894 14.7953 26.9484C14.1607 25.8493 13.5734 24.7506 13.0348 23.6612C11.512 27.0702 10.5071 30.3108 10.0629 33.0832C9.73136 35.1527 9.71661 36.9346 10.0131 38.321C10.3097 39.7074 10.9032 40.6433 11.7445 41.129C12.5858 41.6147 13.693 41.6608 15.042 41.2244C16.3909 40.788 17.9267 39.8843 19.5532 38.5624C20.2942 37.9602 21.0496 37.2747 21.8101 36.5134Z" fill="#798A78"/>
<path d="M22.5 26.6011C24.7649 26.6011 26.601 24.7651 26.601 22.5001C26.601 20.2352 24.7649 18.3991 22.5 18.3991C20.2351 18.3991 18.399 20.2352 18.399 22.5001C18.399 24.7651 20.2351 26.6011 22.5 26.6011Z" fill="#798A78"/>
</svg>
