<svg width="45" height="41" viewBox="0 0 45 41" fill="none" xmlns="http://www.w3.org/2000/svg">
<path fill-rule="evenodd" clip-rule="evenodd" d="M2.55516 17.1101C1.50276 18.0602 0.989011 19.0421 0.989011 20.0135C0.989011 20.985 1.50276 21.9669 2.55516 22.917C3.60752 23.8669 5.15806 24.7451 7.11616 25.4928C11.0289 26.9867 16.4678 27.9211 22.5 27.9211C28.5322 27.9211 33.9711 26.9867 37.8838 25.4928C39.8419 24.7451 41.3925 23.8669 42.4448 22.917C43.4972 21.9669 44.011 20.985 44.011 20.0135C44.011 19.0421 43.4972 18.0602 42.4448 17.1101C41.3925 16.1602 39.8419 15.282 37.8838 14.5343C33.9711 13.0404 28.5322 12.106 22.5 12.106C16.4678 12.106 11.0289 13.0404 7.11616 14.5343C5.15806 15.282 3.60752 16.1602 2.55516 17.1101ZM6.76337 13.6104C10.815 12.0634 16.3789 11.1169 22.5 11.1169C28.6211 11.1169 34.185 12.0634 38.2366 13.6104C40.2607 14.3832 41.9328 15.3156 43.1076 16.376C44.2822 17.4364 45 18.6648 45 20.0135C45 21.3623 44.2822 22.5907 43.1076 23.6511C41.9328 24.7115 40.2607 25.6439 38.2366 26.4167C34.185 27.9637 28.6211 28.9101 22.5 28.9101C16.3789 28.9101 10.815 27.9637 6.76337 26.4167C4.73926 25.6439 3.06717 24.7115 1.89245 23.6511C0.717776 22.5907 0 21.3623 0 20.0135C0 18.6648 0.717776 17.4364 1.89245 16.376C3.06717 15.3156 4.73926 14.3832 6.76337 13.6104Z" fill="#61DAFB"/>
<path fill-rule="evenodd" clip-rule="evenodd" d="M22.4999 6.71006C20.1471 9.19766 17.7727 12.3861 15.6518 16.0597C14.886 17.3861 14.1915 18.7094 13.5706 20.0135C14.1915 21.3176 14.886 22.641 15.6518 23.9674C17.7727 27.6409 20.1471 30.8294 22.4999 33.317C24.8528 30.8294 27.2272 27.6409 29.3482 23.9673C30.1139 22.6409 30.8084 21.3176 31.4293 20.0135C30.8084 18.7095 30.1139 17.3861 29.3482 16.0598C27.2272 12.3862 24.8528 9.19768 22.4999 6.71006ZM21.8101 6.00013C19.3845 8.5592 16.9552 11.8242 14.7953 15.5652C14.1607 16.6643 13.5734 17.763 13.0348 18.8523C11.512 15.4434 10.5071 12.2028 10.0629 9.43037C9.73136 7.36079 9.71661 5.57889 10.0131 4.19253C10.3097 2.80611 10.9032 1.87021 11.7445 1.3845C12.5858 0.898794 13.693 0.852729 15.042 1.28913C16.3909 1.7255 17.9267 2.62922 19.5532 3.95116C20.2942 4.55338 21.0496 5.23882 21.8101 6.00013ZM22.4999 5.29127C21.7195 4.51065 20.9421 3.80555 20.177 3.18367C18.4956 1.81716 16.8522 0.835249 15.3464 0.34813C13.8407 -0.138966 12.418 -0.146388 11.25 0.527993C10.0819 1.20237 9.377 2.43818 9.04601 3.98567C8.71499 5.53324 8.74362 7.44747 9.08638 9.58683C9.5795 12.6647 10.7319 16.2641 12.4775 20.0135C10.7319 23.763 9.5795 27.3623 9.08638 30.4402C8.74362 32.5796 8.71499 34.4938 9.046 36.0414C9.377 37.5889 10.0819 38.8247 11.25 39.499C12.418 40.1734 13.8407 40.166 15.3464 39.6789C16.8521 39.1918 18.4956 38.2099 20.177 36.8434C20.9421 36.2215 21.7195 35.5164 22.4999 34.7358C23.2804 35.5164 24.0578 36.2215 24.823 36.8435C26.5044 38.21 28.1478 39.1919 29.6536 39.679C31.1592 40.1661 32.5819 40.1735 33.75 39.4991C34.918 38.8248 35.623 37.589 35.954 36.0415C36.285 34.4939 36.2563 32.5797 35.9136 30.4403C35.4205 27.3624 34.2681 23.763 32.5224 20.0135C34.2681 16.264 35.4205 12.6646 35.9136 9.58673C36.2563 7.44737 36.285 5.53314 35.954 3.98557C35.623 2.43808 34.918 1.20228 33.75 0.527896C32.5819 -0.146485 31.1592 -0.139063 29.6536 0.348033C28.1478 0.835151 26.5044 1.81706 24.823 3.18357C24.0578 3.80548 23.2804 4.51061 22.4999 5.29127ZM23.1897 6.00013C25.6154 8.55921 28.0448 11.8242 30.2047 15.5653C30.8392 16.6643 31.4265 17.763 31.9651 18.8523C33.488 15.4433 34.4929 12.2027 34.937 9.43027C35.2686 7.36069 35.2834 5.57879 34.9868 4.19244C34.6903 2.80601 34.0967 1.87011 33.2555 1.3844C32.4142 0.898697 31.3069 0.852632 29.958 1.28903C28.6091 1.7254 27.0733 2.62912 25.4468 3.95107C24.7058 4.5533 23.9503 5.23878 23.1897 6.00013ZM31.9651 21.1747C31.4265 22.264 30.8392 23.3627 30.2047 24.4618C28.0448 28.2028 25.6154 31.4678 23.1898 34.0269C23.9503 34.7883 24.7058 35.4737 25.4468 36.076C27.0733 37.3979 28.6091 38.3016 29.958 38.738C31.3069 39.1744 32.4142 39.1283 33.2555 38.6426C34.0967 38.1569 34.6903 37.221 34.9868 35.8346C35.2834 34.4482 35.2686 32.6663 34.937 30.5968C34.4929 27.8243 33.488 24.5837 31.9651 21.1747ZM21.8101 34.0269C19.3845 31.4678 16.9552 28.2029 14.7953 24.4619C14.1607 23.3628 13.5734 22.2641 13.0348 21.1747C11.512 24.5837 10.5071 27.8243 10.0629 30.5967C9.73136 32.6662 9.71661 34.4481 10.0131 35.8345C10.3097 37.2209 10.9032 38.1568 11.7445 38.6425C12.5858 39.1282 13.693 39.1743 15.042 38.7379C16.3909 38.3015 17.9267 37.3978 19.5532 36.0759C20.2942 35.4737 21.0496 34.7882 21.8101 34.0269Z" fill="#61DAFB"/>
<path d="M22.5 24.1146C24.7649 24.1146 26.601 22.2786 26.601 20.0136C26.601 17.7487 24.7649 15.9126 22.5 15.9126C20.2351 15.9126 18.399 17.7487 18.399 20.0136C18.399 22.2786 20.2351 24.1146 22.5 24.1146Z" fill="#61DAFB"/>
</svg>
