<svg id="Layer_1" data-name="Layer 1" xmlns="http://www.w3.org/2000/svg" xmlns:xlink="http://www.w3.org/1999/xlink" viewBox="0 0 45 42.47"><defs><style>.cls-1{fill:#798a78;}.cls-2{opacity:0.88;fill:url(#linear-gradient);}</style><linearGradient id="linear-gradient" x1="10.52" y1="23.44" x2="34.49" y2="23.44" gradientUnits="userSpaceOnUse"><stop offset="0" stop-color="#e2ba51"/><stop offset="1" stop-color="#ca9b31"/></linearGradient></defs><title>react-spring</title><path class="cls-1" d="M44.68,23.6a1.42,1.42,0,0,0-1.12-.47c-2,0-6.64,2.59-10.61,6.17a11.94,11.94,0,0,1-3.85,4.13,31.55,31.55,0,0,0-3.69,6.1c-4.73,1.68-9.31,2.26-11.86,1.63a2.69,2.69,0,0,1-1.74-1,2.39,2.39,0,0,1,0-1.91A55.19,55.19,0,0,0,19,34.89a12.92,12.92,0,0,1-1.43-.52c-.21-.1-.42-.22-.63-.33-1.33.7-2.64,1.32-3.88,1.85A30.53,30.53,0,0,1,15.26,33,12,12,0,0,1,14,31.83a22.65,22.65,0,0,0-3.37,5c-3.46,1.2-6.18,1.46-7.35.28-.81-.81-.66-2.32-.5-3.92l.08-.87c.22-2.71,1.28-5.1,3.81-8a26.08,26.08,0,0,0,3.9-1.13,11.28,11.28,0,0,1,.21-1.91c-.63.24-1.27.49-1.86.68.66-.64,1.39-1.31,2.18-2a12.43,12.43,0,0,1,.53-1.44,11.84,11.84,0,0,1,1.74-2.76l-.15.12a70.56,70.56,0,0,0-7.46,6.89c-1.88.31-3.23.17-3.74-.47-.8-1,.44-3.64,1.26-5.4a28.21,28.21,0,0,1,4.2-6.41c10.63-7.93,10.58-8,10-8.85a.91.91,0,0,0-.82-.37c-.69.06-5.82,2.8-10.32,8l-1.33,1a.85.85,0,0,0-.28,1,28.72,28.72,0,0,0-3,4.95c-1.12,2.38-2.51,5.36-1,7.19.71.9,2,1.23,3.55,1.24a14.3,14.3,0,0,0-3.07,7.6L1,33.06C.84,35,.64,37,2,38.35c1.58,1.58,4.49,1.53,8,.5A3.38,3.38,0,0,0,10.32,41a4.21,4.21,0,0,0,2.82,1.84c2.79.69,7,.17,11.39-1.19l-.36,1a.87.87,0,0,0,.53,1.09,1,1,0,0,0,.28,0,.85.85,0,0,0,.81-.57c.27-.78.57-1.54.89-2.28a37.05,37.05,0,0,0,6.88-3.41C39.91,33.4,44.63,27.19,45,24.86A1.51,1.51,0,0,0,44.68,23.6ZM32.64,36a33.7,33.7,0,0,1-4.86,2.57,28.91,28.91,0,0,1,4.45-6.23c4.14-4.41,9.39-7.28,11-7.52C42.75,26.53,38.72,32.13,32.64,36Z" transform="translate(0 -1.27)"/><path class="cls-1" d="M41.52,14.17c-.54,1.24-3.41,4.36-7.15,7.71a11.34,11.34,0,0,1,.09,2.18c4.23-3.64,10-9.14,8.61-11a1.42,1.42,0,0,0-1-.56c-1.64-.22-5.49,1.45-9.77,4a11,11,0,0,1,.9,1.46C37.1,15.62,40.33,14.27,41.52,14.17Z" transform="translate(0 -1.27)"/><path class="cls-1" d="M31.52,4.33a30.58,30.58,0,0,1-6,7.51,12.26,12.26,0,0,1,1.82.63C30.76,9,33.2,5.6,33.38,4a1.41,1.41,0,0,0-.31-1.11C32.13,1.84,30.23,2,16.75,13a12,12,0,0,1,4.49-1.41C27.66,6.47,30.39,4.78,31.52,4.33Z" transform="translate(0 -1.27)"/><path class="cls-1" d="M11.05,20c1-.87,2-1.79,3.24-2.78,2.71-2.24,5-4.09,7-5.64a12,12,0,0,0-4.49,1.41c-1.08.87-2.21,1.8-3.44,2.82a12.11,12.11,0,0,0-1.74,2.75A14,14,0,0,0,11.05,20Z" transform="translate(0 -1.27)"/><path class="cls-1" d="M29.11,33.43A12,12,0,0,0,33,29.29c-.67.61-1.34,1.24-2,1.9A26.84,26.84,0,0,0,29.11,33.43Z" transform="translate(0 -1.27)"/><path class="cls-1" d="M14,31.82A11.19,11.19,0,0,0,15.27,33a73.52,73.52,0,0,1,8.45-8.34A68.88,68.88,0,0,1,33.15,18a11,11,0,0,0-.9-1.46,73.93,73.93,0,0,0-9.64,6.85A77.25,77.25,0,0,0,14,31.82Z" transform="translate(0 -1.27)"/><path class="cls-2" d="M27.43,12.52a12,12,0,1,0,6,15.84A12,12,0,0,0,27.43,12.52Z" transform="translate(0 -1.27)"/><path class="cls-1" d="M20.52,16a45.73,45.73,0,0,1-9.81,5.28,11.37,11.37,0,0,0-.2,1.92,48.91,48.91,0,0,0,11-5.81,47.43,47.43,0,0,0,5.8-4.94,12.19,12.19,0,0,0-1.81-.64A43.44,43.44,0,0,1,20.52,16Z" transform="translate(0 -1.27)"/><path class="cls-1" d="M34.42,21.84c-1.58,1.41-3.36,2.91-5.15,4.29a86.5,86.5,0,0,1-12.38,7.94c.21.11.47.19.69.29a10,10,0,0,0,1.3.59,92.45,92.45,0,0,0,11.44-7.47c.05,0,2-1.55,4.25-3.51A10.8,10.8,0,0,0,34.42,21.84Z" transform="translate(0 -1.27)"/></svg>