<svg width="100" height="100" viewBox="0 0 100 100" fill="none" xmlns="http://www.w3.org/2000/svg">
<g clip-path="url(#clip0_511_91)">
<circle cx="50" cy="50" r="50" fill="#DC9E00"/>
<path d="M21.7823 54L18.7634 47.0215C18.6622 46.7889 18.5257 46.5967 18.3538 46.445C18.1919 46.2933 17.9644 46.2124 17.6711 46.2023V46.0506H21.9189V46.2023C21.5649 46.2427 21.3323 46.3995 21.221 46.6726C21.1199 46.9456 21.1553 47.2895 21.3272 47.7042L22.8898 51.3603L24.4372 47.7952C24.5383 47.5626 24.5889 47.335 24.5889 47.1125C24.5889 46.8597 24.5131 46.6523 24.3613 46.4905C24.2096 46.3287 23.9973 46.2326 23.7242 46.2023V46.0506H26.1211V46.2023C25.8582 46.263 25.6053 46.4147 25.3626 46.6574C25.1199 46.9001 24.9024 47.2339 24.7103 47.6587L21.9189 54H21.7823Z" fill="#E7E4DF"/>
<path d="M25.6146 53.7573V53.6056H25.6298C25.9939 53.6056 26.2872 53.4943 26.5097 53.2718C26.7322 53.0493 26.8434 52.756 26.8434 52.3919V47.4159C26.8434 47.0316 26.7625 46.7332 26.6007 46.5209C26.449 46.3085 26.1203 46.2023 25.6146 46.2023V46.0506H27.162C27.6778 46.0506 28.0722 45.9949 28.3453 45.8837C28.5982 45.7724 28.7751 45.6359 28.8763 45.4741H29.028V52.3919C29.028 52.756 29.1392 53.0493 29.3617 53.2718C29.5842 53.4943 29.8775 53.6056 30.2416 53.6056H30.2568V53.7573H25.6146ZM27.9205 44.5183C27.5564 44.5183 27.253 44.402 27.0103 44.1694C26.7777 43.9267 26.6614 43.6233 26.6614 43.2592C26.6614 42.8951 26.7777 42.5967 27.0103 42.3641C27.253 42.1214 27.5564 42 27.9205 42C28.2745 42 28.5678 42.1214 28.8004 42.3641C29.0432 42.6068 29.1645 42.9052 29.1645 43.2592C29.1645 43.6131 29.0432 43.9115 28.8004 44.1542C28.5678 44.397 28.2745 44.5183 27.9205 44.5183Z" fill="#E7E4DF"/>
<path d="M33.8709 53.9393C33.173 53.9393 32.551 53.7674 32.0049 53.4235C31.4688 53.0796 31.0491 52.6043 30.7457 51.9975C30.4423 51.3805 30.2906 50.6776 30.2906 49.8887C30.2906 49.0796 30.4575 48.3717 30.7912 47.7649C31.125 47.158 31.5801 46.6877 32.1566 46.354C32.7432 46.0101 33.4056 45.8382 34.1439 45.8382C34.7609 45.8382 35.307 45.9595 35.7824 46.2023C36.2678 46.445 36.6522 46.7889 36.9353 47.2339C37.2286 47.6688 37.3955 48.1745 37.436 48.7509L37.4511 48.9785H32.3538V49.0544C32.3538 50.1264 32.5915 50.9861 33.0668 51.6334C33.5422 52.2705 34.1793 52.5891 34.9783 52.5891C35.4638 52.5891 35.924 52.4728 36.3589 52.2402C36.8039 51.9975 37.1629 51.6738 37.436 51.2693L37.5725 51.3148C37.4006 51.8306 37.1326 52.2857 36.7685 52.6802C36.4044 53.0746 35.9745 53.3831 35.479 53.6056C34.9834 53.8281 34.4474 53.9393 33.8709 53.9393ZM32.369 48.7509H35.4486C35.4486 47.952 35.3171 47.3047 35.0542 46.8091C34.8013 46.3135 34.4423 46.0657 33.9771 46.0657C33.5321 46.0657 33.1629 46.3085 32.8696 46.7939C32.5763 47.2794 32.4094 47.9317 32.369 48.7509Z" fill="#E7E4DF"/>
<path d="M41.382 54L38.3782 47.0215C38.2771 46.7788 38.1405 46.5866 37.9686 46.445C37.7967 46.2933 37.5641 46.2124 37.2708 46.2023V46.0506H41.5337V46.2023C41.1797 46.2427 40.9471 46.3995 40.8359 46.6726C40.7246 46.9456 40.76 47.2895 40.9421 47.7042L42.5046 51.3603L43.688 48.6144L43.066 47.0215C42.9749 46.7889 42.8536 46.5967 42.7019 46.445C42.5502 46.2933 42.3428 46.2124 42.0799 46.2023V46.0506H45.9029V46.2023C45.5792 46.2427 45.3668 46.3995 45.2657 46.6726C45.1747 46.9456 45.2101 47.2895 45.3719 47.7042L46.7676 51.3603L48.1633 47.7952C48.2139 47.6637 48.2493 47.5424 48.2695 47.4311C48.2897 47.3198 48.2998 47.2137 48.2998 47.1125C48.2998 46.8597 48.2341 46.6523 48.1026 46.4905C47.9711 46.3287 47.779 46.2326 47.5261 46.2023V46.0506H49.6804V46.2023C49.4477 46.263 49.2202 46.4147 48.9977 46.6574C48.7752 46.9001 48.578 47.2339 48.406 47.6587L45.9029 54H45.7815L43.779 48.8723L41.5337 54H41.382Z" fill="#E7E4DF"/>
<path d="M56.3147 53.9697C55.627 53.9697 55.0151 53.8028 54.479 53.469C53.943 53.1252 53.5233 52.6498 53.2199 52.043C52.9266 51.4362 52.7799 50.7434 52.7799 49.9646C52.7799 49.1555 52.9468 48.4425 53.2806 47.8255C53.6143 47.1985 54.0694 46.713 54.6459 46.3692C55.2325 46.0152 55.8899 45.8382 56.6181 45.8382C57.4677 45.8382 58.1706 46.0708 58.7268 46.536C59.2932 46.9912 59.632 47.6131 59.7433 48.402L57.9228 49.4185C57.9228 48.3869 57.7913 47.5676 57.5283 46.9608C57.2654 46.3641 56.8962 46.0657 56.4209 46.0657C56.0972 46.0657 55.8141 46.1972 55.5713 46.4602C55.3387 46.7231 55.1567 47.0771 55.0252 47.5221C54.9038 47.9671 54.8431 48.4627 54.8431 49.0088C54.8431 49.7067 54.9493 50.3236 55.1617 50.8597C55.3741 51.3856 55.6725 51.8003 56.0568 52.1037C56.4411 52.397 56.8962 52.5436 57.4221 52.5436C57.9076 52.5436 58.3678 52.4222 58.8027 52.1795C59.2477 51.9368 59.6118 51.6081 59.895 51.1934L60.0467 51.2389C59.8747 51.7851 59.6017 52.2655 59.2275 52.6802C58.8532 53.0847 58.4133 53.4033 57.9076 53.6359C57.412 53.8584 56.8811 53.9697 56.3147 53.9697Z" fill="#E7E4DF"/>
<path d="M62.5459 53.9697C61.929 53.9697 61.4334 53.8028 61.0592 53.469C60.685 53.1353 60.4979 52.6953 60.4979 52.1492C60.4979 51.9166 60.5383 51.6991 60.6192 51.4968C60.7002 51.2844 60.8519 51.0771 61.0744 50.8748C61.307 50.6726 61.6256 50.4652 62.0301 50.2528C62.4347 50.0303 62.9707 49.7977 63.6382 49.555L65.0491 49.0392V47.9014C65.0491 47.3249 64.9581 46.8698 64.776 46.536C64.594 46.1922 64.3411 46.0202 64.0175 46.0202C63.6332 46.0303 63.3045 46.2832 63.0314 46.7788C62.7684 47.2743 62.5914 47.9621 62.5004 48.842L60.862 47.9014C61.0339 47.4867 61.2969 47.1226 61.6509 46.8091C62.0048 46.4956 62.4094 46.2528 62.8645 46.0809C63.3297 45.909 63.8152 45.823 64.3209 45.823C65.1806 45.823 65.8784 46.0657 66.4144 46.5512C66.9606 47.0265 67.2337 47.6789 67.2337 48.5082V52.1643C67.2337 52.7509 67.4309 53.0442 67.8253 53.0442C68.0579 53.0442 68.2855 52.9178 68.508 52.665L68.6294 52.7712C68.3664 53.1252 68.0478 53.4134 67.6736 53.6359C67.2994 53.8584 66.9353 53.9697 66.5813 53.9697C66.197 53.9697 65.8632 53.8382 65.5801 53.5752C65.307 53.3123 65.135 52.9633 65.0643 52.5284C64.5687 53.0341 64.1338 53.4033 63.7596 53.6359C63.3955 53.8584 62.9909 53.9697 62.5459 53.9697ZM63.6837 53.0291C63.9062 53.0291 64.1186 52.9735 64.3209 52.8622C64.5333 52.7509 64.771 52.5689 65.0339 52.3161L65.0491 49.2364L64.4423 49.464C63.9265 49.6561 63.532 49.8533 63.2589 50.0556C62.9859 50.2478 62.7937 50.4652 62.6825 50.708C62.5813 50.9507 62.5308 51.2288 62.5308 51.5424C62.5308 51.9772 62.6369 52.3363 62.8493 52.6195C63.0718 52.8925 63.35 53.0291 63.6837 53.0291Z" fill="#E7E4DF"/>
<path d="M71.4781 53.9697C71.2152 53.9697 71.018 53.9595 70.8865 53.9393C70.755 53.9191 70.6286 53.8938 70.5072 53.8635C70.396 53.8331 70.2443 53.8078 70.0521 53.7876C69.8599 53.7674 69.5666 53.7573 69.1722 53.7573L68.8081 50.9052H69.0053C69.1671 51.8559 69.4705 52.574 69.9156 53.0594C70.3606 53.5348 70.846 53.7724 71.3719 53.7724C71.8877 53.7724 72.2771 53.6662 72.5401 53.4539C72.8131 53.2415 72.9497 52.9532 72.9497 52.5891C72.9497 52.3565 72.889 52.1542 72.7676 51.9823C72.6564 51.8003 72.4592 51.6182 72.176 51.4362C71.8928 51.244 71.5085 51.0164 71.023 50.7535L70.5831 50.5107C70.0268 50.1972 69.6121 49.8331 69.3391 49.4185C69.0761 48.9937 68.9446 48.5386 68.9446 48.0531C68.9446 47.3654 69.1924 46.8243 69.688 46.4298C70.1937 46.0354 70.8662 45.8382 71.7057 45.8382C71.9181 45.8382 72.09 45.8483 72.2215 45.8685C72.353 45.8887 72.4794 45.914 72.6008 45.9444C72.7221 45.9747 72.8738 46 73.0559 46.0202C73.2379 46.0405 73.4807 46.0506 73.7841 46.0506L73.9965 48.493H73.8144C73.7537 48.0177 73.6172 47.598 73.4048 47.2339C73.2025 46.8597 72.9598 46.5714 72.6766 46.3692C72.3934 46.1568 72.1052 46.0506 71.8119 46.0506C71.4276 46.0506 71.1191 46.1517 70.8865 46.354C70.664 46.5563 70.5527 46.8394 70.5527 47.2035C70.5527 47.4766 70.6387 47.7295 70.8106 47.9621C70.9927 48.1846 71.3365 48.4273 71.8422 48.6903L72.2973 48.9178C73.0053 49.2819 73.5211 49.6612 73.8448 50.0556C74.1684 50.4501 74.3302 50.9558 74.3302 51.5727C74.3302 53.1504 73.3795 53.9494 71.4781 53.9697Z" fill="#E7E4DF"/>
<path d="M78.6273 53.9393C77.9295 53.9393 77.3075 53.7674 76.7613 53.4235C76.2253 53.0796 75.8056 52.6043 75.5021 51.9975C75.1987 51.3805 75.047 50.6776 75.047 49.8887C75.047 49.0796 75.2139 48.3717 75.5477 47.7649C75.8814 47.158 76.3365 46.6877 76.913 46.354C77.4996 46.0101 78.1621 45.8382 78.9004 45.8382C79.5173 45.8382 80.0635 45.9595 80.5388 46.2023C81.0243 46.445 81.4086 46.7889 81.6918 47.2339C81.9851 47.6688 82.152 48.1745 82.1924 48.7509L82.2076 48.9785H77.1102V49.0544C77.1102 50.1264 77.3479 50.9861 77.8233 51.6334C78.2986 52.2705 78.9358 52.5891 79.7348 52.5891C80.2202 52.5891 80.6804 52.4728 81.1153 52.2402C81.5603 51.9975 81.9193 51.6738 82.1924 51.2693L82.329 51.3148C82.157 51.8306 81.889 52.2857 81.5249 52.6802C81.1608 53.0746 80.731 53.3831 80.2354 53.6056C79.7398 53.8281 79.2038 53.9393 78.6273 53.9393ZM77.1254 48.7509H80.2051C80.2051 47.952 80.0736 47.3047 79.8106 46.8091C79.5578 46.3135 79.1987 46.0657 78.7335 46.0657C78.2885 46.0657 77.9193 46.3085 77.626 46.7939C77.3327 47.2794 77.1659 47.9317 77.1254 48.7509Z" fill="#E7E4DF"/>
</g>
<defs>
<clipPath id="clip0_511_91">
<rect width="100" height="100" fill="white"/>
</clipPath>
</defs>
</svg>
