<svg width="100" height="100" viewBox="0 0 100 100" fill="none" xmlns="http://www.w3.org/2000/svg">
<g clip-path="url(#clip0_657_12)">
<circle cx="50" cy="50" r="50" fill="#DC9E00"/>
<path d="M82.3903 53.9393C81.6924 53.9393 81.0704 53.7674 80.5243 53.4235C79.9883 53.0796 79.5685 52.6043 79.2651 51.9975C78.9617 51.3805 78.81 50.6776 78.81 49.8887C78.81 49.0796 78.9769 48.3717 79.3106 47.7648C79.6444 47.158 80.0995 46.6877 80.676 46.354C81.2626 46.0101 81.925 45.8382 82.6633 45.8382C83.2803 45.8382 83.8264 45.9595 84.3018 46.2023C84.7872 46.445 85.1716 46.7889 85.4547 47.2339C85.748 47.6688 85.9149 48.1745 85.9554 48.7509L85.9706 48.9785H80.8732V49.0544C80.8732 50.1264 81.1109 50.9861 81.5862 51.6334C82.0616 52.2705 82.6987 52.5891 83.4977 52.5891C83.9832 52.5891 84.4434 52.4728 84.8783 52.2402C85.3233 51.9975 85.6823 51.6738 85.9554 51.2693L86.0919 51.3148C85.92 51.8306 85.652 52.2857 85.2879 52.6801C84.9238 53.0746 84.4939 53.3831 83.9984 53.6056C83.5028 53.8281 82.9668 53.9393 82.3903 53.9393ZM80.8884 48.7509H83.968C83.968 47.952 83.8365 47.3047 83.5736 46.8091C83.3207 46.3135 82.9617 46.0657 82.4965 46.0657C82.0515 46.0657 81.6823 46.3085 81.389 46.7939C81.0957 47.2794 80.9288 47.9317 80.8884 48.7509Z" fill="#E7E4DF"/>
<path d="M72.0595 53.7573V53.6056H72.0747C72.4388 53.6056 72.7321 53.4943 72.9546 53.2718C73.1771 53.0493 73.2883 52.756 73.2883 52.3919V47.4159C73.2883 47.0316 73.2074 46.7332 73.0456 46.5209C72.8939 46.3085 72.5652 46.2023 72.0595 46.2023V46.0506H73.5614C74.0974 46.0506 74.502 46 74.7751 45.8989C75.0481 45.7876 75.2403 45.646 75.3515 45.4741H75.4274L75.4426 47.9621C75.574 47.6587 75.7409 47.3401 75.9432 47.0063C76.1556 46.6726 76.4186 46.3944 76.7321 46.1719C77.0557 45.9393 77.44 45.823 77.885 45.823C78.0368 45.823 78.1986 45.8382 78.3705 45.8685C78.5424 45.8989 78.7245 45.9545 78.9167 46.0354L78.325 47.8104C77.9609 47.6081 77.6423 47.4665 77.3692 47.3856C77.1063 47.3047 76.8737 47.2642 76.6714 47.2642C76.3275 47.2642 76.0696 47.3704 75.8977 47.5828C75.7359 47.7952 75.5943 48.048 75.4729 48.3413V52.3919C75.4729 52.756 75.5842 53.0493 75.8067 53.2718C76.0292 53.4943 76.3225 53.6056 76.6866 53.6056H76.7017V53.7573H72.0595Z" fill="#E7E4DF"/>
<path d="M67.722 53.9696C66.8927 53.9696 66.1645 53.8028 65.5375 53.469C64.9205 53.1353 64.4401 52.665 64.0962 52.0581C63.7524 51.4513 63.5804 50.7332 63.5804 49.9039C63.5804 49.0746 63.7524 48.3565 64.0962 47.7497C64.4401 47.1428 64.9205 46.6726 65.5375 46.3388C66.1645 46.0051 66.8927 45.8382 67.722 45.8382C68.5514 45.8382 69.2745 46.0051 69.8914 46.3388C70.5084 46.6726 70.9888 47.1428 71.3327 47.7497C71.6765 48.3565 71.8485 49.0746 71.8485 49.9039C71.8485 50.7332 71.6765 51.4513 71.3327 52.0581C70.9888 52.665 70.5084 53.1353 69.8914 53.469C69.2745 53.8028 68.5514 53.9696 67.722 53.9696ZM67.7069 53.7724C68.0608 53.7724 68.3643 53.5954 68.6171 53.2415C68.87 52.8875 69.0672 52.4172 69.2088 51.8306C69.3504 51.2339 69.4211 50.5866 69.4211 49.8887C69.4211 49.1302 69.3453 48.4627 69.1936 47.8862C69.052 47.2996 68.8497 46.8445 68.5868 46.5209C68.3339 46.1871 68.0457 46.0202 67.722 46.0202C67.3782 46.0202 67.0748 46.1972 66.8118 46.5512C66.559 46.9052 66.3617 47.3755 66.2201 47.9621C66.0785 48.5487 66.0077 49.1909 66.0077 49.8887C66.0077 50.6574 66.0836 51.335 66.2353 51.9216C66.387 52.5082 66.5893 52.9633 66.8421 53.287C67.1051 53.6106 67.3933 53.7724 67.7069 53.7724Z" fill="#E7E4DF"/>
<path d="M48.6072 53.7573V53.6056H48.6224C48.9865 53.6056 49.2798 53.4943 49.5023 53.2718C49.7248 53.0493 49.8361 52.756 49.8361 52.3919V47.4159C49.8361 47.0316 49.7552 46.7332 49.5933 46.5209C49.4416 46.3085 49.1129 46.2023 48.6072 46.2023V46.0506H50.1091C50.5238 46.0506 50.8424 46.0303 51.0649 45.9899C51.2975 45.9494 51.4694 45.8989 51.5807 45.8382C51.6919 45.7674 51.7728 45.6966 51.8234 45.6258H51.9751L51.9903 47.598C52.2533 47.0721 52.6528 46.6473 53.1888 46.3236C53.7248 46 54.2912 45.8382 54.8879 45.8382C55.4644 45.8382 55.9448 46 56.3291 46.3236C56.7134 46.6473 56.9612 47.0822 57.0725 47.6283C57.3557 47.0822 57.7602 46.6473 58.2861 46.3236C58.8222 46 59.3986 45.8382 60.0156 45.8382C60.6932 45.8382 61.2343 46.0607 61.6388 46.5057C62.0535 46.9507 62.2608 47.5373 62.2608 48.2655V52.3919C62.2608 52.756 62.3721 53.0493 62.5946 53.2718C62.8171 53.4943 63.1104 53.6056 63.4745 53.6056H63.4897V53.7573H58.8626V53.6056H58.8778C59.2419 53.6056 59.5352 53.4943 59.7577 53.2718C59.9802 53.0493 60.0914 52.756 60.0914 52.3919V48.1138C60.0914 47.6081 59.9903 47.2035 59.788 46.9001C59.5857 46.5967 59.3228 46.445 58.9991 46.445C58.6856 46.445 58.3569 46.5866 58.0131 46.8698C57.6692 47.1429 57.3708 47.5019 57.118 47.9469C57.1281 47.9671 57.1332 47.9924 57.1332 48.0228C57.1332 48.0531 57.1332 48.0784 57.1332 48.0986V52.3919C57.1332 52.756 57.2444 53.0493 57.4669 53.2718C57.6894 53.4943 57.9827 53.6056 58.3468 53.6056H58.362V53.7573H53.7349V53.6056H53.7501C54.1142 53.6056 54.4075 53.4943 54.63 53.2718C54.8525 53.0493 54.9637 52.756 54.9637 52.3919V48.1138C54.9637 47.6081 54.8626 47.2035 54.6603 46.9001C54.4682 46.5967 54.2103 46.445 53.8866 46.445C53.5731 46.445 53.2444 46.5815 52.9005 46.8546C52.5668 47.1176 52.2735 47.4766 52.0206 47.9317V52.3919C52.0206 52.756 52.1319 53.0493 52.3544 53.2718C52.5769 53.4943 52.8702 53.6056 53.2343 53.6056H53.2495V53.7573H48.6072Z" fill="#E7E4DF"/>
<path d="M37.6189 54L34.6151 47.0215C34.514 46.7788 34.3775 46.5866 34.2055 46.445C34.0336 46.2933 33.801 46.2124 33.5077 46.2023V46.0506H37.7706V46.2023C37.4167 46.2427 37.184 46.3995 37.0728 46.6726C36.9615 46.9456 36.9969 47.2895 37.179 47.7042L38.7416 51.3603L39.9249 48.6144L39.3029 47.0215C39.2119 46.7889 39.0905 46.5967 38.9388 46.445C38.7871 46.2933 38.5798 46.2124 38.3168 46.2023V46.0506H42.1398V46.2023C41.8162 46.2427 41.6038 46.3995 41.5026 46.6726C41.4116 46.9456 41.447 47.2895 41.6088 47.7042L43.0045 51.3603L44.4002 47.7952C44.4508 47.6637 44.4862 47.5423 44.5064 47.4311C44.5267 47.3198 44.5368 47.2136 44.5368 47.1125C44.5368 46.8597 44.471 46.6523 44.3395 46.4905C44.2081 46.3287 44.0159 46.2326 43.7631 46.2023V46.0506H45.9173V46.2023C45.6847 46.2629 45.4571 46.4147 45.2346 46.6574C45.0121 46.9001 44.8149 47.2339 44.643 47.6587L42.1398 54H42.0184L40.0159 48.8723L37.7706 54H37.6189Z" fill="#E7E4DF"/>
<path d="M30.1078 53.9393C29.41 53.9393 28.788 53.7674 28.2418 53.4235C27.7058 53.0796 27.2861 52.6043 26.9826 51.9975C26.6792 51.3805 26.5275 50.6776 26.5275 49.8887C26.5275 49.0796 26.6944 48.3717 27.0282 47.7648C27.3619 47.158 27.817 46.6877 28.3935 46.354C28.9801 46.0101 29.6426 45.8382 30.3809 45.8382C30.9978 45.8382 31.544 45.9595 32.0193 46.2023C32.5048 46.445 32.8891 46.7889 33.1723 47.2339C33.4656 47.6688 33.6325 48.1745 33.6729 48.7509L33.6881 48.9785H28.5907V49.0544C28.5907 50.1264 28.8284 50.9861 29.3038 51.6334C29.7791 52.2705 30.4163 52.5891 31.2153 52.5891C31.7007 52.5891 32.1609 52.4728 32.5958 52.2402C33.0408 51.9975 33.3998 51.6738 33.6729 51.2693L33.8094 51.3148C33.6375 51.8306 33.3695 52.2857 33.0054 52.6801C32.6413 53.0746 32.2115 53.3831 31.7159 53.6056C31.2203 53.8281 30.6843 53.9393 30.1078 53.9393ZM28.6059 48.7509H31.6856C31.6856 47.952 31.5541 47.3047 31.2911 46.8091C31.0383 46.3135 30.6792 46.0657 30.214 46.0657C29.769 46.0657 29.3998 46.3085 29.1065 46.7939C28.8132 47.2794 28.6464 47.9317 28.6059 48.7509Z" fill="#E7E4DF"/>
<path d="M21.8516 53.7573V53.6056H21.8667C22.2308 53.6056 22.5241 53.4943 22.7466 53.2718C22.9691 53.0493 23.0804 52.756 23.0804 52.3919V47.4159C23.0804 47.0316 22.9995 46.7332 22.8377 46.5209C22.6859 46.3085 22.3573 46.2023 21.8516 46.2023V46.0506H23.399C23.9148 46.0506 24.3092 45.9949 24.5823 45.8837C24.8351 45.7724 25.0121 45.6359 25.1133 45.4741H25.265V52.3919C25.265 52.756 25.3762 53.0493 25.5987 53.2718C25.8212 53.4943 26.1145 53.6056 26.4786 53.6056H26.4938V53.7573H21.8516ZM24.1575 44.5183C23.7934 44.5183 23.49 44.402 23.2473 44.1694C23.0146 43.9267 22.8983 43.6233 22.8983 43.2592C22.8983 42.8951 23.0146 42.5967 23.2473 42.3641C23.49 42.1214 23.7934 42 24.1575 42C24.5115 42 24.8048 42.1214 25.0374 42.3641C25.2801 42.6068 25.4015 42.9052 25.4015 43.2592C25.4015 43.6131 25.2801 43.9115 25.0374 44.1542C24.8048 44.397 24.5115 44.5183 24.1575 44.5183Z" fill="#E7E4DF"/>
<path d="M18.0193 54L15.0003 47.0215C14.8992 46.7889 14.7626 46.5967 14.5907 46.445C14.4289 46.2933 14.2013 46.2124 13.908 46.2023V46.0506H18.1558V46.2023C17.8018 46.2427 17.5692 46.3995 17.458 46.6726C17.3568 46.9456 17.3922 47.2895 17.5642 47.7042L19.1267 51.3603L20.6741 47.7952C20.7753 47.5626 20.8258 47.335 20.8258 47.1125C20.8258 46.8597 20.75 46.6523 20.5983 46.4905C20.4466 46.3287 20.2342 46.2326 19.9611 46.2023V46.0506H22.3581V46.2023C22.0951 46.2629 21.8423 46.4147 21.5995 46.6574C21.3568 46.9001 21.1394 47.2339 20.9472 47.6587L18.1558 54H18.0193Z" fill="#E7E4DF"/>
</g>
<defs>
<clipPath id="clip0_657_12">
<rect width="100" height="100" fill="white"/>
</clipPath>
</defs>
</svg>
