<svg width="60" height="60" viewBox="0 0 60 60" fill="none" xmlns="http://www.w3.org/2000/svg">
<g clip-path="url(#clip0_511_91)">
<circle cx="30" cy="30" r="30" fill="#DC9E00"/>
<path d="M7.252 34.492L4.864 28.972C4.784 28.788 4.676 28.636 4.54 28.516C4.412 28.396 4.232 28.332 4 28.324V28.204H7.36V28.324C7.08 28.356 6.896 28.48 6.808 28.696C6.728 28.912 6.756 29.184 6.892 29.512L8.128 32.404L9.352 29.584C9.432 29.4 9.472 29.22 9.472 29.044C9.472 28.844 9.412 28.68 9.292 28.552C9.172 28.424 9.004 28.348 8.788 28.324V28.204H10.684V28.324C10.476 28.372 10.276 28.492 10.084 28.684C9.892 28.876 9.72 29.14 9.568 29.476L7.36 34.492H7.252Z" fill="#E7E4DF"/>
<path d="M10.2833 34.3V34.18H10.2953C10.5833 34.18 10.8153 34.092 10.9913 33.916C11.1673 33.74 11.2553 33.508 11.2553 33.22V29.284C11.2553 28.98 11.1913 28.744 11.0633 28.576C10.9433 28.408 10.6833 28.324 10.2833 28.324V28.204H11.5073C11.9153 28.204 12.2273 28.16 12.4433 28.072C12.6433 27.984 12.7833 27.876 12.8633 27.748H12.9833V33.22C12.9833 33.508 13.0713 33.74 13.2473 33.916C13.4233 34.092 13.6553 34.18 13.9433 34.18H13.9553V34.3H10.2833ZM12.1073 26.992C11.8193 26.992 11.5793 26.9 11.3873 26.716C11.2033 26.524 11.1113 26.284 11.1113 25.996C11.1113 25.708 11.2033 25.472 11.3873 25.288C11.5793 25.096 11.8193 25 12.1073 25C12.3873 25 12.6193 25.096 12.8033 25.288C12.9953 25.48 13.0913 25.716 13.0913 25.996C13.0913 26.276 12.9953 26.512 12.8033 26.704C12.6193 26.896 12.3873 26.992 12.1073 26.992Z" fill="#E7E4DF"/>
<path d="M16.814 34.444C16.262 34.444 15.77 34.308 15.338 34.036C14.914 33.764 14.582 33.388 14.342 32.908C14.102 32.42 13.982 31.864 13.982 31.24C13.982 30.6 14.114 30.04 14.378 29.56C14.642 29.08 15.002 28.708 15.458 28.444C15.922 28.172 16.446 28.036 17.03 28.036C17.518 28.036 17.95 28.132 18.326 28.324C18.71 28.516 19.014 28.788 19.238 29.14C19.47 29.484 19.602 29.884 19.634 30.34L19.646 30.52H15.614V30.58C15.614 31.428 15.802 32.108 16.178 32.62C16.554 33.124 17.058 33.376 17.69 33.376C18.074 33.376 18.438 33.284 18.782 33.1C19.134 32.908 19.418 32.652 19.634 32.332L19.742 32.368C19.606 32.776 19.394 33.136 19.106 33.448C18.818 33.76 18.478 34.004 18.086 34.18C17.694 34.356 17.27 34.444 16.814 34.444ZM15.626 30.34H18.062C18.062 29.708 17.958 29.196 17.75 28.804C17.55 28.412 17.266 28.216 16.898 28.216C16.546 28.216 16.254 28.408 16.022 28.792C15.79 29.176 15.658 29.692 15.626 30.34Z" fill="#E7E4DF"/>
<path d="M22.7553 34.492L20.3793 28.972C20.2993 28.78 20.1913 28.628 20.0553 28.516C19.9193 28.396 19.7353 28.332 19.5033 28.324V28.204H22.8753V28.324C22.5953 28.356 22.4113 28.48 22.3233 28.696C22.2353 28.912 22.2633 29.184 22.4073 29.512L23.6433 32.404L24.5793 30.232L24.0873 28.972C24.0153 28.788 23.9193 28.636 23.7993 28.516C23.6793 28.396 23.5153 28.332 23.3073 28.324V28.204H26.3313V28.324C26.0753 28.356 25.9073 28.48 25.8273 28.696C25.7553 28.912 25.7833 29.184 25.9113 29.512L27.0153 32.404L28.1193 29.584C28.1593 29.48 28.1873 29.384 28.2033 29.296C28.2193 29.208 28.2273 29.124 28.2273 29.044C28.2273 28.844 28.1753 28.68 28.0713 28.552C27.9673 28.424 27.8153 28.348 27.6153 28.324V28.204H29.3193V28.324C29.1353 28.372 28.9553 28.492 28.7793 28.684C28.6033 28.876 28.4473 29.14 28.3113 29.476L26.3313 34.492H26.2353L24.6513 30.436L22.8753 34.492H22.7553Z" fill="#E7E4DF"/>
<path d="M34.5671 34.468C34.0231 34.468 33.5391 34.336 33.1151 34.072C32.6911 33.8 32.3591 33.424 32.1191 32.944C31.8871 32.464 31.7711 31.916 31.7711 31.3C31.7711 30.66 31.9031 30.096 32.1671 29.608C32.4311 29.112 32.7911 28.728 33.2471 28.456C33.7111 28.176 34.2311 28.036 34.8071 28.036C35.4791 28.036 36.0351 28.22 36.4751 28.588C36.9231 28.948 37.1911 29.44 37.2791 30.064L35.8391 30.868C35.8391 30.052 35.7351 29.404 35.5271 28.924C35.3191 28.452 35.0271 28.216 34.6511 28.216C34.3951 28.216 34.1711 28.32 33.9791 28.528C33.7951 28.736 33.6511 29.016 33.5471 29.368C33.4511 29.72 33.4031 30.112 33.4031 30.544C33.4031 31.096 33.4871 31.584 33.6551 32.008C33.8231 32.424 34.0591 32.752 34.3631 32.992C34.6671 33.224 35.0271 33.34 35.4431 33.34C35.8271 33.34 36.1911 33.244 36.5351 33.052C36.8871 32.86 37.1751 32.6 37.3991 32.272L37.5191 32.308C37.3831 32.74 37.1671 33.12 36.8711 33.448C36.5751 33.768 36.2271 34.02 35.8271 34.204C35.4351 34.38 35.0151 34.468 34.5671 34.468Z" fill="#E7E4DF"/>
<path d="M39.496 34.468C39.008 34.468 38.616 34.336 38.32 34.072C38.024 33.808 37.876 33.46 37.876 33.028C37.876 32.844 37.908 32.672 37.972 32.512C38.036 32.344 38.156 32.18 38.332 32.02C38.516 31.86 38.768 31.696 39.088 31.528C39.408 31.352 39.832 31.168 40.36 30.976L41.476 30.568V29.668C41.476 29.212 41.404 28.852 41.26 28.588C41.116 28.316 40.916 28.18 40.66 28.18C40.356 28.188 40.096 28.388 39.88 28.78C39.672 29.172 39.532 29.716 39.46 30.412L38.164 29.668C38.3 29.34 38.508 29.052 38.788 28.804C39.068 28.556 39.388 28.364 39.748 28.228C40.116 28.092 40.5 28.024 40.9 28.024C41.58 28.024 42.132 28.216 42.556 28.6C42.988 28.976 43.204 29.492 43.204 30.148V33.04C43.204 33.504 43.36 33.736 43.672 33.736C43.856 33.736 44.036 33.636 44.212 33.436L44.308 33.52C44.1 33.8 43.848 34.028 43.552 34.204C43.256 34.38 42.968 34.468 42.688 34.468C42.384 34.468 42.12 34.364 41.896 34.156C41.68 33.948 41.544 33.672 41.488 33.328C41.096 33.728 40.752 34.02 40.456 34.204C40.168 34.38 39.848 34.468 39.496 34.468ZM40.396 33.724C40.572 33.724 40.74 33.68 40.9 33.592C41.068 33.504 41.256 33.36 41.464 33.16L41.476 30.724L40.996 30.904C40.588 31.056 40.276 31.212 40.06 31.372C39.844 31.524 39.692 31.696 39.604 31.888C39.524 32.08 39.484 32.3 39.484 32.548C39.484 32.892 39.568 33.176 39.736 33.4C39.912 33.616 40.132 33.724 40.396 33.724Z" fill="#E7E4DF"/>
<path d="M46.5614 34.468C46.3534 34.468 46.1974 34.46 46.0934 34.444C45.9894 34.428 45.8894 34.408 45.7934 34.384C45.7054 34.36 45.5854 34.34 45.4334 34.324C45.2814 34.308 45.0494 34.3 44.7374 34.3L44.4494 32.044H44.6054C44.7334 32.796 44.9734 33.364 45.3254 33.748C45.6774 34.124 46.0614 34.312 46.4774 34.312C46.8854 34.312 47.1934 34.228 47.4014 34.06C47.6174 33.892 47.7254 33.664 47.7254 33.376C47.7254 33.192 47.6774 33.032 47.5814 32.896C47.4934 32.752 47.3374 32.608 47.1134 32.464C46.8894 32.312 46.5854 32.132 46.2014 31.924L45.8534 31.732C45.4134 31.484 45.0854 31.196 44.8694 30.868C44.6614 30.532 44.5574 30.172 44.5574 29.788C44.5574 29.244 44.7534 28.816 45.1454 28.504C45.5454 28.192 46.0774 28.036 46.7414 28.036C46.9094 28.036 47.0454 28.044 47.1494 28.06C47.2534 28.076 47.3534 28.096 47.4494 28.12C47.5454 28.144 47.6654 28.164 47.8094 28.18C47.9534 28.196 48.1454 28.204 48.3854 28.204L48.5534 30.136H48.4094C48.3614 29.76 48.2534 29.428 48.0854 29.14C47.9254 28.844 47.7334 28.616 47.5094 28.456C47.2854 28.288 47.0574 28.204 46.8254 28.204C46.5214 28.204 46.2774 28.284 46.0934 28.444C45.9174 28.604 45.8294 28.828 45.8294 29.116C45.8294 29.332 45.8974 29.532 46.0334 29.716C46.1774 29.892 46.4494 30.084 46.8494 30.292L47.2094 30.472C47.7694 30.76 48.1774 31.06 48.4334 31.372C48.6894 31.684 48.8174 32.084 48.8174 32.572C48.8174 33.82 48.0654 34.452 46.5614 34.468Z" fill="#E7E4DF"/>
<path d="M52.2164 34.444C51.6644 34.444 51.1724 34.308 50.7404 34.036C50.3164 33.764 49.9844 33.388 49.7444 32.908C49.5044 32.42 49.3844 31.864 49.3844 31.24C49.3844 30.6 49.5164 30.04 49.7804 29.56C50.0444 29.08 50.4044 28.708 50.8604 28.444C51.3244 28.172 51.8484 28.036 52.4324 28.036C52.9204 28.036 53.3524 28.132 53.7284 28.324C54.1124 28.516 54.4164 28.788 54.6404 29.14C54.8724 29.484 55.0044 29.884 55.0364 30.34L55.0484 30.52H51.0164V30.58C51.0164 31.428 51.2044 32.108 51.5804 32.62C51.9564 33.124 52.4604 33.376 53.0924 33.376C53.4764 33.376 53.8404 33.284 54.1844 33.1C54.5364 32.908 54.8204 32.652 55.0364 32.332L55.1444 32.368C55.0084 32.776 54.7964 33.136 54.5084 33.448C54.2204 33.76 53.8804 34.004 53.4884 34.18C53.0964 34.356 52.6724 34.444 52.2164 34.444ZM51.0284 30.34H53.4644C53.4644 29.708 53.3604 29.196 53.1524 28.804C52.9524 28.412 52.6684 28.216 52.3004 28.216C51.9484 28.216 51.6564 28.408 51.4244 28.792C51.1924 29.176 51.0604 29.692 51.0284 30.34Z" fill="#E7E4DF"/>
</g>
<defs>
<clipPath id="clip0_511_91">
<rect width="60" height="60" fill="white"/>
</clipPath>
</defs>
</svg>
