<svg width="163" height="34" viewBox="0 0 163 34" fill="none" xmlns="http://www.w3.org/2000/svg">
<g clip-path="url(#clip0_48_81)">
<path d="M108.357 0.013916H136.749V5.39739H125.486V33.719H119.855V5.39739H108.357V0.013916ZM61.6636 0.013916V5.39739H38.9057V14.0576H57.2076V19.4411H38.9057V28.3355H61.6636V33.7194H33.2743V5.39739H33.2719V0.013916H61.6636ZM75.8405 0.027941H68.4707L94.8676 33.733H102.259L89.0588 16.8919L102.238 0.053441L94.8676 0.065341L85.369 12.1846L75.8405 0.027941ZM83.403 24.1038L79.7124 19.3897L68.4496 33.7589H75.8405L83.403 24.1038Z" fill="white"/>
<path fill-rule="evenodd" clip-rule="evenodd" d="M33.4717 33.7191L7.0392 0H0V33.7051H5.63136V7.2046L26.3973 33.7191H33.4717Z" fill="white"/>
<path d="M138.015 33.5134C137.819 33.5166 137.625 33.4793 137.443 33.4037C137.261 33.328 137.096 33.2156 136.958 33.0731C136.664 32.7794 136.519 32.4241 136.523 32.0029C136.519 31.5937 136.664 31.2422 136.958 30.9485C137.096 30.806 137.261 30.6935 137.443 30.6179C137.625 30.5422 137.819 30.5049 138.015 30.5082C138.412 30.5082 138.759 30.6548 139.053 30.9485C139.351 31.2417 139.499 31.5937 139.503 32.0029C139.502 32.2715 139.43 32.5347 139.293 32.7637C139.159 32.9899 138.971 33.1774 138.747 33.3085C138.526 33.4444 138.273 33.5152 138.015 33.5134ZM147.627 19.3141H150.122V29.1911C150.118 30.0985 149.927 30.875 149.554 31.5278C149.176 32.1806 148.653 32.6787 147.982 33.0302C147.314 33.3778 146.532 33.5559 145.643 33.5559C144.83 33.5559 144.101 33.405 143.452 33.1113C142.804 32.8181 142.289 32.3778 141.911 31.7981C141.529 31.2188 141.342 30.4963 141.342 29.6314H143.842C143.845 30.0097 143.929 30.3382 144.09 30.6123C144.247 30.8835 144.478 31.1021 144.754 31.2418C145.039 31.3888 145.368 31.4623 145.738 31.4623C146.139 31.4623 146.482 31.3773 146.76 31.2031C147.039 31.0331 147.253 30.7781 147.402 30.4385C147.546 30.1028 147.623 29.6854 147.627 29.1911V19.3141ZM160.39 23.177C160.329 22.5781 160.062 22.1106 159.596 21.7787C159.127 21.4429 158.52 21.2764 157.776 21.2764C157.254 21.2764 156.804 21.3575 156.43 21.516C156.056 21.6784 155.766 21.8943 155.567 22.1688C155.369 22.443 155.269 22.7558 155.262 23.1072C155.262 23.4009 155.33 23.6555 155.464 23.868C155.602 24.0907 155.789 24.2772 156.01 24.4129C156.249 24.5678 156.505 24.6936 156.773 24.7877C157.055 24.888 157.338 24.973 157.62 25.0427L158.921 25.3708C159.439 25.4919 159.946 25.66 160.436 25.8731C160.907 26.0732 161.347 26.3411 161.744 26.6688C162.126 26.9842 162.438 27.379 162.66 27.8273C162.885 28.2795 163 28.8086 163 29.4189C163 30.2417 162.794 30.9638 162.378 31.5898C161.962 32.2116 161.363 32.6982 160.577 33.0497C159.795 33.3974 158.848 33.575 157.734 33.575C156.658 33.575 155.72 33.405 154.93 33.065C154.136 32.7293 153.518 32.2346 153.071 31.586C152.625 30.937 152.385 30.1452 152.35 29.2145H154.823C154.857 29.7007 155.01 30.1066 155.269 30.4347C155.533 30.759 155.876 30.9987 156.296 31.161C156.72 31.3191 157.192 31.4003 157.715 31.4003C158.261 31.4003 158.742 31.3153 159.157 31.1495C159.57 30.9833 159.894 30.7513 160.127 30.45C160.363 30.1525 160.482 29.8014 160.485 29.3994C160.482 29.0326 160.375 28.7274 160.169 28.4878C159.959 28.2485 159.669 28.0475 159.299 27.8855C158.875 27.7059 158.439 27.56 157.994 27.449L156.414 27.0394C155.273 26.7419 154.369 26.2901 153.709 25.6836C153.045 25.0771 152.717 24.2739 152.717 23.2654C152.717 22.4392 152.938 21.7128 153.385 21.091C153.827 20.4693 154.434 19.986 155.201 19.6426C155.972 19.295 156.842 19.125 157.81 19.125C158.795 19.125 159.657 19.295 160.402 19.6426C161.145 19.9865 161.73 20.4655 162.153 21.0758C162.576 21.6861 162.798 22.3848 162.809 23.177H160.39Z" fill="white"/>
</g>
<defs>
<clipPath id="clip0_48_81">
<rect width="163" height="34" fill="white"/>
</clipPath>
</defs>
</svg>
